999
dxfrw 0.6.3
  0
SECTION
  2
HEADER
  9
$ACADVER
  1
AC1021
  9
$DWGCODEPAGE
  3
ANSI_1252
  9
$INSBASE
 10
0
 20
0
 30
0
  9
$EXTMIN
 10
-13
 20
-121
 30
0
  9
$EXTMAX
 10
361.25
 20
93.12500000000003
 30
0
  9
$LIMMIN
 10
0
 20
0
  9
$LIMMAX
 10
420
 20
297
  9
$ORTHOMODE
 70
    0
  9
$REGENMODE
 70
    1
  9
$FILLMODE
 70
    1
  9
$QTEXTMODE
 70
    0
  9
$MIRRTEXT
 70
    0
  9
$LTSCALE
 40
1
  9
$ATTMODE
 70
    0
  9
$TEXTSIZE
 40
2.5
  9
$TRACEWID
 40
15.68
  9
$TEXTSTYLE
  7
STANDARD
  9
$CLAYER
  8
Measurements
  9
$CELTYPE
  6
BYLAYER
  9
$CECOLOR
 62
  256
  9
$CELTSCALE
 40
1
  9
$DISPSILH
 70
    0
  9
$DIMSCALE
 40
1
  9
$DIMASZ
 40
2.5
  9
$DIMEXO
 40
0.625
  9
$DIMDLI
 40
3.75
  9
$DIMRND
 40
0
  9
$DIMDLE
 40
0
  9
$DIMEXE
 40
1.25
  9
$DIMTP
 40
0
  9
$DIMTM
 40
0
  9
$DIMTXT
 40
2.5
  9
$DIMCEN
 40
2.5
  9
$DIMTSZ
 40
0
  9
$DIMTOL
 70
    0
  9
$DIMLIM
 70
    0
  9
$DIMTIH
 70
    0
  9
$DIMTOH
 70
    0
  9
$DIMSE1
 70
    0
  9
$DIMSE2
 70
    0
  9
$DIMTAD
 70
    1
  9
$DIMZIN
 70
    8
  9
$DIMBLK
  1

  9
$DIMASO
 70
    1
  9
$DIMSHO
 70
    1
  9
$DIMPOST
  1

  9
$DIMAPOST
  1

  9
$DIMALT
 70
    0
  9
$DIMALTD
 70
    3
  9
$DIMALTF
 40
0.03937
  9
$DIMLFAC
 40
1
  9
$DIMTOFL
 70
    1
  9
$DIMTVP
 40
0
  9
$DIMTIX
 70
    0
  9
$DIMSOXD
 70
    0
  9
$DIMSAH
 70
    0
  9
$DIMBLK1
  1

  9
$DIMBLK2
  1

  9
$DIMSTYLE
  2
STANDARD
  9
$DIMCLRD
 70
    0
  9
$DIMCLRE
 70
    0
  9
$DIMCLRT
 70
    0
  9
$DIMTFAC
 40
1
  9
$DIMGAP
 40
0.625
  9
$DIMJUST
 70
    0
  9
$DIMSD1
 70
    0
  9
$DIMSD2
 70
    0
  9
$DIMTOLJ
 70
    0
  9
$DIMTZIN
 70
    8
  9
$DIMALTZ
 70
    0
  9
$DIMALTTZ
 70
    0
  9
$DIMUPT
 70
    0
  9
$DIMDEC
 70
    2
  9
$DIMTDEC
 70
    2
  9
$DIMALTU
 70
    2
  9
$DIMALTTD
 70
    3
  9
$DIMTXSTY
  7
standard
  9
$DIMAUNIT
 70
    0
  9
$DIMADEC
 70
    0
  9
$DIMALTRND
 40
0
  9
$DIMAZIN
 70
    0
  9
$DIMDSEP
 70
   44
  9
$DIMATFIT
 70
    3
  9
$DIMFRAC
 70
    0
  9
$DIMLDRBLK
  1
STANDARD
  9
$DIMLUNIT
 70
    2
  9
$DIMLWD
 70
   -2
  9
$DIMLWE
 70
   -2
  9
$DIMTMOVE
 70
    0
  9
$DIMFXL
 40
1
  9
$DIMFXLON
 70
    0
  9
$DIMJOGANG
 40
0.7854
  9
$DIMTFILL
 70
    0
  9
$DIMTFILLCLR
 70
    0
  9
$DIMARCSYM
 70
    0
  9
$DIMLTYPE
  6

  9
$DIMLTEX1
  6

  9
$DIMLTEX2
  6

  9
$LUNITS
 70
    2
  9
$LUPREC
 70
    4
  9
$SKETCHINC
 40
1
  9
$FILLETRAD
 40
0
  9
$AUNITS
 70
    0
  9
$AUPREC
 70
    2
  9
$MENU
  1
.
  9
$ELEVATION
 40
0
  9
$PELEVATION
 40
0
  9
$THICKNESS
 40
0
  9
$LIMCHECK
 70
    0
  9
$CHAMFERA
 40
0
  9
$CHAMFERB
 40
0
  9
$CHAMFERC
 40
0
  9
$CHAMFERD
 40
0
  9
$SKPOLY
 70
    0
  9
$USRTIMER
 70
    1
  9
$ANGBASE
 50
0
  9
$ANGDIR
 70
    0
  9
$PDMODE
 70
   34
  9
$PDSIZE
 40
0
  9
$PLINEWID
 40
0
  9
$SPLFRAME
 70
    0
  9
$SPLINETYPE
 70
    2
  9
$SPLINESEGS
 70
    8
  9
$HANDSEED
  5
20000
  9
$SURFTAB1
 70
    6
  9
$SURFTAB2
 70
    6
  9
$SURFTYPE
 70
    6
  9
$SURFU
 70
    6
  9
$SURFV
 70
    6
  9
$UCSBASE
  2

  9
$UCSNAME
  2

  9
$UCSORG
 10
0
 20
0
 30
0
  9
$UCSXDIR
 10
1
 20
0
 30
0
  9
$UCSYDIR
 10
0
 20
1
 30
0
  9
$UCSORTHOREF
  2

  9
$UCSORTHOVIEW
 70
    0
  9
$UCSORGTOP
 10
0
 20
0
 30
0
  9
$UCSORGBOTTOM
 10
0
 20
0
 30
0
  9
$UCSORGLEFT
 10
0
 20
0
 30
0
  9
$UCSORGRIGHT
 10
0
 20
0
 30
0
  9
$UCSORGFRONT
 10
0
 20
0
 30
0
  9
$UCSORGBACK
 10
0
 20
0
 30
0
  9
$PUCSBASE
  2

  9
$PUCSNAME
  2

  9
$PUCSORG
 10
0
 20
0
 30
0
  9
$PUCSXDIR
 10
1
 20
0
 30
0
  9
$PUCSYDIR
 10
0
 20
1
 30
0
  9
$PUCSORTHOREF
  2

  9
$PUCSORTHOVIEW
 70
    0
  9
$PUCSORGTOP
 10
0
 20
0
 30
0
  9
$PUCSORGBOTTOM
 10
0
 20
0
 30
0
  9
$PUCSORGLEFT
 10
0
 20
0
 30
0
  9
$PUCSORGRIGHT
 10
0
 20
0
 30
0
  9
$PUCSORGFRONT
 10
0
 20
0
 30
0
  9
$PUCSORGBACK
 10
0
 20
0
 30
0
  9
$USERI1
 70
    0
  9
$USERI2
 70
    0
  9
$USERI3
 70
    0
  9
$USERI4
 70
    0
  9
$USERI5
 70
    0
  9
$USERR1
 40
0
  9
$USERR2
 40
0
  9
$USERR3
 40
0
  9
$USERR4
 40
0
  9
$USERR5
 40
0
  9
$WORLDVIEW
 70
    1
  9
$SHADEDGE
 70
    3
  9
$SHADEDIF
 70
   70
  9
$TILEMODE
 70
    1
  9
$MAXACTVP
 70
   64
  9
$PINSBASE
 10
43.51446201311224
 20
127.2242576166602
 30
0
  9
$PLIMCHECK
 70
    0
  9
$PEXTMIN
 10
0
 20
0
 30
0
  9
$PEXTMAX
 10
0
 20
0
 30
0
  9
$GRIDMODE
 70
    1
  9
$SNAPSTYLE
 70
    0
  9
$GRIDUNIT
 10
0
 20
0
  9
$PLIMMIN
 10
0
 20
0
  9
$PLIMMAX
 10
297
 20
210
  9
$UNITMODE
 70
    0
  9
$VISRETAIN
 70
    1
  9
$PLINEGEN
 70
    0
  9
$PSLTSCALE
 70
    1
  9
$TREEDEPTH
 70
 3020
  9
$CMLSTYLE
  2
Standard
  9
$CMLJUST
 70
    0
  9
$CMLSCALE
 40
20
  9
$PROXYGRAPHICS
 70
    1
  9
$MEASUREMENT
 70
    1
  9
$CELWEIGHT
370
   -1
  9
$ENDCAPS
280
    0
  9
$JOINSTYLE
280
    0
  9
$LWDISPLAY
290
    0
  9
$INSUNITS
 70
    4
  9
$HYPERLINKBASE
  1

  9
$STYLESHEET
  1

  9
$XEDIT
290
    1
  9
$CEPSNTYPE
380
    0
  9
$PSTYLEMODE
290
    1
  9
$EXTNAMES
290
    1
  9
$PSVPSCALE
 40
0.5707664823090929
  9
$OLESTARTUP
290
    0
  9
$SORTENTS
280
  127
  9
$INDEXCTL
280
    0
  9
$HIDETEXT
280
    1
  9
$XCLIPFRAME
290
    0
  9
$HALOGAP
280
    0
  9
$OBSCOLOR
 70
  257
  9
$OBSLTYPE
280
    0
  9
$INTERSECTIONDISPLAY
280
    0
  9
$INTERSECTIONCOLOR
 70
  257
  9
$DIMASSOC
280
    1
  9
$PROJECTNAME
  1

  9
$CAMERADISPLAY
290
    0
  9
$LENSLENGTH
 40
50
  9
$CAMERAHEIGHT
 40
0
  9
$STEPSPERSEC
 40
2
  9
$STEPSIZE
 40
50
  9
$3DDWFPREC
 40
2
  9
$PSOLWIDTH
 40
5
  9
$PSOLHEIGHT
 40
80
  9
$LOFTANG1
 40
1.570796326794897
  9
$LOFTANG2
 40
1.570796326794897
  9
$LOFTMAG1
 40
0
  9
$LOFTMAG2
 40
0
  9
$LOFTPARAM
 70
    7
  9
$LOFTNORMALS
280
    1
  9
$LATITUDE
 40
1
  9
$LONGITUDE
 40
1
  9
$NORTHDIRECTION
 40
0
  9
$TIMEZONE
 70
-8000
  9
$LIGHTGLYPHDISPLAY
280
    1
  9
$TILEMODELIGHTSYNCH
280
    1
  9
$SOLIDHIST
280
    1
  9
$SHOWHIST
280
    1
  9
$DWFFRAME
280
    2
  9
$DGNFRAME
280
    0
  9
$REALWORLDSCALE
290
    1
  9
$INTERFERECOLOR
 62
    1
  9
$CSHADOW
280
    0
  9
$SHADOWPLANELOCATION
 40
0
  0
ENDSEC
  0
SECTION
  2
CLASSES
  0
ENDSEC
  0
SECTION
  2
TABLES
  0
TABLE
  2
VPORT
  5
8
330
0
100
AcDbSymbolTable
 70
    1
  0
VPORT
  5
31
330
2
100
AcDbSymbolTableRecord
100
AcDbViewportTableRecord
  2
*ACTIVE
 70
    0
 10
0
 20
0
 11
1
 21
1
 12
202.5030718400972
 22
66.38149476904648
 13
0
 23
0
 14
10
 24
10
 15
10
 25
10
 16
0
 26
0
 36
1
 17
0
 27
0
 37
0
 40
286.4677601640399
 41
1.893793103448276
 42
50
 43
0
 44
0
 50
0
 51
0
 71
    0
 72
  100
 73
    1
 74
    3
 75
    0
 76
    1
 77
    0
 78
    0
281
    0
 65
    1
110
0
120
0
130
0
111
1
121
0
131
0
112
0
122
1
132
0
 79
    0
146
0
348
10020
 60
    7
 61
    5
292
1
282
    1
141
0
142
0
 63
  250
421
3358443
  0
ENDTAB
  0
TABLE
  2
LTYPE
  5
5
330
0
100
AcDbSymbolTable
 70
    4
  0
LTYPE
  5
14
330
5
100
AcDbSymbolTableRecord
100
AcDbLinetypeTableRecord
  2
ByBlock
 70
    0
  3

 72
   65
 73
    0
 40
0
  0
LTYPE
  5
15
330
5
100
AcDbSymbolTableRecord
100
AcDbLinetypeTableRecord
  2
ByLayer
 70
    0
  3

 72
   65
 73
    0
 40
0
  0
LTYPE
  5
16
330
5
100
AcDbSymbolTableRecord
100
AcDbLinetypeTableRecord
  2
Continuous
 70
    0
  3
Solid line
 72
   65
 73
    0
 40
0
  0
LTYPE
  5
32
330
5
100
AcDbSymbolTableRecord
100
AcDbLinetypeTableRecord
  2
DOT
 70
    0
  3
Dot . . . . . . . . . . . . . . . . . . . . . .
 72
   65
 73
    2
 40
6.35
 49
0
 74
    0
 49
-6.35
 74
    0
  0
LTYPE
  5
33
330
5
100
AcDbSymbolTableRecord
100
AcDbLinetypeTableRecord
  2
DOTTINY
 70
    0
  3
Dot (.15x) .....................................
 72
   65
 73
    2
 40
0.9525
 49
0
 74
    0
 49
-0.9525
 74
    0
  0
LTYPE
  5
34
330
5
100
AcDbSymbolTableRecord
100
AcDbLinetypeTableRecord
  2
DOT2
 70
    0
  3
Dot (.5x) .....................................
 72
   65
 73
    2
 40
3.175
 49
0
 74
    0
 49
-3.175
 74
    0
  0
LTYPE
  5
35
330
5
100
AcDbSymbolTableRecord
100
AcDbLinetypeTableRecord
  2
DOTX2
 70
    0
  3
Dot (2x) .  .  .  .  .  .  .  .  .  .  .  .  .
 72
   65
 73
    2
 40
12.7
 49
0
 74
    0
 49
-12.7
 74
    0
  0
LTYPE
  5
36
330
5
100
AcDbSymbolTableRecord
100
AcDbLinetypeTableRecord
  2
DASHED
 70
    0
  3
Dashed _ _ _ _ _ _ _ _ _ _ _ _ _ _ _ _ _
 72
   65
 73
    2
 40
19.05
 49
12.7
 74
    0
 49
-6.35
 74
    0
  0
LTYPE
  5
37
330
5
100
AcDbSymbolTableRecord
100
AcDbLinetypeTableRecord
  2
DASHEDTINY
 70
    0
  3
Dashed (.15x) _ _ _ _ _ _ _ _ _ _ _ _ _ _ _ _ _
 72
   65
 73
    2
 40
2.8575
 49
1.905
 74
    0
 49
-0.9525
 74
    0
  0
LTYPE
  5
38
330
5
100
AcDbSymbolTableRecord
100
AcDbLinetypeTableRecord
  2
DASHED2
 70
    0
  3
Dashed (.5x) _ _ _ _ _ _ _ _ _ _ _ _ _ _ _ _ _
 72
   65
 73
    2
 40
9.524999999999999
 49
6.35
 74
    0
 49
-3.175
 74
    0
  0
LTYPE
  5
39
330
5
100
AcDbSymbolTableRecord
100
AcDbLinetypeTableRecord
  2
DASHEDX2
 70
    0
  3
Dashed (2x) ____  ____  ____  ____  ____  ___
 72
   65
 73
    2
 40
38.09999999999999
 49
25.4
 74
    0
 49
-12.7
 74
    0
  0
LTYPE
  5
3A
330
5
100
AcDbSymbolTableRecord
100
AcDbLinetypeTableRecord
  2
DASHDOT
 70
    0
  3
Dash dot __ . __ . __ . __ . __ . __ . __ . __
 72
   65
 73
    4
 40
25.4
 49
12.7
 74
    0
 49
-6.35
 74
    0
 49
0
 74
    0
 49
-6.35
 74
    0
  0
LTYPE
  5
3B
330
5
100
AcDbSymbolTableRecord
100
AcDbLinetypeTableRecord
  2
DASHDOTTINY
 70
    0
  3
Dash dot (.15x) _._._._._._._._._._._._._._._.
 72
   65
 73
    4
 40
3.81
 49
1.905
 74
    0
 49
-0.9525
 74
    0
 49
0
 74
    0
 49
-0.9525
 74
    0
  0
LTYPE
  5
3C
330
5
100
AcDbSymbolTableRecord
100
AcDbLinetypeTableRecord
  2
DASHDOT2
 70
    0
  3
Dash dot (.5x) _._._._._._._._._._._._._._._.
 72
   65
 73
    4
 40
12.7
 49
6.35
 74
    0
 49
-3.175
 74
    0
 49
0
 74
    0
 49
-3.175
 74
    0
  0
LTYPE
  5
3D
330
5
100
AcDbSymbolTableRecord
100
AcDbLinetypeTableRecord
  2
DASHDOTX2
 70
    0
  3
Dash dot (2x) ____  .  ____  .  ____  .  ___
 72
   65
 73
    4
 40
50.8
 49
25.4
 74
    0
 49
-12.7
 74
    0
 49
0
 74
    0
 49
-12.7
 74
    0
  0
LTYPE
  5
3E
330
5
100
AcDbSymbolTableRecord
100
AcDbLinetypeTableRecord
  2
DIVIDE
 70
    0
  3
Divide ____ . . ____ . . ____ . . ____ . . ____
 72
   65
 73
    6
 40
31.75
 49
12.7
 74
    0
 49
-6.35
 74
    0
 49
0
 74
    0
 49
-6.35
 74
    0
 49
0
 74
    0
 49
-6.35
 74
    0
  0
LTYPE
  5
3F
330
5
100
AcDbSymbolTableRecord
100
AcDbLinetypeTableRecord
  2
DIVIDETINY
 70
    0
  3
Divide (.15x) __..__..__..__..__..__..__..__.._
 72
   65
 73
    6
 40
4.7625
 49
1.905
 74
    0
 49
-0.9525
 74
    0
 49
0
 74
    0
 49
-0.9525
 74
    0
 49
0
 74
    0
 49
-0.9525
 74
    0
  0
LTYPE
  5
40
330
5
100
AcDbSymbolTableRecord
100
AcDbLinetypeTableRecord
  2
DIVIDE2
 70
    0
  3
Divide (.5x) __..__..__..__..__..__..__..__.._
 72
   65
 73
    6
 40
15.875
 49
6.35
 74
    0
 49
-3.175
 74
    0
 49
0
 74
    0
 49
-3.175
 74
    0
 49
0
 74
    0
 49
-3.175
 74
    0
  0
LTYPE
  5
41
330
5
100
AcDbSymbolTableRecord
100
AcDbLinetypeTableRecord
  2
DIVIDEX2
 70
    0
  3
Divide (2x) ________  .  .  ________  .  .  _
 72
   65
 73
    6
 40
63.5
 49
25.4
 74
    0
 49
-12.7
 74
    0
 49
0
 74
    0
 49
-12.7
 74
    0
 49
0
 74
    0
 49
-12.7
 74
    0
  0
LTYPE
  5
42
330
5
100
AcDbSymbolTableRecord
100
AcDbLinetypeTableRecord
  2
BORDER
 70
    0
  3
Border __ __ . __ __ . __ __ . __ __ . __ __ .
 72
   65
 73
    6
 40
44.45
 49
12.7
 74
    0
 49
-6.35
 74
    0
 49
12.7
 74
    0
 49
-6.35
 74
    0
 49
0
 74
    0
 49
-6.35
 74
    0
  0
LTYPE
  5
43
330
5
100
AcDbSymbolTableRecord
100
AcDbLinetypeTableRecord
  2
BORDERTINY
 70
    0
  3
Border (.15x) __.__.__.__.__.__.__.__.__.__.__.
 72
   65
 73
    6
 40
6.6675
 49
1.905
 74
    0
 49
-0.9525
 74
    0
 49
1.905
 74
    0
 49
-0.9525
 74
    0
 49
0
 74
    0
 49
-0.9525
 74
    0
  0
LTYPE
  5
44
330
5
100
AcDbSymbolTableRecord
100
AcDbLinetypeTableRecord
  2
BORDER2
 70
    0
  3
Border (.5x) __.__.__.__.__.__.__.__.__.__.__.
 72
   65
 73
    6
 40
22.225
 49
6.35
 74
    0
 49
-3.175
 74
    0
 49
6.35
 74
    0
 49
-3.175
 74
    0
 49
0
 74
    0
 49
-3.175
 74
    0
  0
LTYPE
  5
45
330
5
100
AcDbSymbolTableRecord
100
AcDbLinetypeTableRecord
  2
BORDERX2
 70
    0
  3
Border (2x) ____  ____  .  ____  ____  .  ___
 72
   65
 73
    6
 40
88.89999999999999
 49
25.4
 74
    0
 49
-12.7
 74
    0
 49
25.4
 74
    0
 49
-12.7
 74
    0
 49
0
 74
    0
 49
-12.7
 74
    0
  0
LTYPE
  5
46
330
5
100
AcDbSymbolTableRecord
100
AcDbLinetypeTableRecord
  2
CENTER
 70
    0
  3
Center ____ _ ____ _ ____ _ ____ _ ____ _ ____
 72
   65
 73
    4
 40
50.8
 49
31.75
 74
    0
 49
-6.35
 74
    0
 49
6.35
 74
    0
 49
-6.35
 74
    0
  0
LTYPE
  5
47
330
5
100
AcDbSymbolTableRecord
100
AcDbLinetypeTableRecord
  2
CENTERTINY
 70
    0
  3
Center (.15x) ___ _ ___ _ ___ _ ___ _ ___ _ ___
 72
   65
 73
    4
 40
7.619999999999999
 49
4.7625
 74
    0
 49
-0.9525
 74
    0
 49
0.9525
 74
    0
 49
-0.9525
 74
    0
  0
LTYPE
  5
48
330
5
100
AcDbSymbolTableRecord
100
AcDbLinetypeTableRecord
  2
CENTER2
 70
    0
  3
Center (.5x) ___ _ ___ _ ___ _ ___ _ ___ _ ___
 72
   65
 73
    4
 40
28.575
 49
19.05
 74
    0
 49
-3.175
 74
    0
 49
3.175
 74
    0
 49
-3.175
 74
    0
  0
LTYPE
  5
49
330
5
100
AcDbSymbolTableRecord
100
AcDbLinetypeTableRecord
  2
CENTERX2
 70
    0
  3
Center (2x) ________  __  ________  __  _____
 72
   65
 73
    4
 40
101.6
 49
63.5
 74
    0
 49
-12.7
 74
    0
 49
12.7
 74
    0
 49
-12.7
 74
    0
  0
ENDTAB
  0
TABLE
  2
LAYER
  5
2
330
0
100
AcDbSymbolTable
 70
    1
  0
LAYER
  5
10
330
2
100
AcDbSymbolTableRecord
100
AcDbLayerTableRecord
  2
0
 70
    0
 62
    7
  6
CONTINUOUS
370
    0
390
F
  0
LAYER
  5
4A
330
2
100
AcDbSymbolTableRecord
100
AcDbLayerTableRecord
  2
Acrylic front
 70
    0
 62
    8
  6
CONTINUOUS
370
    0
390
F
  0
LAYER
  5
4B
330
2
100
AcDbSymbolTableRecord
100
AcDbLayerTableRecord
  2
Aluminium plate
 70
    0
 62
    8
  6
CONTINUOUS
370
    0
390
F
  0
LAYER
  5
4C
330
2
100
AcDbSymbolTableRecord
100
AcDbLayerTableRecord
  2
Hardware
 70
    0
 62
    7
  6
CONTINUOUS
370
    0
390
F
  0
LAYER
  5
4D
330
2
100
AcDbSymbolTableRecord
100
AcDbLayerTableRecord
  2
Leds
 70
    0
 62
    7
  6
CONTINUOUS
370
   -3
390
F
  0
LAYER
  5
4E
330
2
100
AcDbSymbolTableRecord
100
AcDbLayerTableRecord
  2
Ledstrips
 70
    0
 62
  216
420
8388736
  6
CONTINUOUS
370
    0
390
F
  0
LAYER
  5
4F
330
2
100
AcDbSymbolTableRecord
100
AcDbLayerTableRecord
  2
Light Barrier
 70
    0
 62
    2
  6
CONTINUOUS
370
   -3
390
F
  0
LAYER
  5
50
330
2
100
AcDbSymbolTableRecord
100
AcDbLayerTableRecord
  2
Measurements
 70
    0
 62
    6
  6
CONTINUOUS
370
    0
390
F
  0
LAYER
  5
51
330
2
100
AcDbSymbolTableRecord
100
AcDbLayerTableRecord
  2
Stock outline
 70
    0
 62
    7
  6
CONTINUOUS
370
    0
390
F
  0
LAYER
  5
52
330
2
100
AcDbSymbolTableRecord
100
AcDbLayerTableRecord
  2
Text
 70
    0
 62
    7
  6
CONTINUOUS
370
    0
390
F
  0
ENDTAB
  0
TABLE
  2
STYLE
  5
3
330
0
100
AcDbSymbolTable
 70
    3
  0
STYLE
  5
53
330
2
100
AcDbSymbolTableRecord
100
AcDbTextStyleTableRecord
  2
Standard
 70
    0
 40
0
 41
1
 50
0
 71
    0
 42
1
  3
txt
  4

  0
ENDTAB
  0
TABLE
  2
VIEW
  5
6
330
0
100
AcDbSymbolTable
 70
    0
  0
ENDTAB
  0
TABLE
  2
UCS
  5
7
330
0
100
AcDbSymbolTable
 70
    0
  0
ENDTAB
  0
TABLE
  2
APPID
  5
9
330
0
100
AcDbSymbolTable
 70
    1
  0
APPID
  5
12
330
9
100
AcDbSymbolTableRecord
100
AcDbRegAppTableRecord
  2
ACAD
 70
    0
  0
APPID
  5
54
330
9
100
AcDbSymbolTableRecord
100
AcDbRegAppTableRecord
  2
LibreCad
 70
    0
  0
ENDTAB
  0
TABLE
  2
DIMSTYLE
  5
A
330
0
100
AcDbSymbolTable
 70
    1
100
AcDbDimStyleTable
 71
    1
  0
DIMSTYLE
105
55
330
A
100
AcDbSymbolTableRecord
100
AcDbDimStyleTableRecord
  2
Standard
 70
    0
 40
1
 41
2.5
 42
0.625
 43
0.38
 44
1.25
 45
0
 46
0
 47
0
 48
0
 49
1
140
2.5
141
0.09
142
0
143
25.4
144
1
145
0
146
1
147
0.625
148
0
 71
    0
 72
    0
 73
    0
 74
    1
 75
    0
 76
    0
 77
    0
 78
    8
 79
    0
170
    0
171
    2
172
    0
173
    0
174
    0
175
    0
176
    0
177
    0
178
    0
179
    0
271
    2
272
    4
273
    2
274
    2
275
    0
276
    0
277
    2
278
   44
279
    0
280
    0
281
    0
282
    0
283
    1
284
    0
285
    0
286
    0
288
    0
289
    3
340
standard
341

371
   -2
372
   -2
  0
ENDTAB
  0
TABLE
  2
BLOCK_RECORD
  5
1
330
0
100
AcDbSymbolTable
 70
    2
  0
BLOCK_RECORD
  5
1F
330
1
100
AcDbSymbolTableRecord
100
AcDbBlockTableRecord
  2
*Model_Space
 70
    0
280
    1
281
    0
  0
BLOCK_RECORD
  5
1E
330
1
100
AcDbSymbolTableRecord
100
AcDbBlockTableRecord
  2
*Paper_Space
 70
    0
280
    1
281
    0
  0
BLOCK_RECORD
  5
56
330
1
100
AcDbSymbolTableRecord
100
AcDbBlockTableRecord
  2
*D4
 70
    0
280
    1
281
    0
  0
BLOCK_RECORD
  5
59
330
1
100
AcDbSymbolTableRecord
100
AcDbBlockTableRecord
  2
*D1
 70
    0
280
    1
281
    0
  0
BLOCK_RECORD
  5
5C
330
1
100
AcDbSymbolTableRecord
100
AcDbBlockTableRecord
  2
*D3
 70
    0
280
    1
281
    0
  0
BLOCK_RECORD
  5
5F
330
1
100
AcDbSymbolTableRecord
100
AcDbBlockTableRecord
  2
*D2
 70
    0
280
    1
281
    0
  0
BLOCK_RECORD
  5
62
330
1
100
AcDbSymbolTableRecord
100
AcDbBlockTableRecord
  2
*D5
 70
    0
280
    1
281
    0
  0
BLOCK_RECORD
  5
65
330
1
100
AcDbSymbolTableRecord
100
AcDbBlockTableRecord
  2
Barrier Cell
 70
    0
280
    1
281
    0
  0
BLOCK_RECORD
  5
68
330
1
100
AcDbSymbolTableRecord
100
AcDbBlockTableRecord
  2
barrier
 70
    0
280
    1
281
    0
  0
BLOCK_RECORD
  5
6B
330
1
100
AcDbSymbolTableRecord
100
AcDbBlockTableRecord
  2
Led
 70
    0
280
    1
281
    0
  0
BLOCK_RECORD
  5
6E
330
1
100
AcDbSymbolTableRecord
100
AcDbBlockTableRecord
  2
ledstrip
 70
    0
280
    1
281
    0
  0
BLOCK_RECORD
  5
71
330
1
100
AcDbSymbolTableRecord
100
AcDbBlockTableRecord
  2
Barrier Cell2
 70
    0
280
    1
281
    0
  0
BLOCK_RECORD
  5
74
330
1
100
AcDbSymbolTableRecord
100
AcDbBlockTableRecord
  2
M3-Screw
 70
    0
280
    1
281
    0
  0
ENDTAB
  0
ENDSEC
  0
SECTION
  2
BLOCKS
  0
BLOCK
  5
20
330
1F
100
AcDbEntity
  8
0
100
AcDbBlockBegin
  2
*Model_Space
 70
    0
 10
0
 20
0
 30
0
  3
*Model_Space
  1

  0
ENDBLK
  5
21
330
1F
100
AcDbEntity
  8
0
100
AcDbBlockEnd
  0
BLOCK
  5
1C
330
1B
100
AcDbEntity
  8
0
100
AcDbBlockBegin
  2
*Paper_Space
 70
    0
 10
0
 20
0
 30
0
  3
*Paper_Space
  1

  0
ENDBLK
  5
1D
330
1F
100
AcDbEntity
  8
0
100
AcDbBlockEnd
  0
BLOCK
  5
57
330
56
100
AcDbEntity
  8
0
100
AcDbBlockBegin
  2
*D4
 70
    1
 10
0
 20
0
  3
*D4
  1

  0
LINE
  5
77
100
AcDbEntity
  8
Measurements
  6
ByBlock
 62
    0
370
   -2
100
AcDbLine
 10
332.625
 20
67
 11
361.25
 21
67
  0
LINE
  5
78
100
AcDbEntity
  8
Measurements
  6
ByBlock
 62
    0
370
   -2
100
AcDbLine
 10
332.625
 20
73
 11
361.25
 21
73
  0
LINE
  5
79
100
AcDbEntity
  8
Measurements
  6
ByBlock
 62
    0
370
   -2
100
AcDbLine
 10
360
 20
62
 11
360
 21
78
  0
SOLID
  5
7A
100
AcDbEntity
  8
Measurements
  6
ByBlock
 62
    0
370
   -2
100
AcDbTrace
 10
360
 20
67
 30
0
 11
360.4162846577728
 21
64.5
 31
0
 12
359.5837153422272
 22
64.5
 32
0
 13
359.5837153422272
 23
64.5
 33
0
  0
SOLID
  5
7B
100
AcDbEntity
  8
Measurements
  6
ByBlock
 62
    0
370
   -2
100
AcDbTrace
 10
360
 20
73
 30
0
 11
359.5837153422272
 21
75.5
 31
0
 12
360.4162846577728
 22
75.5
 32
0
 13
360.4162846577728
 23
75.5
 33
0
  0
MTEXT
  5
7C
100
AcDbEntity
  8
Measurements
  6
CONTINUOUS
 62
    0
370
   -2
100
AcDbMText
 10
358.125
 20
70
 30
0
 40
2.5
 41
1.111111111111266
 71
    5
 72
    1
  1
6
  7
standard
210
0
220
0
230
1
 50
90
 73
    2
 44
1
  0
ENDBLK
  5
58
330
56
100
AcDbEntity
  8
0
100
AcDbBlockEnd
  0
BLOCK
  5
5A
330
59
100
AcDbEntity
  8
0
100
AcDbBlockBegin
  2
*D1
 70
    1
 10
0
 20
0
  3
*D1
  1

  0
LINE
  5
7D
100
AcDbEntity
  8
Measurements
  6
ByBlock
 62
    0
370
   -2
100
AcDbLine
 10
-13.625
 20
-121
 11
-41.25
 21
-121
  0
LINE
  5
7E
100
AcDbEntity
  8
Measurements
  6
ByBlock
 62
    0
370
   -2
100
AcDbLine
 10
-13.625
 20
73
 11
-41.25
 21
73
  0
LINE
  5
7F
100
AcDbEntity
  8
Measurements
  6
ByBlock
 62
    0
370
   -2
100
AcDbLine
 10
-40
 20
-121
 11
-40
 21
73
  0
SOLID
  5
80
100
AcDbEntity
  8
Measurements
  6
ByBlock
 62
    0
370
   -2
100
AcDbTrace
 10
-40
 20
-121
 30
0
 11
-40.41628465777284
 21
-118.5
 31
0
 12
-39.58371534222716
 22
-118.5
 32
0
 13
-39.58371534222716
 23
-118.5
 33
0
  0
SOLID
  5
81
100
AcDbEntity
  8
Measurements
  6
ByBlock
 62
    0
370
   -2
100
AcDbTrace
 10
-40
 20
73
 30
0
 11
-39.58371534222716
 21
70.5
 31
0
 12
-40.41628465777284
 22
70.5
 32
0
 13
-40.41628465777284
 23
70.5
 33
0
  0
MTEXT
  5
82
100
AcDbEntity
  8
Measurements
  6
CONTINUOUS
 62
    0
370
   -2
100
AcDbMText
 10
-41.875
 20
-24
 30
0
 40
2.5
 41
4.722222222222222
 71
    5
 72
    1
  1
194
  7
standard
210
0
220
0
230
1
 50
90
 73
    2
 44
1
  0
ENDBLK
  5
5B
330
59
100
AcDbEntity
  8
0
100
AcDbBlockEnd
  0
BLOCK
  5
5D
330
5C
100
AcDbEntity
  8
0
100
AcDbBlockBegin
  2
*D3
 70
    1
 10
0
 20
0
  3
*D3
  1

  0
LINE
  5
83
100
AcDbEntity
  8
Measurements
  6
ByBlock
 62
    0
370
   -2
100
AcDbLine
 10
332
 20
67.625
 11
332
 21
91.25
  0
LINE
  5
84
100
AcDbEntity
  8
Measurements
  6
ByBlock
 62
    0
370
   -2
100
AcDbLine
 10
346
 20
67.625
 11
346
 21
91.25
  0
LINE
  5
85
100
AcDbEntity
  8
Measurements
  6
ByBlock
 62
    0
370
   -2
100
AcDbLine
 10
332
 20
90
 11
346
 21
90
  0
SOLID
  5
86
100
AcDbEntity
  8
Measurements
  6
ByBlock
 62
    0
370
   -2
100
AcDbTrace
 10
332
 20
90
 30
0
 11
334.5
 21
90.41628465777283
 31
0
 12
334.5
 22
89.58371534222717
 32
0
 13
334.5
 23
89.58371534222717
 33
0
  0
SOLID
  5
87
100
AcDbEntity
  8
Measurements
  6
ByBlock
 62
    0
370
   -2
100
AcDbTrace
 10
346
 20
90
 30
0
 11
343.5
 21
89.58371534222717
 31
0
 12
343.5
 22
90.41628465777283
 32
0
 13
343.5
 23
90.41628465777283
 33
0
  0
MTEXT
  5
88
100
AcDbEntity
  8
Measurements
  6
CONTINUOUS
 62
    0
370
   -2
100
AcDbMText
 10
339
 20
91.875
 30
0
 40
2.5
 41
2.777777777777778
 71
    5
 72
    1
  1
14
  7
standard
210
0
220
0
230
1
 50
0
 73
    2
 44
1
  0
ENDBLK
  5
5E
330
5C
100
AcDbEntity
  8
0
100
AcDbBlockEnd
  0
BLOCK
  5
60
330
5F
100
AcDbEntity
  8
0
100
AcDbBlockBegin
  2
*D2
 70
    1
 10
0
 20
0
  3
*D2
  1

  0
LINE
  5
89
100
AcDbEntity
  8
Measurements
  6
ByBlock
 62
    0
370
   -2
100
AcDbLine
 10
346
 20
100
 11
-13
 21
100
  0
SOLID
  5
8A
100
AcDbEntity
  8
Measurements
  6
ByBlock
 62
    0
370
   -2
100
AcDbTrace
 10
346
 20
100
 30
0
 11
343.5
 21
99.58371534222717
 31
0
 12
343.5
 22
100.4162846577728
 32
0
 13
343.5
 23
100.4162846577728
 33
0
  0
SOLID
  5
8B
100
AcDbEntity
  8
Measurements
  6
ByBlock
 62
    0
370
   -2
100
AcDbTrace
 10
-13
 20
100
 30
0
 11
-10.5
 21
100.4162846577728
 31
0
 12
-10.5
 22
99.58371534222717
 32
0
 13
-10.5
 23
99.58371534222717
 33
0
  0
MTEXT
  5
8C
100
AcDbEntity
  8
Measurements
  6
CONTINUOUS
 62
    0
370
   -2
100
AcDbMText
 10
166.5
 20
101.875
 30
0
 40
2.5
 41
5.000000000000311
 71
    5
 72
    1
  1
359
  7
standard
210
0
220
0
230
1
 50
360
 73
    2
 44
1
  0
LINE
  5
8D
100
AcDbEntity
  8
Measurements
  6
ByBlock
 62
    0
370
   -2
100
AcDbLine
 10
346
 20
73.625
 11
346
 21
101.25
  0
LINE
  5
8E
100
AcDbEntity
  8
Measurements
  6
ByBlock
 62
    0
370
   -2
100
AcDbLine
 10
-13
 20
73.625
 11
-13
 21
101.25
  0
ENDBLK
  5
61
330
5F
100
AcDbEntity
  8
0
100
AcDbBlockEnd
  0
BLOCK
  5
63
330
62
100
AcDbEntity
  8
0
100
AcDbBlockBegin
  2
*D5
 70
    1
 10
0
 20
0
  3
*D5
  1

  0
LINE
  5
8F
100
AcDbEntity
  8
Measurements
  6
ByBlock
 62
    0
370
   -2
100
AcDbLine
 10
332
 20
67.625
 11
332
 21
91.25000000000003
  0
LINE
  5
90
100
AcDbEntity
  8
Measurements
  6
ByBlock
 62
    0
370
   -2
100
AcDbLine
 10
166.5
 20
67.625
 11
166.5
 21
91.25000000000003
  0
LINE
  5
91
100
AcDbEntity
  8
Measurements
  6
ByBlock
 62
    0
370
   -2
100
AcDbLine
 10
332
 20
90.00000000000003
 11
166.5
 21
90.00000000000003
  0
SOLID
  5
92
100
AcDbEntity
  8
Measurements
  6
ByBlock
 62
    0
370
   -2
100
AcDbTrace
 10
332
 20
90.00000000000003
 30
0
 11
329.5
 21
89.58371534222719
 31
0
 12
329.5
 22
90.41628465777286
 32
0
 13
329.5
 23
90.41628465777286
 33
0
  0
SOLID
  5
93
100
AcDbEntity
  8
Measurements
  6
ByBlock
 62
    0
370
   -2
100
AcDbTrace
 10
166.5
 20
90.00000000000003
 30
0
 11
169
 21
90.41628465777286
 31
0
 12
169
 22
89.58371534222719
 32
0
 13
169
 23
89.58371534222719
 33
0
  0
MTEXT
  5
94
100
AcDbEntity
  8
Measurements
  6
CONTINUOUS
 62
    0
370
   -2
100
AcDbMText
 10
249.25
 20
91.87500000000003
 30
0
 40
2.5
 41
7.361111111111576
 71
    5
 72
    1
  1
165,5
  7
standard
210
0
220
0
230
1
 50
360
 73
    2
 44
1
  0
ENDBLK
  5
64
330
62
100
AcDbEntity
  8
0
100
AcDbBlockEnd
  0
BLOCK
  5
66
330
65
100
AcDbEntity
  8
0
100
AcDbBlockBegin
  2
Barrier Cell
 70
    0
 10
0
 20
0
  3
Barrier Cell
  1

  0
LINE
  5
95
100
AcDbEntity
  8
Light Barrier
  6
ByLayer
 62
  256
370
   -1
100
AcDbLine
 10
-7
 20
-6
 11
-7
 21
6
  0
LINE
  5
96
100
AcDbEntity
  8
Light Barrier
  6
ByLayer
 62
  256
370
   -1
100
AcDbLine
 10
-6
 20
7
 11
6
 21
7
  0
LINE
  5
97
100
AcDbEntity
  8
Light Barrier
  6
ByLayer
 62
  256
370
   -1
100
AcDbLine
 10
7
 20
6
 11
7
 21
-6
  0
LINE
  5
98
100
AcDbEntity
  8
Light Barrier
  6
ByLayer
 62
  256
370
   -1
100
AcDbLine
 10
6
 20
-7
 11
-6
 21
-7
  0
ARC
  5
99
100
AcDbEntity
  8
Light Barrier
  6
ByLayer
 62
  256
370
   -1
100
AcDbCircle
 10
-6
 20
6
 40
1
100
AcDbArc
 50
90
 51
180
  0
ARC
  5
9A
100
AcDbEntity
  8
Light Barrier
  6
ByLayer
 62
  256
370
   -1
100
AcDbCircle
 10
-6
 20
-6
 40
1
100
AcDbArc
 50
180
 51
270
  0
ARC
  5
9B
100
AcDbEntity
  8
Light Barrier
  6
ByLayer
 62
  256
370
   -1
100
AcDbCircle
 10
6
 20
-6
 40
1
100
AcDbArc
 50
270
 51
0
  0
ARC
  5
9C
100
AcDbEntity
  8
Light Barrier
  6
ByLayer
 62
  256
370
   -1
100
AcDbCircle
 10
6
 20
6
 40
1
100
AcDbArc
 50
0
 51
90
  0
ENDBLK
  5
67
330
65
100
AcDbEntity
  8
0
100
AcDbBlockEnd
  0
BLOCK
  5
69
330
68
100
AcDbEntity
  8
0
100
AcDbBlockBegin
  2
barrier
 70
    0
 10
0
 20
0
  3
barrier
  1

  0
LINE
  5
9D
100
AcDbEntity
  8
0
  6
ByLayer
 62
  256
370
   -1
100
AcDbLine
 10
170
 20
0
 11
0
 21
0
  0
INSERT
  5
9E
100
AcDbEntity
  8
Light Barrier
  6
ByLayer
 62
  256
370
   -1
100
AcDbBlockReference
  2
Barrier Cell
 10
10
 20
77
 30
0
 41
1
 42
1
 43
0
 50
0
 70
    1
 71
    1
 44
1
 45
1
  0
INSERT
  5
9F
100
AcDbEntity
  8
Light Barrier
  6
ByLayer
 62
  256
370
   -1
100
AcDbBlockReference
  2
Barrier Cell
 10
26.7
 20
77
 30
0
 41
1
 42
1
 43
0
 50
0
 70
    1
 71
    1
 44
1
 45
1
  0
INSERT
  5
A0
100
AcDbEntity
  8
Light Barrier
  6
ByLayer
 62
  256
370
   -1
100
AcDbBlockReference
  2
Barrier Cell
 10
43.33
 20
77
 30
0
 41
1
 42
1
 43
0
 50
0
 70
    1
 71
    1
 44
1
 45
1
  0
INSERT
  5
A1
100
AcDbEntity
  8
Light Barrier
  6
ByLayer
 62
  256
370
   -1
100
AcDbBlockReference
  2
Barrier Cell
 10
60.03
 20
77
 30
0
 41
1
 42
1
 43
0
 50
0
 70
    1
 71
    1
 44
1
 45
1
  0
INSERT
  5
A2
100
AcDbEntity
  8
Light Barrier
  6
ByLayer
 62
  256
370
   -1
100
AcDbBlockReference
  2
Barrier Cell
 10
76.7
 20
77
 30
0
 41
1
 42
1
 43
0
 50
0
 70
    1
 71
    1
 44
1
 45
1
  0
INSERT
  5
A3
100
AcDbEntity
  8
Light Barrier
  6
ByLayer
 62
  256
370
   -1
100
AcDbBlockReference
  2
Barrier Cell
 10
93.40000000000001
 20
77
 30
0
 41
1
 42
1
 43
0
 50
0
 70
    1
 71
    1
 44
1
 45
1
  0
INSERT
  5
A4
100
AcDbEntity
  8
Light Barrier
  6
ByLayer
 62
  256
370
   -1
100
AcDbBlockReference
  2
Barrier Cell
 10
110.03
 20
77
 30
0
 41
1
 42
1
 43
0
 50
0
 70
    1
 71
    1
 44
1
 45
1
  0
INSERT
  5
A5
100
AcDbEntity
  8
Light Barrier
  6
ByLayer
 62
  256
370
   -1
100
AcDbBlockReference
  2
Barrier Cell
 10
126.73
 20
77
 30
0
 41
1
 42
1
 43
0
 50
0
 70
    1
 71
    1
 44
1
 45
1
  0
INSERT
  5
A6
100
AcDbEntity
  8
Light Barrier
  6
ByLayer
 62
  256
370
   -1
100
AcDbBlockReference
  2
Barrier Cell
 10
143.3
 20
77
 30
0
 41
1
 42
1
 43
0
 50
0
 70
    1
 71
    1
 44
1
 45
1
  0
INSERT
  5
A7
100
AcDbEntity
  8
Light Barrier
  6
ByLayer
 62
  256
370
   -1
100
AcDbBlockReference
  2
Barrier Cell
 10
160
 20
77
 30
0
 41
1
 42
1
 43
0
 50
0
 70
    1
 71
    1
 44
1
 45
1
  0
INSERT
  5
A8
100
AcDbEntity
  8
Light Barrier
  6
ByLayer
 62
  256
370
   -1
100
AcDbBlockReference
  2
Barrier Cell
 10
10
 20
93.7
 30
0
 41
1
 42
1
 43
0
 50
0
 70
    1
 71
    1
 44
1
 45
1
  0
INSERT
  5
A9
100
AcDbEntity
  8
Light Barrier
  6
ByLayer
 62
  256
370
   -1
100
AcDbBlockReference
  2
Barrier Cell
 10
26.7
 20
93.7
 30
0
 41
1
 42
1
 43
0
 50
0
 70
    1
 71
    1
 44
1
 45
1
  0
INSERT
  5
AA
100
AcDbEntity
  8
Light Barrier
  6
ByLayer
 62
  256
370
   -1
100
AcDbBlockReference
  2
Barrier Cell
 10
43.33
 20
93.7
 30
0
 41
1
 42
1
 43
0
 50
0
 70
    1
 71
    1
 44
1
 45
1
  0
INSERT
  5
AB
100
AcDbEntity
  8
Light Barrier
  6
ByLayer
 62
  256
370
   -1
100
AcDbBlockReference
  2
Barrier Cell
 10
60.03
 20
93.7
 30
0
 41
1
 42
1
 43
0
 50
0
 70
    1
 71
    1
 44
1
 45
1
  0
INSERT
  5
AC
100
AcDbEntity
  8
Light Barrier
  6
ByLayer
 62
  256
370
   -1
100
AcDbBlockReference
  2
Barrier Cell
 10
76.7
 20
93.7
 30
0
 41
1
 42
1
 43
0
 50
0
 70
    1
 71
    1
 44
1
 45
1
  0
INSERT
  5
AD
100
AcDbEntity
  8
Light Barrier
  6
ByLayer
 62
  256
370
   -1
100
AcDbBlockReference
  2
Barrier Cell
 10
93.40000000000001
 20
93.7
 30
0
 41
1
 42
1
 43
0
 50
0
 70
    1
 71
    1
 44
1
 45
1
  0
INSERT
  5
AE
100
AcDbEntity
  8
Light Barrier
  6
ByLayer
 62
  256
370
   -1
100
AcDbBlockReference
  2
Barrier Cell
 10
110.03
 20
93.7
 30
0
 41
1
 42
1
 43
0
 50
0
 70
    1
 71
    1
 44
1
 45
1
  0
INSERT
  5
AF
100
AcDbEntity
  8
Light Barrier
  6
ByLayer
 62
  256
370
   -1
100
AcDbBlockReference
  2
Barrier Cell
 10
126.73
 20
93.7
 30
0
 41
1
 42
1
 43
0
 50
0
 70
    1
 71
    1
 44
1
 45
1
  0
INSERT
  5
B0
100
AcDbEntity
  8
Light Barrier
  6
ByLayer
 62
  256
370
   -1
100
AcDbBlockReference
  2
Barrier Cell
 10
143.3
 20
93.7
 30
0
 41
1
 42
1
 43
0
 50
0
 70
    1
 71
    1
 44
1
 45
1
  0
INSERT
  5
B1
100
AcDbEntity
  8
Light Barrier
  6
ByLayer
 62
  256
370
   -1
100
AcDbBlockReference
  2
Barrier Cell
 10
160
 20
93.7
 30
0
 41
1
 42
1
 43
0
 50
0
 70
    1
 71
    1
 44
1
 45
1
  0
INSERT
  5
B2
100
AcDbEntity
  8
Light Barrier
  6
ByLayer
 62
  256
370
   -1
100
AcDbBlockReference
  2
Barrier Cell
 10
10
 20
110.3
 30
0
 41
1
 42
1
 43
0
 50
0
 70
    1
 71
    1
 44
1
 45
1
  0
INSERT
  5
B3
100
AcDbEntity
  8
Light Barrier
  6
ByLayer
 62
  256
370
   -1
100
AcDbBlockReference
  2
Barrier Cell
 10
26.7
 20
110.3
 30
0
 41
1
 42
1
 43
0
 50
0
 70
    1
 71
    1
 44
1
 45
1
  0
INSERT
  5
B4
100
AcDbEntity
  8
Light Barrier
  6
ByLayer
 62
  256
370
   -1
100
AcDbBlockReference
  2
Barrier Cell
 10
43.33
 20
110.3
 30
0
 41
1
 42
1
 43
0
 50
0
 70
    1
 71
    1
 44
1
 45
1
  0
INSERT
  5
B5
100
AcDbEntity
  8
Light Barrier
  6
ByLayer
 62
  256
370
   -1
100
AcDbBlockReference
  2
Barrier Cell
 10
60.03
 20
110.3
 30
0
 41
1
 42
1
 43
0
 50
0
 70
    1
 71
    1
 44
1
 45
1
  0
INSERT
  5
B6
100
AcDbEntity
  8
Light Barrier
  6
ByLayer
 62
  256
370
   -1
100
AcDbBlockReference
  2
Barrier Cell
 10
76.7
 20
110.3
 30
0
 41
1
 42
1
 43
0
 50
0
 70
    1
 71
    1
 44
1
 45
1
  0
INSERT
  5
B7
100
AcDbEntity
  8
Light Barrier
  6
ByLayer
 62
  256
370
   -1
100
AcDbBlockReference
  2
Barrier Cell
 10
93.40000000000001
 20
110.3
 30
0
 41
1
 42
1
 43
0
 50
0
 70
    1
 71
    1
 44
1
 45
1
  0
INSERT
  5
B8
100
AcDbEntity
  8
Light Barrier
  6
ByLayer
 62
  256
370
   -1
100
AcDbBlockReference
  2
Barrier Cell
 10
110.03
 20
110.3
 30
0
 41
1
 42
1
 43
0
 50
0
 70
    1
 71
    1
 44
1
 45
1
  0
INSERT
  5
B9
100
AcDbEntity
  8
Light Barrier
  6
ByLayer
 62
  256
370
   -1
100
AcDbBlockReference
  2
Barrier Cell
 10
126.73
 20
110.3
 30
0
 41
1
 42
1
 43
0
 50
0
 70
    1
 71
    1
 44
1
 45
1
  0
INSERT
  5
BA
100
AcDbEntity
  8
Light Barrier
  6
ByLayer
 62
  256
370
   -1
100
AcDbBlockReference
  2
Barrier Cell
 10
143.3
 20
110.3
 30
0
 41
1
 42
1
 43
0
 50
0
 70
    1
 71
    1
 44
1
 45
1
  0
INSERT
  5
BB
100
AcDbEntity
  8
Light Barrier
  6
ByLayer
 62
  256
370
   -1
100
AcDbBlockReference
  2
Barrier Cell
 10
160
 20
110.3
 30
0
 41
1
 42
1
 43
0
 50
0
 70
    1
 71
    1
 44
1
 45
1
  0
INSERT
  5
BC
100
AcDbEntity
  8
Light Barrier
  6
ByLayer
 62
  256
370
   -1
100
AcDbBlockReference
  2
Barrier Cell
 10
10
 20
127
 30
0
 41
1
 42
1
 43
0
 50
0
 70
    1
 71
    1
 44
1
 45
1
  0
INSERT
  5
BD
100
AcDbEntity
  8
Light Barrier
  6
ByLayer
 62
  256
370
   -1
100
AcDbBlockReference
  2
Barrier Cell
 10
26.7
 20
127
 30
0
 41
1
 42
1
 43
0
 50
0
 70
    1
 71
    1
 44
1
 45
1
  0
INSERT
  5
BE
100
AcDbEntity
  8
Light Barrier
  6
ByLayer
 62
  256
370
   -1
100
AcDbBlockReference
  2
Barrier Cell
 10
43.33
 20
127
 30
0
 41
1
 42
1
 43
0
 50
0
 70
    1
 71
    1
 44
1
 45
1
  0
INSERT
  5
BF
100
AcDbEntity
  8
Light Barrier
  6
ByLayer
 62
  256
370
   -1
100
AcDbBlockReference
  2
Barrier Cell
 10
60.03
 20
127
 30
0
 41
1
 42
1
 43
0
 50
0
 70
    1
 71
    1
 44
1
 45
1
  0
INSERT
  5
C0
100
AcDbEntity
  8
Light Barrier
  6
ByLayer
 62
  256
370
   -1
100
AcDbBlockReference
  2
Barrier Cell
 10
76.7
 20
127
 30
0
 41
1
 42
1
 43
0
 50
0
 70
    1
 71
    1
 44
1
 45
1
  0
INSERT
  5
C1
100
AcDbEntity
  8
Light Barrier
  6
ByLayer
 62
  256
370
   -1
100
AcDbBlockReference
  2
Barrier Cell
 10
93.40000000000001
 20
127
 30
0
 41
1
 42
1
 43
0
 50
0
 70
    1
 71
    1
 44
1
 45
1
  0
INSERT
  5
C2
100
AcDbEntity
  8
Light Barrier
  6
ByLayer
 62
  256
370
   -1
100
AcDbBlockReference
  2
Barrier Cell
 10
110.03
 20
127
 30
0
 41
1
 42
1
 43
0
 50
0
 70
    1
 71
    1
 44
1
 45
1
  0
INSERT
  5
C3
100
AcDbEntity
  8
Light Barrier
  6
ByLayer
 62
  256
370
   -1
100
AcDbBlockReference
  2
Barrier Cell
 10
126.73
 20
127
 30
0
 41
1
 42
1
 43
0
 50
0
 70
    1
 71
    1
 44
1
 45
1
  0
INSERT
  5
C4
100
AcDbEntity
  8
Light Barrier
  6
ByLayer
 62
  256
370
   -1
100
AcDbBlockReference
  2
Barrier Cell
 10
143.3
 20
127
 30
0
 41
1
 42
1
 43
0
 50
0
 70
    1
 71
    1
 44
1
 45
1
  0
INSERT
  5
C5
100
AcDbEntity
  8
Light Barrier
  6
ByLayer
 62
  256
370
   -1
100
AcDbBlockReference
  2
Barrier Cell
 10
160
 20
127
 30
0
 41
1
 42
1
 43
0
 50
0
 70
    1
 71
    1
 44
1
 45
1
  0
INSERT
  5
C6
100
AcDbEntity
  8
Light Barrier
  6
ByLayer
 62
  256
370
   -1
100
AcDbBlockReference
  2
Barrier Cell
 10
10
 20
143.7
 30
0
 41
1
 42
1
 43
0
 50
0
 70
    1
 71
    1
 44
1
 45
1
  0
INSERT
  5
C7
100
AcDbEntity
  8
Light Barrier
  6
ByLayer
 62
  256
370
   -1
100
AcDbBlockReference
  2
Barrier Cell
 10
26.7
 20
143.7
 30
0
 41
1
 42
1
 43
0
 50
0
 70
    1
 71
    1
 44
1
 45
1
  0
INSERT
  5
C8
100
AcDbEntity
  8
Light Barrier
  6
ByLayer
 62
  256
370
   -1
100
AcDbBlockReference
  2
Barrier Cell
 10
43.33
 20
143.7
 30
0
 41
1
 42
1
 43
0
 50
0
 70
    1
 71
    1
 44
1
 45
1
  0
INSERT
  5
C9
100
AcDbEntity
  8
Light Barrier
  6
ByLayer
 62
  256
370
   -1
100
AcDbBlockReference
  2
Barrier Cell
 10
60.03
 20
143.7
 30
0
 41
1
 42
1
 43
0
 50
0
 70
    1
 71
    1
 44
1
 45
1
  0
INSERT
  5
CA
100
AcDbEntity
  8
Light Barrier
  6
ByLayer
 62
  256
370
   -1
100
AcDbBlockReference
  2
Barrier Cell
 10
76.7
 20
143.7
 30
0
 41
1
 42
1
 43
0
 50
0
 70
    1
 71
    1
 44
1
 45
1
  0
INSERT
  5
CB
100
AcDbEntity
  8
Light Barrier
  6
ByLayer
 62
  256
370
   -1
100
AcDbBlockReference
  2
Barrier Cell
 10
93.40000000000001
 20
143.7
 30
0
 41
1
 42
1
 43
0
 50
0
 70
    1
 71
    1
 44
1
 45
1
  0
INSERT
  5
CC
100
AcDbEntity
  8
Light Barrier
  6
ByLayer
 62
  256
370
   -1
100
AcDbBlockReference
  2
Barrier Cell
 10
110.03
 20
143.7
 30
0
 41
1
 42
1
 43
0
 50
0
 70
    1
 71
    1
 44
1
 45
1
  0
INSERT
  5
CD
100
AcDbEntity
  8
Light Barrier
  6
ByLayer
 62
  256
370
   -1
100
AcDbBlockReference
  2
Barrier Cell
 10
126.73
 20
143.7
 30
0
 41
1
 42
1
 43
0
 50
0
 70
    1
 71
    1
 44
1
 45
1
  0
INSERT
  5
CE
100
AcDbEntity
  8
Light Barrier
  6
ByLayer
 62
  256
370
   -1
100
AcDbBlockReference
  2
Barrier Cell
 10
143.3
 20
143.7
 30
0
 41
1
 42
1
 43
0
 50
0
 70
    1
 71
    1
 44
1
 45
1
  0
INSERT
  5
CF
100
AcDbEntity
  8
Light Barrier
  6
ByLayer
 62
  256
370
   -1
100
AcDbBlockReference
  2
Barrier Cell
 10
160
 20
143.7
 30
0
 41
1
 42
1
 43
0
 50
0
 70
    1
 71
    1
 44
1
 45
1
  0
INSERT
  5
D0
100
AcDbEntity
  8
Light Barrier
  6
ByLayer
 62
  256
370
   -1
100
AcDbBlockReference
  2
Barrier Cell
 10
10
 20
160.4
 30
0
 41
1
 42
1
 43
0
 50
0
 70
    1
 71
    1
 44
1
 45
1
  0
INSERT
  5
D1
100
AcDbEntity
  8
Light Barrier
  6
ByLayer
 62
  256
370
   -1
100
AcDbBlockReference
  2
Barrier Cell
 10
26.7
 20
160.4
 30
0
 41
1
 42
1
 43
0
 50
0
 70
    1
 71
    1
 44
1
 45
1
  0
INSERT
  5
D2
100
AcDbEntity
  8
Light Barrier
  6
ByLayer
 62
  256
370
   -1
100
AcDbBlockReference
  2
Barrier Cell
 10
43.33
 20
160.4
 30
0
 41
1
 42
1
 43
0
 50
0
 70
    1
 71
    1
 44
1
 45
1
  0
INSERT
  5
D3
100
AcDbEntity
  8
Light Barrier
  6
ByLayer
 62
  256
370
   -1
100
AcDbBlockReference
  2
Barrier Cell
 10
60.03
 20
160.4
 30
0
 41
1
 42
1
 43
0
 50
0
 70
    1
 71
    1
 44
1
 45
1
  0
INSERT
  5
D4
100
AcDbEntity
  8
Light Barrier
  6
ByLayer
 62
  256
370
   -1
100
AcDbBlockReference
  2
Barrier Cell
 10
76.7
 20
160.4
 30
0
 41
1
 42
1
 43
0
 50
0
 70
    1
 71
    1
 44
1
 45
1
  0
INSERT
  5
D5
100
AcDbEntity
  8
Light Barrier
  6
ByLayer
 62
  256
370
   -1
100
AcDbBlockReference
  2
Barrier Cell
 10
93.40000000000001
 20
160.4
 30
0
 41
1
 42
1
 43
0
 50
0
 70
    1
 71
    1
 44
1
 45
1
  0
INSERT
  5
D6
100
AcDbEntity
  8
Light Barrier
  6
ByLayer
 62
  256
370
   -1
100
AcDbBlockReference
  2
Barrier Cell
 10
110.03
 20
160.4
 30
0
 41
1
 42
1
 43
0
 50
0
 70
    1
 71
    1
 44
1
 45
1
  0
INSERT
  5
D7
100
AcDbEntity
  8
Light Barrier
  6
ByLayer
 62
  256
370
   -1
100
AcDbBlockReference
  2
Barrier Cell
 10
126.73
 20
160.4
 30
0
 41
1
 42
1
 43
0
 50
0
 70
    1
 71
    1
 44
1
 45
1
  0
INSERT
  5
D8
100
AcDbEntity
  8
Light Barrier
  6
ByLayer
 62
  256
370
   -1
100
AcDbBlockReference
  2
Barrier Cell
 10
143.3
 20
160.4
 30
0
 41
1
 42
1
 43
0
 50
0
 70
    1
 71
    1
 44
1
 45
1
  0
INSERT
  5
D9
100
AcDbEntity
  8
Light Barrier
  6
ByLayer
 62
  256
370
   -1
100
AcDbBlockReference
  2
Barrier Cell
 10
160
 20
160.4
 30
0
 41
1
 42
1
 43
0
 50
0
 70
    1
 71
    1
 44
1
 45
1
  0
INSERT
  5
DA
100
AcDbEntity
  8
Light Barrier
  6
ByLayer
 62
  256
370
   -1
100
AcDbBlockReference
  2
Barrier Cell
 10
10
 20
177
 30
0
 41
1
 42
1
 43
0
 50
0
 70
    1
 71
    1
 44
1
 45
1
  0
INSERT
  5
DB
100
AcDbEntity
  8
Light Barrier
  6
ByLayer
 62
  256
370
   -1
100
AcDbBlockReference
  2
Barrier Cell
 10
26.7
 20
177
 30
0
 41
1
 42
1
 43
0
 50
0
 70
    1
 71
    1
 44
1
 45
1
  0
INSERT
  5
DC
100
AcDbEntity
  8
Light Barrier
  6
ByLayer
 62
  256
370
   -1
100
AcDbBlockReference
  2
Barrier Cell
 10
43.33
 20
177
 30
0
 41
1
 42
1
 43
0
 50
0
 70
    1
 71
    1
 44
1
 45
1
  0
INSERT
  5
DD
100
AcDbEntity
  8
Light Barrier
  6
ByLayer
 62
  256
370
   -1
100
AcDbBlockReference
  2
Barrier Cell
 10
60.03
 20
177
 30
0
 41
1
 42
1
 43
0
 50
0
 70
    1
 71
    1
 44
1
 45
1
  0
INSERT
  5
DE
100
AcDbEntity
  8
Light Barrier
  6
ByLayer
 62
  256
370
   -1
100
AcDbBlockReference
  2
Barrier Cell
 10
76.7
 20
177
 30
0
 41
1
 42
1
 43
0
 50
0
 70
    1
 71
    1
 44
1
 45
1
  0
INSERT
  5
DF
100
AcDbEntity
  8
Light Barrier
  6
ByLayer
 62
  256
370
   -1
100
AcDbBlockReference
  2
Barrier Cell
 10
93.40000000000001
 20
177
 30
0
 41
1
 42
1
 43
0
 50
0
 70
    1
 71
    1
 44
1
 45
1
  0
INSERT
  5
E0
100
AcDbEntity
  8
Light Barrier
  6
ByLayer
 62
  256
370
   -1
100
AcDbBlockReference
  2
Barrier Cell
 10
110.03
 20
177
 30
0
 41
1
 42
1
 43
0
 50
0
 70
    1
 71
    1
 44
1
 45
1
  0
INSERT
  5
E1
100
AcDbEntity
  8
Light Barrier
  6
ByLayer
 62
  256
370
   -1
100
AcDbBlockReference
  2
Barrier Cell
 10
126.73
 20
177
 30
0
 41
1
 42
1
 43
0
 50
0
 70
    1
 71
    1
 44
1
 45
1
  0
INSERT
  5
E2
100
AcDbEntity
  8
Light Barrier
  6
ByLayer
 62
  256
370
   -1
100
AcDbBlockReference
  2
Barrier Cell
 10
143.3
 20
177
 30
0
 41
1
 42
1
 43
0
 50
0
 70
    1
 71
    1
 44
1
 45
1
  0
INSERT
  5
E3
100
AcDbEntity
  8
Light Barrier
  6
ByLayer
 62
  256
370
   -1
100
AcDbBlockReference
  2
Barrier Cell
 10
160
 20
177
 30
0
 41
1
 42
1
 43
0
 50
0
 70
    1
 71
    1
 44
1
 45
1
  0
INSERT
  5
E4
100
AcDbEntity
  8
Light Barrier
  6
ByLayer
 62
  256
370
   -1
100
AcDbBlockReference
  2
Barrier Cell
 10
10
 20
193.7
 30
0
 41
1
 42
1
 43
0
 50
0
 70
    1
 71
    1
 44
1
 45
1
  0
INSERT
  5
E5
100
AcDbEntity
  8
Light Barrier
  6
ByLayer
 62
  256
370
   -1
100
AcDbBlockReference
  2
Barrier Cell
 10
26.7
 20
193.7
 30
0
 41
1
 42
1
 43
0
 50
0
 70
    1
 71
    1
 44
1
 45
1
  0
INSERT
  5
E6
100
AcDbEntity
  8
Light Barrier
  6
ByLayer
 62
  256
370
   -1
100
AcDbBlockReference
  2
Barrier Cell
 10
43.33
 20
193.7
 30
0
 41
1
 42
1
 43
0
 50
0
 70
    1
 71
    1
 44
1
 45
1
  0
INSERT
  5
E7
100
AcDbEntity
  8
Light Barrier
  6
ByLayer
 62
  256
370
   -1
100
AcDbBlockReference
  2
Barrier Cell
 10
60.03
 20
193.7
 30
0
 41
1
 42
1
 43
0
 50
0
 70
    1
 71
    1
 44
1
 45
1
  0
INSERT
  5
E8
100
AcDbEntity
  8
Light Barrier
  6
ByLayer
 62
  256
370
   -1
100
AcDbBlockReference
  2
Barrier Cell
 10
76.7
 20
193.7
 30
0
 41
1
 42
1
 43
0
 50
0
 70
    1
 71
    1
 44
1
 45
1
  0
INSERT
  5
E9
100
AcDbEntity
  8
Light Barrier
  6
ByLayer
 62
  256
370
   -1
100
AcDbBlockReference
  2
Barrier Cell
 10
93.40000000000001
 20
193.7
 30
0
 41
1
 42
1
 43
0
 50
0
 70
    1
 71
    1
 44
1
 45
1
  0
INSERT
  5
EA
100
AcDbEntity
  8
Light Barrier
  6
ByLayer
 62
  256
370
   -1
100
AcDbBlockReference
  2
Barrier Cell
 10
110.03
 20
193.7
 30
0
 41
1
 42
1
 43
0
 50
0
 70
    1
 71
    1
 44
1
 45
1
  0
INSERT
  5
EB
100
AcDbEntity
  8
Light Barrier
  6
ByLayer
 62
  256
370
   -1
100
AcDbBlockReference
  2
Barrier Cell
 10
126.73
 20
193.7
 30
0
 41
1
 42
1
 43
0
 50
0
 70
    1
 71
    1
 44
1
 45
1
  0
INSERT
  5
EC
100
AcDbEntity
  8
Light Barrier
  6
ByLayer
 62
  256
370
   -1
100
AcDbBlockReference
  2
Barrier Cell
 10
143.3
 20
193.7
 30
0
 41
1
 42
1
 43
0
 50
0
 70
    1
 71
    1
 44
1
 45
1
  0
INSERT
  5
ED
100
AcDbEntity
  8
Light Barrier
  6
ByLayer
 62
  256
370
   -1
100
AcDbBlockReference
  2
Barrier Cell
 10
160
 20
193.7
 30
0
 41
1
 42
1
 43
0
 50
0
 70
    1
 71
    1
 44
1
 45
1
  0
INSERT
  5
EE
100
AcDbEntity
  8
Light Barrier
  6
ByLayer
 62
  256
370
   -1
100
AcDbBlockReference
  2
Barrier Cell
 10
10
 20
210.3
 30
0
 41
1
 42
1
 43
0
 50
0
 70
    1
 71
    1
 44
1
 45
1
  0
INSERT
  5
EF
100
AcDbEntity
  8
Light Barrier
  6
ByLayer
 62
  256
370
   -1
100
AcDbBlockReference
  2
Barrier Cell
 10
26.7
 20
210.3
 30
0
 41
1
 42
1
 43
0
 50
0
 70
    1
 71
    1
 44
1
 45
1
  0
INSERT
  5
F0
100
AcDbEntity
  8
Light Barrier
  6
ByLayer
 62
  256
370
   -1
100
AcDbBlockReference
  2
Barrier Cell
 10
43.33
 20
210.3
 30
0
 41
1
 42
1
 43
0
 50
0
 70
    1
 71
    1
 44
1
 45
1
  0
INSERT
  5
F1
100
AcDbEntity
  8
Light Barrier
  6
ByLayer
 62
  256
370
   -1
100
AcDbBlockReference
  2
Barrier Cell
 10
60.03
 20
210.3
 30
0
 41
1
 42
1
 43
0
 50
0
 70
    1
 71
    1
 44
1
 45
1
  0
INSERT
  5
F2
100
AcDbEntity
  8
Light Barrier
  6
ByLayer
 62
  256
370
   -1
100
AcDbBlockReference
  2
Barrier Cell
 10
76.7
 20
210.3
 30
0
 41
1
 42
1
 43
0
 50
0
 70
    1
 71
    1
 44
1
 45
1
  0
INSERT
  5
F3
100
AcDbEntity
  8
Light Barrier
  6
ByLayer
 62
  256
370
   -1
100
AcDbBlockReference
  2
Barrier Cell
 10
93.40000000000001
 20
210.3
 30
0
 41
1
 42
1
 43
0
 50
0
 70
    1
 71
    1
 44
1
 45
1
  0
INSERT
  5
F4
100
AcDbEntity
  8
Light Barrier
  6
ByLayer
 62
  256
370
   -1
100
AcDbBlockReference
  2
Barrier Cell
 10
110.03
 20
210.3
 30
0
 41
1
 42
1
 43
0
 50
0
 70
    1
 71
    1
 44
1
 45
1
  0
INSERT
  5
F5
100
AcDbEntity
  8
Light Barrier
  6
ByLayer
 62
  256
370
   -1
100
AcDbBlockReference
  2
Barrier Cell
 10
126.73
 20
210.3
 30
0
 41
1
 42
1
 43
0
 50
0
 70
    1
 71
    1
 44
1
 45
1
  0
INSERT
  5
F6
100
AcDbEntity
  8
Light Barrier
  6
ByLayer
 62
  256
370
   -1
100
AcDbBlockReference
  2
Barrier Cell
 10
143.3
 20
210.3
 30
0
 41
1
 42
1
 43
0
 50
0
 70
    1
 71
    1
 44
1
 45
1
  0
INSERT
  5
F7
100
AcDbEntity
  8
Light Barrier
  6
ByLayer
 62
  256
370
   -1
100
AcDbBlockReference
  2
Barrier Cell
 10
160
 20
210.3
 30
0
 41
1
 42
1
 43
0
 50
0
 70
    1
 71
    1
 44
1
 45
1
  0
INSERT
  5
F8
100
AcDbEntity
  8
Light Barrier
  6
ByLayer
 62
  256
370
   -1
100
AcDbBlockReference
  2
Barrier Cell
 10
10
 20
227
 30
0
 41
1
 42
1
 43
0
 50
0
 70
    1
 71
    1
 44
1
 45
1
  0
INSERT
  5
F9
100
AcDbEntity
  8
Light Barrier
  6
ByLayer
 62
  256
370
   -1
100
AcDbBlockReference
  2
Barrier Cell
 10
26.7
 20
227
 30
0
 41
1
 42
1
 43
0
 50
0
 70
    1
 71
    1
 44
1
 45
1
  0
INSERT
  5
FA
100
AcDbEntity
  8
Light Barrier
  6
ByLayer
 62
  256
370
   -1
100
AcDbBlockReference
  2
Barrier Cell
 10
43.33
 20
227
 30
0
 41
1
 42
1
 43
0
 50
0
 70
    1
 71
    1
 44
1
 45
1
  0
INSERT
  5
FB
100
AcDbEntity
  8
Light Barrier
  6
ByLayer
 62
  256
370
   -1
100
AcDbBlockReference
  2
Barrier Cell
 10
60.03
 20
227
 30
0
 41
1
 42
1
 43
0
 50
0
 70
    1
 71
    1
 44
1
 45
1
  0
INSERT
  5
FC
100
AcDbEntity
  8
Light Barrier
  6
ByLayer
 62
  256
370
   -1
100
AcDbBlockReference
  2
Barrier Cell
 10
76.7
 20
227
 30
0
 41
1
 42
1
 43
0
 50
0
 70
    1
 71
    1
 44
1
 45
1
  0
INSERT
  5
FD
100
AcDbEntity
  8
Light Barrier
  6
ByLayer
 62
  256
370
   -1
100
AcDbBlockReference
  2
Barrier Cell
 10
93.40000000000001
 20
227
 30
0
 41
1
 42
1
 43
0
 50
0
 70
    1
 71
    1
 44
1
 45
1
  0
INSERT
  5
FE
100
AcDbEntity
  8
Light Barrier
  6
ByLayer
 62
  256
370
   -1
100
AcDbBlockReference
  2
Barrier Cell
 10
110.03
 20
227
 30
0
 41
1
 42
1
 43
0
 50
0
 70
    1
 71
    1
 44
1
 45
1
  0
INSERT
  5
FF
100
AcDbEntity
  8
Light Barrier
  6
ByLayer
 62
  256
370
   -1
100
AcDbBlockReference
  2
Barrier Cell
 10
126.73
 20
227
 30
0
 41
1
 42
1
 43
0
 50
0
 70
    1
 71
    1
 44
1
 45
1
  0
INSERT
  5
100
100
AcDbEntity
  8
Light Barrier
  6
ByLayer
 62
  256
370
   -1
100
AcDbBlockReference
  2
Barrier Cell
 10
143.3
 20
227
 30
0
 41
1
 42
1
 43
0
 50
0
 70
    1
 71
    1
 44
1
 45
1
  0
INSERT
  5
101
100
AcDbEntity
  8
Light Barrier
  6
ByLayer
 62
  256
370
   -1
100
AcDbBlockReference
  2
Barrier Cell
 10
160
 20
227
 30
0
 41
1
 42
1
 43
0
 50
0
 70
    1
 71
    1
 44
1
 45
1
  0
INSERT
  5
102
100
AcDbEntity
  8
Light Barrier
  6
ByLayer
 62
  256
370
   -1
100
AcDbBlockReference
  2
Barrier Cell
 10
10
 20
243.6
 30
0
 41
1
 42
1
 43
0
 50
0
 70
    1
 71
    1
 44
1
 45
1
  0
INSERT
  5
103
100
AcDbEntity
  8
Light Barrier
  6
ByLayer
 62
  256
370
   -1
100
AcDbBlockReference
  2
Barrier Cell
 10
26.7
 20
243.6
 30
0
 41
1
 42
1
 43
0
 50
0
 70
    1
 71
    1
 44
1
 45
1
  0
INSERT
  5
104
100
AcDbEntity
  8
Light Barrier
  6
ByLayer
 62
  256
370
   -1
100
AcDbBlockReference
  2
Barrier Cell
 10
43.33
 20
243.6
 30
0
 41
1
 42
1
 43
0
 50
0
 70
    1
 71
    1
 44
1
 45
1
  0
INSERT
  5
105
100
AcDbEntity
  8
Light Barrier
  6
ByLayer
 62
  256
370
   -1
100
AcDbBlockReference
  2
Barrier Cell
 10
60.03
 20
243.6
 30
0
 41
1
 42
1
 43
0
 50
0
 70
    1
 71
    1
 44
1
 45
1
  0
INSERT
  5
106
100
AcDbEntity
  8
Light Barrier
  6
ByLayer
 62
  256
370
   -1
100
AcDbBlockReference
  2
Barrier Cell
 10
76.7
 20
243.6
 30
0
 41
1
 42
1
 43
0
 50
0
 70
    1
 71
    1
 44
1
 45
1
  0
INSERT
  5
107
100
AcDbEntity
  8
Light Barrier
  6
ByLayer
 62
  256
370
   -1
100
AcDbBlockReference
  2
Barrier Cell
 10
93.40000000000001
 20
243.6
 30
0
 41
1
 42
1
 43
0
 50
0
 70
    1
 71
    1
 44
1
 45
1
  0
INSERT
  5
108
100
AcDbEntity
  8
Light Barrier
  6
ByLayer
 62
  256
370
   -1
100
AcDbBlockReference
  2
Barrier Cell
 10
110.03
 20
243.6
 30
0
 41
1
 42
1
 43
0
 50
0
 70
    1
 71
    1
 44
1
 45
1
  0
INSERT
  5
109
100
AcDbEntity
  8
Light Barrier
  6
ByLayer
 62
  256
370
   -1
100
AcDbBlockReference
  2
Barrier Cell
 10
126.73
 20
243.6
 30
0
 41
1
 42
1
 43
0
 50
0
 70
    1
 71
    1
 44
1
 45
1
  0
INSERT
  5
10A
100
AcDbEntity
  8
Light Barrier
  6
ByLayer
 62
  256
370
   -1
100
AcDbBlockReference
  2
Barrier Cell
 10
143.3
 20
243.6
 30
0
 41
1
 42
1
 43
0
 50
0
 70
    1
 71
    1
 44
1
 45
1
  0
INSERT
  5
10B
100
AcDbEntity
  8
Light Barrier
  6
ByLayer
 62
  256
370
   -1
100
AcDbBlockReference
  2
Barrier Cell
 10
160
 20
243.6
 30
0
 41
1
 42
1
 43
0
 50
0
 70
    1
 71
    1
 44
1
 45
1
  0
INSERT
  5
10C
100
AcDbEntity
  8
Light Barrier
  6
ByLayer
 62
  256
370
   -1
100
AcDbBlockReference
  2
Barrier Cell
 10
10
 20
260.3
 30
0
 41
1
 42
1
 43
0
 50
0
 70
    1
 71
    1
 44
1
 45
1
  0
INSERT
  5
10D
100
AcDbEntity
  8
Light Barrier
  6
ByLayer
 62
  256
370
   -1
100
AcDbBlockReference
  2
Barrier Cell
 10
26.7
 20
260.3
 30
0
 41
1
 42
1
 43
0
 50
0
 70
    1
 71
    1
 44
1
 45
1
  0
INSERT
  5
10E
100
AcDbEntity
  8
Light Barrier
  6
ByLayer
 62
  256
370
   -1
100
AcDbBlockReference
  2
Barrier Cell
 10
43.33
 20
260.3
 30
0
 41
1
 42
1
 43
0
 50
0
 70
    1
 71
    1
 44
1
 45
1
  0
INSERT
  5
10F
100
AcDbEntity
  8
Light Barrier
  6
ByLayer
 62
  256
370
   -1
100
AcDbBlockReference
  2
Barrier Cell
 10
60.03
 20
260.3
 30
0
 41
1
 42
1
 43
0
 50
0
 70
    1
 71
    1
 44
1
 45
1
  0
INSERT
  5
110
100
AcDbEntity
  8
Light Barrier
  6
ByLayer
 62
  256
370
   -1
100
AcDbBlockReference
  2
Barrier Cell
 10
76.7
 20
260.3
 30
0
 41
1
 42
1
 43
0
 50
0
 70
    1
 71
    1
 44
1
 45
1
  0
INSERT
  5
111
100
AcDbEntity
  8
Light Barrier
  6
ByLayer
 62
  256
370
   -1
100
AcDbBlockReference
  2
Barrier Cell
 10
93.40000000000001
 20
260.3
 30
0
 41
1
 42
1
 43
0
 50
0
 70
    1
 71
    1
 44
1
 45
1
  0
INSERT
  5
112
100
AcDbEntity
  8
Light Barrier
  6
ByLayer
 62
  256
370
   -1
100
AcDbBlockReference
  2
Barrier Cell
 10
110.03
 20
260.3
 30
0
 41
1
 42
1
 43
0
 50
0
 70
    1
 71
    1
 44
1
 45
1
  0
INSERT
  5
113
100
AcDbEntity
  8
Light Barrier
  6
ByLayer
 62
  256
370
   -1
100
AcDbBlockReference
  2
Barrier Cell
 10
126.73
 20
260.3
 30
0
 41
1
 42
1
 43
0
 50
0
 70
    1
 71
    1
 44
1
 45
1
  0
INSERT
  5
114
100
AcDbEntity
  8
Light Barrier
  6
ByLayer
 62
  256
370
   -1
100
AcDbBlockReference
  2
Barrier Cell
 10
143.3
 20
260.3
 30
0
 41
1
 42
1
 43
0
 50
0
 70
    1
 71
    1
 44
1
 45
1
  0
INSERT
  5
115
100
AcDbEntity
  8
Light Barrier
  6
ByLayer
 62
  256
370
   -1
100
AcDbBlockReference
  2
Barrier Cell
 10
160
 20
260.3
 30
0
 41
1
 42
1
 43
0
 50
0
 70
    1
 71
    1
 44
1
 45
1
  0
INSERT
  5
116
100
AcDbEntity
  8
Light Barrier
  6
ByLayer
 62
  256
370
   -1
100
AcDbBlockReference
  2
Barrier Cell
 10
10
 20
277
 30
0
 41
1
 42
1
 43
0
 50
0
 70
    1
 71
    1
 44
1
 45
1
  0
INSERT
  5
117
100
AcDbEntity
  8
Light Barrier
  6
ByLayer
 62
  256
370
   -1
100
AcDbBlockReference
  2
Barrier Cell
 10
26.7
 20
277
 30
0
 41
1
 42
1
 43
0
 50
0
 70
    1
 71
    1
 44
1
 45
1
  0
INSERT
  5
118
100
AcDbEntity
  8
Light Barrier
  6
ByLayer
 62
  256
370
   -1
100
AcDbBlockReference
  2
Barrier Cell
 10
43.33
 20
277
 30
0
 41
1
 42
1
 43
0
 50
0
 70
    1
 71
    1
 44
1
 45
1
  0
INSERT
  5
119
100
AcDbEntity
  8
Light Barrier
  6
ByLayer
 62
  256
370
   -1
100
AcDbBlockReference
  2
Barrier Cell
 10
60.03
 20
277
 30
0
 41
1
 42
1
 43
0
 50
0
 70
    1
 71
    1
 44
1
 45
1
  0
INSERT
  5
11A
100
AcDbEntity
  8
Light Barrier
  6
ByLayer
 62
  256
370
   -1
100
AcDbBlockReference
  2
Barrier Cell
 10
76.7
 20
277
 30
0
 41
1
 42
1
 43
0
 50
0
 70
    1
 71
    1
 44
1
 45
1
  0
INSERT
  5
11B
100
AcDbEntity
  8
Light Barrier
  6
ByLayer
 62
  256
370
   -1
100
AcDbBlockReference
  2
Barrier Cell
 10
93.40000000000001
 20
277
 30
0
 41
1
 42
1
 43
0
 50
0
 70
    1
 71
    1
 44
1
 45
1
  0
INSERT
  5
11C
100
AcDbEntity
  8
Light Barrier
  6
ByLayer
 62
  256
370
   -1
100
AcDbBlockReference
  2
Barrier Cell
 10
110.03
 20
277
 30
0
 41
1
 42
1
 43
0
 50
0
 70
    1
 71
    1
 44
1
 45
1
  0
INSERT
  5
11D
100
AcDbEntity
  8
Light Barrier
  6
ByLayer
 62
  256
370
   -1
100
AcDbBlockReference
  2
Barrier Cell
 10
126.73
 20
277
 30
0
 41
1
 42
1
 43
0
 50
0
 70
    1
 71
    1
 44
1
 45
1
  0
INSERT
  5
11E
100
AcDbEntity
  8
Light Barrier
  6
ByLayer
 62
  256
370
   -1
100
AcDbBlockReference
  2
Barrier Cell
 10
143.3
 20
277
 30
0
 41
1
 42
1
 43
0
 50
0
 70
    1
 71
    1
 44
1
 45
1
  0
INSERT
  5
11F
100
AcDbEntity
  8
Light Barrier
  6
ByLayer
 62
  256
370
   -1
100
AcDbBlockReference
  2
Barrier Cell
 10
160
 20
277
 30
0
 41
1
 42
1
 43
0
 50
0
 70
    1
 71
    1
 44
1
 45
1
  0
INSERT
  5
120
100
AcDbEntity
  8
Light Barrier
  6
ByLayer
 62
  256
370
   -1
100
AcDbBlockReference
  2
Barrier Cell
 10
10
 20
293.7
 30
0
 41
1
 42
1
 43
0
 50
0
 70
    1
 71
    1
 44
1
 45
1
  0
INSERT
  5
121
100
AcDbEntity
  8
Light Barrier
  6
ByLayer
 62
  256
370
   -1
100
AcDbBlockReference
  2
Barrier Cell
 10
26.7
 20
293.7
 30
0
 41
1
 42
1
 43
0
 50
0
 70
    1
 71
    1
 44
1
 45
1
  0
INSERT
  5
122
100
AcDbEntity
  8
Light Barrier
  6
ByLayer
 62
  256
370
   -1
100
AcDbBlockReference
  2
Barrier Cell
 10
43.33
 20
293.7
 30
0
 41
1
 42
1
 43
0
 50
0
 70
    1
 71
    1
 44
1
 45
1
  0
INSERT
  5
123
100
AcDbEntity
  8
Light Barrier
  6
ByLayer
 62
  256
370
   -1
100
AcDbBlockReference
  2
Barrier Cell
 10
60.03
 20
293.7
 30
0
 41
1
 42
1
 43
0
 50
0
 70
    1
 71
    1
 44
1
 45
1
  0
INSERT
  5
124
100
AcDbEntity
  8
Light Barrier
  6
ByLayer
 62
  256
370
   -1
100
AcDbBlockReference
  2
Barrier Cell
 10
76.7
 20
293.7
 30
0
 41
1
 42
1
 43
0
 50
0
 70
    1
 71
    1
 44
1
 45
1
  0
INSERT
  5
125
100
AcDbEntity
  8
Light Barrier
  6
ByLayer
 62
  256
370
   -1
100
AcDbBlockReference
  2
Barrier Cell
 10
93.40000000000001
 20
293.7
 30
0
 41
1
 42
1
 43
0
 50
0
 70
    1
 71
    1
 44
1
 45
1
  0
INSERT
  5
126
100
AcDbEntity
  8
Light Barrier
  6
ByLayer
 62
  256
370
   -1
100
AcDbBlockReference
  2
Barrier Cell
 10
110.03
 20
293.7
 30
0
 41
1
 42
1
 43
0
 50
0
 70
    1
 71
    1
 44
1
 45
1
  0
INSERT
  5
127
100
AcDbEntity
  8
Light Barrier
  6
ByLayer
 62
  256
370
   -1
100
AcDbBlockReference
  2
Barrier Cell
 10
126.73
 20
293.7
 30
0
 41
1
 42
1
 43
0
 50
0
 70
    1
 71
    1
 44
1
 45
1
  0
INSERT
  5
128
100
AcDbEntity
  8
Light Barrier
  6
ByLayer
 62
  256
370
   -1
100
AcDbBlockReference
  2
Barrier Cell
 10
143.3
 20
293.7
 30
0
 41
1
 42
1
 43
0
 50
0
 70
    1
 71
    1
 44
1
 45
1
  0
INSERT
  5
129
100
AcDbEntity
  8
Light Barrier
  6
ByLayer
 62
  256
370
   -1
100
AcDbBlockReference
  2
Barrier Cell
 10
160
 20
293.7
 30
0
 41
1
 42
1
 43
0
 50
0
 70
    1
 71
    1
 44
1
 45
1
  0
INSERT
  5
12A
100
AcDbEntity
  8
Light Barrier
  6
ByLayer
 62
  256
370
   -1
100
AcDbBlockReference
  2
Barrier Cell
 10
10
 20
310.3
 30
0
 41
1
 42
1
 43
0
 50
0
 70
    1
 71
    1
 44
1
 45
1
  0
INSERT
  5
12B
100
AcDbEntity
  8
Light Barrier
  6
ByLayer
 62
  256
370
   -1
100
AcDbBlockReference
  2
Barrier Cell
 10
26.7
 20
310.3
 30
0
 41
1
 42
1
 43
0
 50
0
 70
    1
 71
    1
 44
1
 45
1
  0
INSERT
  5
12C
100
AcDbEntity
  8
Light Barrier
  6
ByLayer
 62
  256
370
   -1
100
AcDbBlockReference
  2
Barrier Cell
 10
43.33
 20
310.3
 30
0
 41
1
 42
1
 43
0
 50
0
 70
    1
 71
    1
 44
1
 45
1
  0
INSERT
  5
12D
100
AcDbEntity
  8
Light Barrier
  6
ByLayer
 62
  256
370
   -1
100
AcDbBlockReference
  2
Barrier Cell
 10
60.03
 20
310.3
 30
0
 41
1
 42
1
 43
0
 50
0
 70
    1
 71
    1
 44
1
 45
1
  0
INSERT
  5
12E
100
AcDbEntity
  8
Light Barrier
  6
ByLayer
 62
  256
370
   -1
100
AcDbBlockReference
  2
Barrier Cell
 10
76.7
 20
310.3
 30
0
 41
1
 42
1
 43
0
 50
0
 70
    1
 71
    1
 44
1
 45
1
  0
INSERT
  5
12F
100
AcDbEntity
  8
Light Barrier
  6
ByLayer
 62
  256
370
   -1
100
AcDbBlockReference
  2
Barrier Cell
 10
93.40000000000001
 20
310.3
 30
0
 41
1
 42
1
 43
0
 50
0
 70
    1
 71
    1
 44
1
 45
1
  0
INSERT
  5
130
100
AcDbEntity
  8
Light Barrier
  6
ByLayer
 62
  256
370
   -1
100
AcDbBlockReference
  2
Barrier Cell
 10
110.03
 20
310.3
 30
0
 41
1
 42
1
 43
0
 50
0
 70
    1
 71
    1
 44
1
 45
1
  0
INSERT
  5
131
100
AcDbEntity
  8
Light Barrier
  6
ByLayer
 62
  256
370
   -1
100
AcDbBlockReference
  2
Barrier Cell
 10
126.73
 20
310.3
 30
0
 41
1
 42
1
 43
0
 50
0
 70
    1
 71
    1
 44
1
 45
1
  0
INSERT
  5
132
100
AcDbEntity
  8
Light Barrier
  6
ByLayer
 62
  256
370
   -1
100
AcDbBlockReference
  2
Barrier Cell
 10
143.3
 20
310.3
 30
0
 41
1
 42
1
 43
0
 50
0
 70
    1
 71
    1
 44
1
 45
1
  0
INSERT
  5
133
100
AcDbEntity
  8
Light Barrier
  6
ByLayer
 62
  256
370
   -1
100
AcDbBlockReference
  2
Barrier Cell
 10
160
 20
310.3
 30
0
 41
1
 42
1
 43
0
 50
0
 70
    1
 71
    1
 44
1
 45
1
  0
INSERT
  5
134
100
AcDbEntity
  8
Light Barrier
  6
ByLayer
 62
  256
370
   -1
100
AcDbBlockReference
  2
Barrier Cell
 10
10
 20
327
 30
0
 41
1
 42
1
 43
0
 50
0
 70
    1
 71
    1
 44
1
 45
1
  0
INSERT
  5
135
100
AcDbEntity
  8
Light Barrier
  6
ByLayer
 62
  256
370
   -1
100
AcDbBlockReference
  2
Barrier Cell
 10
26.7
 20
327
 30
0
 41
1
 42
1
 43
0
 50
0
 70
    1
 71
    1
 44
1
 45
1
  0
INSERT
  5
136
100
AcDbEntity
  8
Light Barrier
  6
ByLayer
 62
  256
370
   -1
100
AcDbBlockReference
  2
Barrier Cell
 10
43.33
 20
327
 30
0
 41
1
 42
1
 43
0
 50
0
 70
    1
 71
    1
 44
1
 45
1
  0
INSERT
  5
137
100
AcDbEntity
  8
Light Barrier
  6
ByLayer
 62
  256
370
   -1
100
AcDbBlockReference
  2
Barrier Cell
 10
60.03
 20
327
 30
0
 41
1
 42
1
 43
0
 50
0
 70
    1
 71
    1
 44
1
 45
1
  0
INSERT
  5
138
100
AcDbEntity
  8
Light Barrier
  6
ByLayer
 62
  256
370
   -1
100
AcDbBlockReference
  2
Barrier Cell
 10
76.7
 20
327
 30
0
 41
1
 42
1
 43
0
 50
0
 70
    1
 71
    1
 44
1
 45
1
  0
INSERT
  5
139
100
AcDbEntity
  8
Light Barrier
  6
ByLayer
 62
  256
370
   -1
100
AcDbBlockReference
  2
Barrier Cell
 10
93.40000000000001
 20
327
 30
0
 41
1
 42
1
 43
0
 50
0
 70
    1
 71
    1
 44
1
 45
1
  0
INSERT
  5
13A
100
AcDbEntity
  8
Light Barrier
  6
ByLayer
 62
  256
370
   -1
100
AcDbBlockReference
  2
Barrier Cell
 10
110.03
 20
327
 30
0
 41
1
 42
1
 43
0
 50
0
 70
    1
 71
    1
 44
1
 45
1
  0
INSERT
  5
13B
100
AcDbEntity
  8
Light Barrier
  6
ByLayer
 62
  256
370
   -1
100
AcDbBlockReference
  2
Barrier Cell
 10
126.73
 20
327
 30
0
 41
1
 42
1
 43
0
 50
0
 70
    1
 71
    1
 44
1
 45
1
  0
INSERT
  5
13C
100
AcDbEntity
  8
Light Barrier
  6
ByLayer
 62
  256
370
   -1
100
AcDbBlockReference
  2
Barrier Cell
 10
143.3
 20
327
 30
0
 41
1
 42
1
 43
0
 50
0
 70
    1
 71
    1
 44
1
 45
1
  0
INSERT
  5
13D
100
AcDbEntity
  8
Light Barrier
  6
ByLayer
 62
  256
370
   -1
100
AcDbBlockReference
  2
Barrier Cell
 10
160
 20
327
 30
0
 41
1
 42
1
 43
0
 50
0
 70
    1
 71
    1
 44
1
 45
1
  0
INSERT
  5
13E
100
AcDbEntity
  8
Light Barrier
  6
ByLayer
 62
  256
370
   -1
100
AcDbBlockReference
  2
Barrier Cell
 10
10
 20
343.7
 30
0
 41
1
 42
1
 43
0
 50
0
 70
    1
 71
    1
 44
1
 45
1
  0
INSERT
  5
13F
100
AcDbEntity
  8
Light Barrier
  6
ByLayer
 62
  256
370
   -1
100
AcDbBlockReference
  2
Barrier Cell
 10
26.7
 20
343.7
 30
0
 41
1
 42
1
 43
0
 50
0
 70
    1
 71
    1
 44
1
 45
1
  0
INSERT
  5
140
100
AcDbEntity
  8
Light Barrier
  6
ByLayer
 62
  256
370
   -1
100
AcDbBlockReference
  2
Barrier Cell
 10
43.33
 20
343.7
 30
0
 41
1
 42
1
 43
0
 50
0
 70
    1
 71
    1
 44
1
 45
1
  0
INSERT
  5
141
100
AcDbEntity
  8
Light Barrier
  6
ByLayer
 62
  256
370
   -1
100
AcDbBlockReference
  2
Barrier Cell
 10
60.03
 20
343.7
 30
0
 41
1
 42
1
 43
0
 50
0
 70
    1
 71
    1
 44
1
 45
1
  0
INSERT
  5
142
100
AcDbEntity
  8
Light Barrier
  6
ByLayer
 62
  256
370
   -1
100
AcDbBlockReference
  2
Barrier Cell
 10
76.7
 20
343.7
 30
0
 41
1
 42
1
 43
0
 50
0
 70
    1
 71
    1
 44
1
 45
1
  0
INSERT
  5
143
100
AcDbEntity
  8
Light Barrier
  6
ByLayer
 62
  256
370
   -1
100
AcDbBlockReference
  2
Barrier Cell
 10
93.40000000000001
 20
343.7
 30
0
 41
1
 42
1
 43
0
 50
0
 70
    1
 71
    1
 44
1
 45
1
  0
INSERT
  5
144
100
AcDbEntity
  8
Light Barrier
  6
ByLayer
 62
  256
370
   -1
100
AcDbBlockReference
  2
Barrier Cell
 10
110.03
 20
343.7
 30
0
 41
1
 42
1
 43
0
 50
0
 70
    1
 71
    1
 44
1
 45
1
  0
INSERT
  5
145
100
AcDbEntity
  8
Light Barrier
  6
ByLayer
 62
  256
370
   -1
100
AcDbBlockReference
  2
Barrier Cell
 10
126.73
 20
343.7
 30
0
 41
1
 42
1
 43
0
 50
0
 70
    1
 71
    1
 44
1
 45
1
  0
INSERT
  5
146
100
AcDbEntity
  8
Light Barrier
  6
ByLayer
 62
  256
370
   -1
100
AcDbBlockReference
  2
Barrier Cell
 10
143.3
 20
343.7
 30
0
 41
1
 42
1
 43
0
 50
0
 70
    1
 71
    1
 44
1
 45
1
  0
INSERT
  5
147
100
AcDbEntity
  8
Light Barrier
  6
ByLayer
 62
  256
370
   -1
100
AcDbBlockReference
  2
Barrier Cell
 10
160
 20
343.7
 30
0
 41
1
 42
1
 43
0
 50
0
 70
    1
 71
    1
 44
1
 45
1
  0
INSERT
  5
148
100
AcDbEntity
  8
Light Barrier
  6
ByLayer
 62
  256
370
   -1
100
AcDbBlockReference
  2
Barrier Cell
 10
10
 20
360.4
 30
0
 41
1
 42
1
 43
0
 50
0
 70
    1
 71
    1
 44
1
 45
1
  0
INSERT
  5
149
100
AcDbEntity
  8
Light Barrier
  6
ByLayer
 62
  256
370
   -1
100
AcDbBlockReference
  2
Barrier Cell
 10
26.7
 20
360.4
 30
0
 41
1
 42
1
 43
0
 50
0
 70
    1
 71
    1
 44
1
 45
1
  0
INSERT
  5
14A
100
AcDbEntity
  8
Light Barrier
  6
ByLayer
 62
  256
370
   -1
100
AcDbBlockReference
  2
Barrier Cell
 10
43.33
 20
360.4
 30
0
 41
1
 42
1
 43
0
 50
0
 70
    1
 71
    1
 44
1
 45
1
  0
INSERT
  5
14B
100
AcDbEntity
  8
Light Barrier
  6
ByLayer
 62
  256
370
   -1
100
AcDbBlockReference
  2
Barrier Cell
 10
60.03
 20
360.4
 30
0
 41
1
 42
1
 43
0
 50
0
 70
    1
 71
    1
 44
1
 45
1
  0
INSERT
  5
14C
100
AcDbEntity
  8
Light Barrier
  6
ByLayer
 62
  256
370
   -1
100
AcDbBlockReference
  2
Barrier Cell
 10
76.7
 20
360.4
 30
0
 41
1
 42
1
 43
0
 50
0
 70
    1
 71
    1
 44
1
 45
1
  0
INSERT
  5
14D
100
AcDbEntity
  8
Light Barrier
  6
ByLayer
 62
  256
370
   -1
100
AcDbBlockReference
  2
Barrier Cell
 10
93.40000000000001
 20
360.4
 30
0
 41
1
 42
1
 43
0
 50
0
 70
    1
 71
    1
 44
1
 45
1
  0
INSERT
  5
14E
100
AcDbEntity
  8
Light Barrier
  6
ByLayer
 62
  256
370
   -1
100
AcDbBlockReference
  2
Barrier Cell
 10
110.03
 20
360.4
 30
0
 41
1
 42
1
 43
0
 50
0
 70
    1
 71
    1
 44
1
 45
1
  0
INSERT
  5
14F
100
AcDbEntity
  8
Light Barrier
  6
ByLayer
 62
  256
370
   -1
100
AcDbBlockReference
  2
Barrier Cell
 10
126.73
 20
360.4
 30
0
 41
1
 42
1
 43
0
 50
0
 70
    1
 71
    1
 44
1
 45
1
  0
INSERT
  5
150
100
AcDbEntity
  8
Light Barrier
  6
ByLayer
 62
  256
370
   -1
100
AcDbBlockReference
  2
Barrier Cell
 10
143.3
 20
360.4
 30
0
 41
1
 42
1
 43
0
 50
0
 70
    1
 71
    1
 44
1
 45
1
  0
INSERT
  5
151
100
AcDbEntity
  8
Light Barrier
  6
ByLayer
 62
  256
370
   -1
100
AcDbBlockReference
  2
Barrier Cell
 10
160
 20
360.4
 30
0
 41
1
 42
1
 43
0
 50
0
 70
    1
 71
    1
 44
1
 45
1
  0
INSERT
  5
152
100
AcDbEntity
  8
Light Barrier
  6
ByLayer
 62
  256
370
   -1
100
AcDbBlockReference
  2
Barrier Cell
 10
10
 20
377
 30
0
 41
1
 42
1
 43
0
 50
0
 70
    1
 71
    1
 44
1
 45
1
  0
INSERT
  5
153
100
AcDbEntity
  8
Light Barrier
  6
ByLayer
 62
  256
370
   -1
100
AcDbBlockReference
  2
Barrier Cell
 10
26.7
 20
377
 30
0
 41
1
 42
1
 43
0
 50
0
 70
    1
 71
    1
 44
1
 45
1
  0
INSERT
  5
154
100
AcDbEntity
  8
Light Barrier
  6
ByLayer
 62
  256
370
   -1
100
AcDbBlockReference
  2
Barrier Cell
 10
43.33
 20
377
 30
0
 41
1
 42
1
 43
0
 50
0
 70
    1
 71
    1
 44
1
 45
1
  0
INSERT
  5
155
100
AcDbEntity
  8
Light Barrier
  6
ByLayer
 62
  256
370
   -1
100
AcDbBlockReference
  2
Barrier Cell
 10
60.03
 20
377
 30
0
 41
1
 42
1
 43
0
 50
0
 70
    1
 71
    1
 44
1
 45
1
  0
INSERT
  5
156
100
AcDbEntity
  8
Light Barrier
  6
ByLayer
 62
  256
370
   -1
100
AcDbBlockReference
  2
Barrier Cell
 10
76.7
 20
377
 30
0
 41
1
 42
1
 43
0
 50
0
 70
    1
 71
    1
 44
1
 45
1
  0
INSERT
  5
157
100
AcDbEntity
  8
Light Barrier
  6
ByLayer
 62
  256
370
   -1
100
AcDbBlockReference
  2
Barrier Cell
 10
93.40000000000001
 20
377
 30
0
 41
1
 42
1
 43
0
 50
0
 70
    1
 71
    1
 44
1
 45
1
  0
INSERT
  5
158
100
AcDbEntity
  8
Light Barrier
  6
ByLayer
 62
  256
370
   -1
100
AcDbBlockReference
  2
Barrier Cell
 10
110.03
 20
377
 30
0
 41
1
 42
1
 43
0
 50
0
 70
    1
 71
    1
 44
1
 45
1
  0
INSERT
  5
159
100
AcDbEntity
  8
Light Barrier
  6
ByLayer
 62
  256
370
   -1
100
AcDbBlockReference
  2
Barrier Cell
 10
126.73
 20
377
 30
0
 41
1
 42
1
 43
0
 50
0
 70
    1
 71
    1
 44
1
 45
1
  0
INSERT
  5
15A
100
AcDbEntity
  8
Light Barrier
  6
ByLayer
 62
  256
370
   -1
100
AcDbBlockReference
  2
Barrier Cell
 10
143.3
 20
377
 30
0
 41
1
 42
1
 43
0
 50
0
 70
    1
 71
    1
 44
1
 45
1
  0
INSERT
  5
15B
100
AcDbEntity
  8
Light Barrier
  6
ByLayer
 62
  256
370
   -1
100
AcDbBlockReference
  2
Barrier Cell
 10
160
 20
377
 30
0
 41
1
 42
1
 43
0
 50
0
 70
    1
 71
    1
 44
1
 45
1
  0
INSERT
  5
15C
100
AcDbEntity
  8
Light Barrier
  6
ByLayer
 62
  256
370
   -1
100
AcDbBlockReference
  2
Barrier Cell
 10
10
 20
393.7
 30
0
 41
1
 42
1
 43
0
 50
0
 70
    1
 71
    1
 44
1
 45
1
  0
INSERT
  5
15D
100
AcDbEntity
  8
Light Barrier
  6
ByLayer
 62
  256
370
   -1
100
AcDbBlockReference
  2
Barrier Cell
 10
26.7
 20
393.7
 30
0
 41
1
 42
1
 43
0
 50
0
 70
    1
 71
    1
 44
1
 45
1
  0
INSERT
  5
15E
100
AcDbEntity
  8
Light Barrier
  6
ByLayer
 62
  256
370
   -1
100
AcDbBlockReference
  2
Barrier Cell
 10
43.33
 20
393.7
 30
0
 41
1
 42
1
 43
0
 50
0
 70
    1
 71
    1
 44
1
 45
1
  0
INSERT
  5
15F
100
AcDbEntity
  8
Light Barrier
  6
ByLayer
 62
  256
370
   -1
100
AcDbBlockReference
  2
Barrier Cell
 10
60.03
 20
393.7
 30
0
 41
1
 42
1
 43
0
 50
0
 70
    1
 71
    1
 44
1
 45
1
  0
INSERT
  5
160
100
AcDbEntity
  8
Light Barrier
  6
ByLayer
 62
  256
370
   -1
100
AcDbBlockReference
  2
Barrier Cell
 10
76.7
 20
393.7
 30
0
 41
1
 42
1
 43
0
 50
0
 70
    1
 71
    1
 44
1
 45
1
  0
INSERT
  5
161
100
AcDbEntity
  8
Light Barrier
  6
ByLayer
 62
  256
370
   -1
100
AcDbBlockReference
  2
Barrier Cell
 10
93.40000000000001
 20
393.7
 30
0
 41
1
 42
1
 43
0
 50
0
 70
    1
 71
    1
 44
1
 45
1
  0
INSERT
  5
162
100
AcDbEntity
  8
Light Barrier
  6
ByLayer
 62
  256
370
   -1
100
AcDbBlockReference
  2
Barrier Cell
 10
110.03
 20
393.7
 30
0
 41
1
 42
1
 43
0
 50
0
 70
    1
 71
    1
 44
1
 45
1
  0
INSERT
  5
163
100
AcDbEntity
  8
Light Barrier
  6
ByLayer
 62
  256
370
   -1
100
AcDbBlockReference
  2
Barrier Cell
 10
126.73
 20
393.7
 30
0
 41
1
 42
1
 43
0
 50
0
 70
    1
 71
    1
 44
1
 45
1
  0
INSERT
  5
164
100
AcDbEntity
  8
Light Barrier
  6
ByLayer
 62
  256
370
   -1
100
AcDbBlockReference
  2
Barrier Cell
 10
143.3
 20
393.7
 30
0
 41
1
 42
1
 43
0
 50
0
 70
    1
 71
    1
 44
1
 45
1
  0
INSERT
  5
165
100
AcDbEntity
  8
Light Barrier
  6
ByLayer
 62
  256
370
   -1
100
AcDbBlockReference
  2
Barrier Cell
 10
160
 20
393.7
 30
0
 41
1
 42
1
 43
0
 50
0
 70
    1
 71
    1
 44
1
 45
1
  0
LINE
  5
166
100
AcDbEntity
  8
0
  6
ByLayer
 62
  256
370
   -1
100
AcDbLine
 10
0
 20
404
 11
170
 21
404
  0
DIMENSION
  5
167
100
AcDbEntity
  8
Measurements
  6
ByLayer
 62
  256
370
   -1
100
AcDbDimension
 10
170
 20
414
 30
0
 11
85
 21
415.875
 31
0
 70
   32
 71
    5
 72
    0
  3
Standard
 53
0
210
0
220
0
230
1
100
AcDbAlignedDimension
 13
0
 23
404
 33
0
 14
170
 24
404
 34
0
100
AcDbRotatedDimension
  0
LWPOLYLINE
  5
168
100
AcDbEntity
  8
Light Barrier
  6
ByLayer
 62
  256
370
   -1
100
AcDbPolyline
 90
    4
 70
    1
 43
0
 10
0
 20
404
 10
170
 20
404
 10
170
 20
67
 10
0
 20
67
  0
LINE
  5
169
100
AcDbEntity
  8
0
  6
ByLayer
 62
  256
370
   -1
100
AcDbLine
 10
0
 20
0
 11
0
 21
404
  0
LINE
  5
16A
100
AcDbEntity
  8
0
  6
ByLayer
 62
  256
370
   -1
100
AcDbLine
 10
170
 20
404
 11
170
 21
0
  0
DIMENSION
  5
16B
100
AcDbEntity
  8
Measurements
  6
ByLayer
 62
  256
370
   -1
100
AcDbDimension
 10
-20
 20
404
 30
0
 11
-21.875
 21
235.5
 31
0
 70
   33
 71
    5
 72
    0
  3
Standard
 53
0
210
0
220
0
230
1
100
AcDbAlignedDimension
 13
0
 23
67
 33
0
 14
0
 24
404
 34
0
  0
ENDBLK
  5
6A
330
68
100
AcDbEntity
  8
0
100
AcDbBlockEnd
  0
BLOCK
  5
6C
330
6B
100
AcDbEntity
  8
0
100
AcDbBlockBegin
  2
Led
 70
    0
 10
0
 20
0
  3
Led
  1

  0
LWPOLYLINE
  5
16C
100
AcDbEntity
  8
Leds
  6
ByLayer
 62
  256
370
   -1
100
AcDbPolyline
 90
    4
 70
    1
 43
0
 10
2.5
 20
2.5
 10
-2.5
 20
2.500000000000001
 10
-2.5
 20
-2.499999999999999
 10
2.5
 20
-2.5
  0
CIRCLE
  5
16D
100
AcDbEntity
  8
Leds
  6
ByLayer
 62
  256
370
   -1
100
AcDbCircle
 10
8.326672684688673e-17
 20
-5.551115123125784e-17
 40
2
  0
LINE
  5
16E
100
AcDbEntity
  8
Leds
  6
ByLayer
 62
  256
370
   -1
100
AcDbLine
 10
-0.9999999999999999
 20
0.3000000000000002
 11
-0.9999999999999997
 21
1.5
  0
LINE
  5
16F
100
AcDbEntity
  8
Leds
  6
ByLayer
 62
  256
370
   -1
100
AcDbLine
 10
-0.9999999999999997
 20
1.5
 11
-1.3
 21
1.4
  0
LINE
  5
170
100
AcDbEntity
  8
Leds
  6
ByLayer
 62
  256
370
   -1
100
AcDbLine
 10
-1.3
 20
1.4
 11
-1.6
 21
1
  0
LINE
  5
171
100
AcDbEntity
  8
Leds
  6
ByLayer
 62
  256
370
   -1
100
AcDbLine
 10
-1.6
 20
1
 11
-1.8
 21
0.6000000000000003
  0
LINE
  5
172
100
AcDbEntity
  8
Leds
  6
ByLayer
 62
  256
370
   -1
100
AcDbLine
 10
-1.8
 20
0.6000000000000003
 11
-1.9
 21
0.3000000000000003
  0
LINE
  5
173
100
AcDbEntity
  8
Leds
  6
ByLayer
 62
  256
370
   -1
100
AcDbLine
 10
-1.9
 20
0.3000000000000003
 11
-0.9999999999999999
 21
0.3000000000000002
  0
LINE
  5
174
100
AcDbEntity
  8
Leds
  6
ByLayer
 62
  256
370
   -1
100
AcDbLine
 10
1.8
 20
0.2999999999999998
 11
0.5000000000000002
 21
0.3
  0
LINE
  5
175
100
AcDbEntity
  8
Leds
  6
ByLayer
 62
  256
370
   -1
100
AcDbLine
 10
0.5000000000000002
 20
0.3
 11
0.2000000000000001
 21
3.101821524831074e-17
  0
LINE
  5
176
100
AcDbEntity
  8
Leds
  6
ByLayer
 62
  256
370
   -1
100
AcDbLine
 10
0.2000000000000001
 20
3.101821524831074e-17
 11
-0.2999999999999999
 21
9.225055520567842e-17
  0
LINE
  5
177
100
AcDbEntity
  8
Leds
  6
ByLayer
 62
  256
370
   -1
100
AcDbLine
 10
-0.2999999999999999
 20
9.225055520567842e-17
 11
-0.5999999999999999
 21
0.3000000000000001
  0
LINE
  5
178
100
AcDbEntity
  8
Leds
  6
ByLayer
 62
  256
370
   -1
100
AcDbLine
 10
-0.5999999999999999
 20
0.3000000000000001
 11
-0.8999999999999999
 21
0.3000000000000002
  0
LINE
  5
179
100
AcDbEntity
  8
Leds
  6
ByLayer
 62
  256
370
   -1
100
AcDbLine
 10
-0.8999999999999999
 20
0.3000000000000002
 11
-0.8999999999999997
 21
1.6
  0
LINE
  5
17A
100
AcDbEntity
  8
Leds
  6
ByLayer
 62
  256
370
   -1
100
AcDbLine
 10
-0.8999999999999997
 20
1.6
 11
-0.4999999999999997
 21
1.8
  0
LINE
  5
17B
100
AcDbEntity
  8
Leds
  6
ByLayer
 62
  256
370
   -1
100
AcDbLine
 10
-0.4999999999999997
 20
1.8
 11
3.714607699161417e-16
 21
1.9
  0
LINE
  5
17C
100
AcDbEntity
  8
Leds
  6
ByLayer
 62
  256
370
   -1
100
AcDbLine
 10
3.714607699161417e-16
 20
1.9
 11
0.5000000000000004
 21
1.8
  0
LINE
  5
17D
100
AcDbEntity
  8
Leds
  6
ByLayer
 62
  256
370
   -1
100
AcDbLine
 10
0.5000000000000004
 20
1.8
 11
1.1
 21
1.5
  0
LINE
  5
17E
100
AcDbEntity
  8
Leds
  6
ByLayer
 62
  256
370
   -1
100
AcDbLine
 10
1.1
 20
1.5
 11
1.600000000000001
 21
0.9999999999999998
  0
LINE
  5
17F
100
AcDbEntity
  8
Leds
  6
ByLayer
 62
  256
370
   -1
100
AcDbLine
 10
1.600000000000001
 20
0.9999999999999998
 11
1.8
 21
0.4999999999999999
  0
LINE
  5
180
100
AcDbEntity
  8
Leds
  6
ByLayer
 62
  256
370
   -1
100
AcDbLine
 10
1.8
 20
0.4999999999999999
 11
1.8
 21
0.2999999999999998
  0
LINE
  5
181
100
AcDbEntity
  8
Leds
  6
ByLayer
 62
  256
370
   -1
100
AcDbLine
 10
0.3999999999999999
 20
-1.8
 11
0.4000000000000001
 21
-0.1
  0
LINE
  5
182
100
AcDbEntity
  8
Leds
  6
ByLayer
 62
  256
370
   -1
100
AcDbLine
 10
0.4000000000000001
 20
-0.1
 11
0.7000000000000002
 21
0.2
  0
LINE
  5
183
100
AcDbEntity
  8
Leds
  6
ByLayer
 62
  256
370
   -1
100
AcDbLine
 10
0.7000000000000002
 20
0.2
 11
1.8
 21
0.1999999999999998
  0
LINE
  5
184
100
AcDbEntity
  8
Leds
  6
ByLayer
 62
  256
370
   -1
100
AcDbLine
 10
1.8
 20
0.1999999999999998
 11
1.8
 21
-0.4000000000000002
  0
LINE
  5
185
100
AcDbEntity
  8
Leds
  6
ByLayer
 62
  256
370
   -1
100
AcDbLine
 10
1.8
 20
-0.4000000000000002
 11
1.7
 21
-0.8000000000000003
  0
LINE
  5
186
100
AcDbEntity
  8
Leds
  6
ByLayer
 62
  256
370
   -1
100
AcDbLine
 10
1.7
 20
-0.8000000000000003
 11
1.5
 21
-1.2
  0
LINE
  5
187
100
AcDbEntity
  8
Leds
  6
ByLayer
 62
  256
370
   -1
100
AcDbLine
 10
1.5
 20
-1.2
 11
1
 21
-1.6
  0
LINE
  5
188
100
AcDbEntity
  8
Leds
  6
ByLayer
 62
  256
370
   -1
100
AcDbLine
 10
1
 20
-1.6
 11
0.5
 21
-1.8
  0
LINE
  5
189
100
AcDbEntity
  8
Leds
  6
ByLayer
 62
  256
370
   -1
100
AcDbLine
 10
0.5
 20
-1.8
 11
0.3999999999999999
 21
-1.8
  0
LINE
  5
18A
100
AcDbEntity
  8
Leds
  6
ByLayer
 62
  256
370
   -1
100
AcDbLine
 10
0.2999999999999999
 20
-1.8
 11
0.09999999999999991
 21
-1.9
  0
LINE
  5
18B
100
AcDbEntity
  8
Leds
  6
ByLayer
 62
  256
370
   -1
100
AcDbLine
 10
0.09999999999999991
 20
-1.9
 11
-0.2000000000000001
 21
-1.9
  0
LINE
  5
18C
100
AcDbEntity
  8
Leds
  6
ByLayer
 62
  256
370
   -1
100
AcDbLine
 10
-0.2000000000000001
 20
-1.9
 11
-0.9000000000000001
 21
-1.6
  0
LINE
  5
18D
100
AcDbEntity
  8
Leds
  6
ByLayer
 62
  256
370
   -1
100
AcDbLine
 10
-0.9000000000000001
 20
-1.6
 11
-1.4
 21
-1.3
  0
LINE
  5
18E
100
AcDbEntity
  8
Leds
  6
ByLayer
 62
  256
370
   -1
100
AcDbLine
 10
-1.4
 20
-1.3
 11
-1.7
 21
-0.7999999999999998
  0
LINE
  5
18F
100
AcDbEntity
  8
Leds
  6
ByLayer
 62
  256
370
   -1
100
AcDbLine
 10
-1.7
 20
-0.7999999999999998
 11
-1.9
 21
-0.0999999999999998
  0
LINE
  5
190
100
AcDbEntity
  8
Leds
  6
ByLayer
 62
  256
370
   -1
100
AcDbLine
 10
-1.9
 20
-0.0999999999999998
 11
-1.9
 21
0.1000000000000002
  0
LINE
  5
191
100
AcDbEntity
  8
Leds
  6
ByLayer
 62
  256
370
   -1
100
AcDbLine
 10
-1.9
 20
0.1000000000000002
 11
-1.9
 21
0.2000000000000002
  0
LINE
  5
192
100
AcDbEntity
  8
Leds
  6
ByLayer
 62
  256
370
   -1
100
AcDbLine
 10
-1.9
 20
0.2000000000000002
 11
-0.7
 21
0.2000000000000001
  0
LINE
  5
193
100
AcDbEntity
  8
Leds
  6
ByLayer
 62
  256
370
   -1
100
AcDbLine
 10
-0.7
 20
0.2000000000000001
 11
-0.3999999999999999
 21
-0.09999999999999998
  0
LINE
  5
194
100
AcDbEntity
  8
Leds
  6
ByLayer
 62
  256
370
   -1
100
AcDbLine
 10
-0.3999999999999999
 20
-0.09999999999999998
 11
0.2000000000000001
 21
-0.1000000000000001
  0
LINE
  5
195
100
AcDbEntity
  8
Leds
  6
ByLayer
 62
  256
370
   -1
100
AcDbLine
 10
0.2000000000000001
 20
-0.1000000000000001
 11
0.3000000000000002
 21
-0.1000000000000001
  0
LINE
  5
196
100
AcDbEntity
  8
Leds
  6
ByLayer
 62
  256
370
   -1
100
AcDbLine
 10
0.3000000000000002
 20
-0.1000000000000001
 11
0.2999999999999999
 21
-1.8
  0
LINE
  5
197
100
AcDbEntity
  8
Leds
  6
ByLayer
 62
  256
370
   -1
100
AcDbLine
 10
0.2000000000000002
 20
0.3000000000000002
 11
0.2000000000000003
 21
0.7000000000000002
  0
LINE
  5
198
100
AcDbEntity
  8
Leds
  6
ByLayer
 62
  256
370
   -1
100
AcDbLine
 10
0.2000000000000003
 20
0.7000000000000002
 11
-0.3999999999999997
 21
0.7000000000000002
  0
LINE
  5
199
100
AcDbEntity
  8
Leds
  6
ByLayer
 62
  256
370
   -1
100
AcDbLine
 10
-0.3999999999999997
 20
0.7000000000000002
 11
-0.3999999999999998
 21
0.3000000000000002
  0
LINE
  5
19A
100
AcDbEntity
  8
Leds
  6
ByLayer
 62
  256
370
   -1
100
AcDbLine
 10
-0.3999999999999998
 20
0.3000000000000002
 11
0.2000000000000002
 21
0.3000000000000002
  0
ENDBLK
  5
6D
330
6B
100
AcDbEntity
  8
0
100
AcDbBlockEnd
  0
BLOCK
  5
6F
330
6E
100
AcDbEntity
  8
0
100
AcDbBlockBegin
  2
ledstrip
 70
    0
 10
0
 20
0
  3
ledstrip
  1

  0
LINE
  5
19B
100
AcDbEntity
  8
0
  6
ByLayer
 62
  256
370
   -1
100
AcDbLine
 10
21.5
 20
0
 11
21.5
 21
0.2999999999999972
  0
INSERT
  5
19C
100
AcDbEntity
  8
Ledstrips
  6
ByLayer
 62
  256
370
   -1
100
AcDbBlockReference
  2
Led
 10
2.5
 20
2.5
 30
0
 41
1
 42
1
 43
0
 50
0
 70
    1
 71
    1
 44
0
 45
0
  0
INSERT
  5
19D
100
AcDbEntity
  8
Ledstrips
  6
ByLayer
 62
  256
370
   -1
100
AcDbBlockReference
  2
Led
 10
19
 20
2.5
 30
0
 41
1
 42
1
 43
0
 50
0
 70
    1
 71
    1
 44
1
 45
1
  0
INSERT
  5
19E
100
AcDbEntity
  8
Ledstrips
  6
ByLayer
 62
  256
370
   -1
100
AcDbBlockReference
  2
Led
 10
35.5
 20
2.5
 30
0
 41
1
 42
1
 43
0
 50
0
 70
    1
 71
    1
 44
0
 45
0
  0
INSERT
  5
19F
100
AcDbEntity
  8
Ledstrips
  6
ByLayer
 62
  256
370
   -1
100
AcDbBlockReference
  2
Led
 10
52
 20
2.5
 30
0
 41
1
 42
1
 43
0
 50
0
 70
    1
 71
    1
 44
1
 45
1
  0
LINE
  5
1A0
100
AcDbEntity
  8
0
  6
ByLayer
 62
  256
370
   -1
100
AcDbLine
 10
87.5
 20
0
 11
87.5
 21
0.2999999999999972
  0
INSERT
  5
1A1
100
AcDbEntity
  8
Ledstrips
  6
ByLayer
 62
  256
370
   -1
100
AcDbBlockReference
  2
Led
 10
68.5
 20
2.5
 30
0
 41
1
 42
1
 43
0
 50
0
 70
    1
 71
    1
 44
0
 45
0
  0
INSERT
  5
1A2
100
AcDbEntity
  8
Ledstrips
  6
ByLayer
 62
  256
370
   -1
100
AcDbBlockReference
  2
Led
 10
85
 20
2.5
 30
0
 41
1
 42
1
 43
0
 50
0
 70
    1
 71
    1
 44
1
 45
1
  0
INSERT
  5
1A3
100
AcDbEntity
  8
Ledstrips
  6
ByLayer
 62
  256
370
   -1
100
AcDbBlockReference
  2
Led
 10
101.5
 20
2.5
 30
0
 41
1
 42
1
 43
0
 50
0
 70
    1
 71
    1
 44
0
 45
0
  0
INSERT
  5
1A4
100
AcDbEntity
  8
Ledstrips
  6
ByLayer
 62
  256
370
   -1
100
AcDbBlockReference
  2
Led
 10
118
 20
2.5
 30
0
 41
1
 42
1
 43
0
 50
0
 70
    1
 71
    1
 44
1
 45
1
  0
INSERT
  5
1A5
100
AcDbEntity
  8
Ledstrips
  6
ByLayer
 62
  256
370
   -1
100
AcDbBlockReference
  2
Led
 10
134.5
 20
2.5
 30
0
 41
1
 42
1
 43
0
 50
0
 70
    1
 71
    1
 44
0
 45
0
  0
INSERT
  5
1A6
100
AcDbEntity
  8
Ledstrips
  6
ByLayer
 62
  256
370
   -1
100
AcDbBlockReference
  2
Led
 10
151
 20
2.5
 30
0
 41
1
 42
1
 43
0
 50
0
 70
    1
 71
    1
 44
1
 45
1
  0
LINE
  5
1A7
100
AcDbEntity
  8
0
  6
ByLayer
 62
  256
370
   -1
100
AcDbLine
 10
186.5
 20
0
 11
186.5
 21
0.2999999999999972
  0
INSERT
  5
1A8
100
AcDbEntity
  8
Ledstrips
  6
ByLayer
 62
  256
370
   -1
100
AcDbBlockReference
  2
Led
 10
167.5
 20
2.5
 30
0
 41
1
 42
1
 43
0
 50
0
 70
    1
 71
    1
 44
0
 45
0
  0
INSERT
  5
1A9
100
AcDbEntity
  8
Ledstrips
  6
ByLayer
 62
  256
370
   -1
100
AcDbBlockReference
  2
Led
 10
184
 20
2.5
 30
0
 41
1
 42
1
 43
0
 50
0
 70
    1
 71
    1
 44
1
 45
1
  0
INSERT
  5
1AA
100
AcDbEntity
  8
Ledstrips
  6
ByLayer
 62
  256
370
   -1
100
AcDbBlockReference
  2
Led
 10
200.5
 20
2.5
 30
0
 41
1
 42
1
 43
0
 50
0
 70
    1
 71
    1
 44
0
 45
0
  0
INSERT
  5
1AB
100
AcDbEntity
  8
Ledstrips
  6
ByLayer
 62
  256
370
   -1
100
AcDbBlockReference
  2
Led
 10
217
 20
2.5
 30
0
 41
1
 42
1
 43
0
 50
0
 70
    1
 71
    1
 44
1
 45
1
  0
LINE
  5
1AC
100
AcDbEntity
  8
0
  6
ByLayer
 62
  256
370
   -1
100
AcDbLine
 10
252.5
 20
0
 11
252.5
 21
0.2999999999999972
  0
INSERT
  5
1AD
100
AcDbEntity
  8
Ledstrips
  6
ByLayer
 62
  256
370
   -1
100
AcDbBlockReference
  2
Led
 10
233.5
 20
2.5
 30
0
 41
1
 42
1
 43
0
 50
0
 70
    1
 71
    1
 44
0
 45
0
  0
INSERT
  5
1AE
100
AcDbEntity
  8
Ledstrips
  6
ByLayer
 62
  256
370
   -1
100
AcDbBlockReference
  2
Led
 10
250
 20
2.5
 30
0
 41
1
 42
1
 43
0
 50
0
 70
    1
 71
    1
 44
1
 45
1
  0
INSERT
  5
1AF
100
AcDbEntity
  8
Ledstrips
  6
ByLayer
 62
  256
370
   -1
100
AcDbBlockReference
  2
Led
 10
266.5
 20
2.5
 30
0
 41
1
 42
1
 43
0
 50
0
 70
    1
 71
    1
 44
0
 45
0
  0
INSERT
  5
1B0
100
AcDbEntity
  8
Ledstrips
  6
ByLayer
 62
  256
370
   -1
100
AcDbBlockReference
  2
Led
 10
283
 20
2.5
 30
0
 41
1
 42
1
 43
0
 50
0
 70
    1
 71
    1
 44
1
 45
1
  0
INSERT
  5
1B1
100
AcDbEntity
  8
Ledstrips
  6
ByLayer
 62
  256
370
   -1
100
AcDbBlockReference
  2
Led
 10
299.5
 20
2.5
 30
0
 41
1
 42
1
 43
0
 50
0
 70
    1
 71
    1
 44
0
 45
0
  0
INSERT
  5
1B2
100
AcDbEntity
  8
Ledstrips
  6
ByLayer
 62
  256
370
   -1
100
AcDbBlockReference
  2
Led
 10
316
 20
2.5
 30
0
 41
1
 42
1
 43
0
 50
0
 70
    1
 71
    1
 44
1
 45
1
  0
LINE
  5
1B3
100
AcDbEntity
  8
Ledstrips
  6
ByLayer
 62
  256
370
   -1
100
AcDbLine
 10
-5.75
 20
-2.5
 11
324.25
 21
-2.5
  0
LINE
  5
1B4
100
AcDbEntity
  8
Ledstrips
  6
ByLayer
 62
  256
370
   -1
100
AcDbLine
 10
324.25
 20
-2.5
 11
324.25
 21
7.5
  0
LINE
  5
1B5
100
AcDbEntity
  8
Ledstrips
  6
ByLayer
 62
  256
370
   -1
100
AcDbLine
 10
324.25
 20
7.5
 11
-5.75
 21
7.5
  0
LINE
  5
1B6
100
AcDbEntity
  8
Ledstrips
  6
ByLayer
 62
  256
370
   -1
100
AcDbLine
 10
-5.75
 20
7.5
 11
-5.75
 21
-2.5
  0
ENDBLK
  5
70
330
6E
100
AcDbEntity
  8
0
100
AcDbBlockEnd
  0
BLOCK
  5
72
330
71
100
AcDbEntity
  8
0
100
AcDbBlockBegin
  2
Barrier Cell2
 70
    0
 10
0
 20
0
  3
Barrier Cell2
  1

  0
ENDBLK
  5
73
330
71
100
AcDbEntity
  8
0
100
AcDbBlockEnd
  0
BLOCK
  5
75
330
74
100
AcDbEntity
  8
0
100
AcDbBlockBegin
  2
M3-Screw
 70
    0
 10
0
 20
0
  3
M3-Screw
  1

  0
CIRCLE
  5
1B7
100
AcDbEntity
  8
Hardware
  6
ByLayer
 62
  256
370
   -1
100
AcDbCircle
 10
0
 20
0
 40
2.75
  0
ENDBLK
  5
76
330
74
100
AcDbEntity
  8
0
100
AcDbBlockEnd
  0
ENDSEC
  0
SECTION
  2
ENTITIES
  0
INSERT
  5
1B8
100
AcDbEntity
  8
Ledstrips
  6
ByLayer
 62
  256
370
   -1
100
AcDbBlockReference
  2
ledstrip
 10
7.599999999999977
 20
47.5
 30
0
 41
1
 42
1
 43
0
 50
360
 70
    1
 71
    1
 44
0
 45
0
  0
INSERT
  5
1B9
100
AcDbEntity
  8
Ledstrips
  6
ByLayer
 62
  256
370
   -1
100
AcDbBlockReference
  2
ledstrip
 10
7.599999999999973
 20
31
 30
0
 41
1
 42
1
 43
0
 50
360
 70
    1
 71
    1
 44
0
 45
0
  0
INSERT
  5
1BA
100
AcDbEntity
  8
Ledstrips
  6
ByLayer
 62
  256
370
   -1
100
AcDbBlockReference
  2
ledstrip
 10
7.599999999999971
 20
14.5
 30
0
 41
1
 42
1
 43
0
 50
360
 70
    1
 71
    1
 44
0
 45
0
  0
INSERT
  5
1BB
100
AcDbEntity
  8
Ledstrips
  6
ByLayer
 62
  256
370
   -1
100
AcDbBlockReference
  2
ledstrip
 10
7.599999999999968
 20
-2
 30
0
 41
1
 42
1
 43
0
 50
360
 70
    1
 71
    1
 44
0
 45
0
  0
INSERT
  5
1BC
100
AcDbEntity
  8
Ledstrips
  6
ByLayer
 62
  256
370
   -1
100
AcDbBlockReference
  2
ledstrip
 10
7.599999999999964
 20
-18.5
 30
0
 41
1
 42
1
 43
0
 50
360
 70
    1
 71
    1
 44
0
 45
0
  0
INSERT
  5
1BD
100
AcDbEntity
  8
Ledstrips
  6
ByLayer
 62
  256
370
   -1
100
AcDbBlockReference
  2
ledstrip
 10
7.599999999999962
 20
-35
 30
0
 41
1
 42
1
 43
0
 50
360
 70
    1
 71
    1
 44
0
 45
0
  0
INSERT
  5
1BE
100
AcDbEntity
  8
Ledstrips
  6
ByLayer
 62
  256
370
   -1
100
AcDbBlockReference
  2
ledstrip
 10
7.599999999999959
 20
-51.5
 30
0
 41
1
 42
1
 43
0
 50
360
 70
    1
 71
    1
 44
0
 45
0
  0
INSERT
  5
1BF
100
AcDbEntity
  8
Ledstrips
  6
ByLayer
 62
  256
370
   -1
100
AcDbBlockReference
  2
ledstrip
 10
7.599999999999955
 20
-68
 30
0
 41
1
 42
1
 43
0
 50
360
 70
    1
 71
    1
 44
0
 45
0
  0
INSERT
  5
1C0
100
AcDbEntity
  8
Ledstrips
  6
ByLayer
 62
  256
370
   -1
100
AcDbBlockReference
  2
ledstrip
 10
7.599999999999953
 20
-84.5
 30
0
 41
1
 42
1
 43
0
 50
360
 70
    1
 71
    1
 44
0
 45
0
  0
INSERT
  5
1C1
100
AcDbEntity
  8
Ledstrips
  6
ByLayer
 62
  256
370
   -1
100
AcDbBlockReference
  2
ledstrip
 10
7.59999999999995
 20
-101
 30
0
 41
1
 42
1
 43
0
 50
360
 70
    1
 71
    1
 44
0
 45
0
  0
LWPOLYLINE
  5
1C2
100
AcDbEntity
  8
Acrylic front
  6
ByLayer
 62
  256
370
   -1
100
AcDbPolyline
 90
    4
 70
    1
 43
0
 10
-13
 20
73
 10
346
 20
73
 10
346
 20
-121
 10
-13
 20
-121
  0
INSERT
  5
1C3
100
AcDbEntity
  8
Hardware
  6
ByLayer
 62
  256
370
   -1
100
AcDbBlockReference
  2
M3-Screw
 10
166.5
 20
-115
 30
0
 41
1
 42
1
 43
0
 50
0
 70
    1
 71
    1
 44
0
 45
0
  0
CIRCLE
  5
1C4
100
AcDbEntity
  8
Light Barrier
  6
ByLayer
 62
  256
370
   -1
100
AcDbCircle
 10
166.5
 20
-115
 40
1.6
  0
INSERT
  5
1C5
100
AcDbEntity
  8
Hardware
  6
ByLayer
 62
  256
370
   -1
100
AcDbBlockReference
  2
M3-Screw
 10
166.5
 20
67
 30
0
 41
1
 42
1
 43
0
 50
0
 70
    1
 71
    1
 44
0
 45
0
  0
CIRCLE
  5
1C6
100
AcDbEntity
  8
Light Barrier
  6
ByLayer
 62
  256
370
   -1
100
AcDbCircle
 10
166.5
 20
67
 40
1.6
  0
LWPOLYLINE
  5
1C7
100
AcDbEntity
  8
Light Barrier
  6
ByLayer
 62
  256
370
   -1
100
AcDbPolyline
 90
    4
 70
    1
 43
0
 10
-13
 20
73
 10
346
 20
73
 10
346
 20
-121
 10
-13
 20
-121
  0
CIRCLE
  5
1C8
100
AcDbEntity
  8
Acrylic front
  6
ByLayer
 62
  256
370
   -1
100
AcDbCircle
 10
166.5
 20
-115
 40
1.6
  0
CIRCLE
  5
1C9
100
AcDbEntity
  8
Acrylic front
  6
ByLayer
 62
  256
370
   -1
100
AcDbCircle
 10
166.5
 20
67
 40
1.6
  0
DIMENSION
  5
1CA
100
AcDbEntity
  8
Measurements
  6
ByLayer
 62
  256
370
   -1
100
AcDbDimension
  2
*D1
 10
-40
 20
73
 30
0
 11
-41.875
 21
-24
 31
0
 70
   33
 71
    5
 72
    0
  3
Standard
 53
0
210
0
220
0
230
1
100
AcDbAlignedDimension
 13
-13
 23
-121
 33
0
 14
-13
 24
73
 34
0
  0
DIMENSION
  5
1CB
100
AcDbEntity
  8
Measurements
  6
ByLayer
 62
  256
370
   -1
100
AcDbDimension
  2
*D2
 10
-13
 20
100
 30
0
 11
166.5
 21
101.875
 31
0
 70
   32
 71
    5
 72
    0
  3
Standard
 53
0
210
0
220
0
230
1
100
AcDbAlignedDimension
 13
346
 23
73
 33
0
 14
-13
 24
73
 34
0
100
AcDbRotatedDimension
  0
INSERT
  5
1CC
100
AcDbEntity
  8
Hardware
  6
ByLayer
 62
  256
370
   -1
100
AcDbBlockReference
  2
M3-Screw
 10
0.999999999999968
 20
-115
 30
0
 41
1
 42
1
 43
0
 50
0
 70
    1
 71
    1
 44
0
 45
0
  0
CIRCLE
  5
1CD
100
AcDbEntity
  8
Light Barrier
  6
ByLayer
 62
  256
370
   -1
100
AcDbCircle
 10
0.9999999999999671
 20
-115
 40
1.6
  0
INSERT
  5
1CE
100
AcDbEntity
  8
Hardware
  6
ByLayer
 62
  256
370
   -1
100
AcDbBlockReference
  2
M3-Screw
 10
1.000000000000001
 20
67
 30
0
 41
1
 42
1
 43
0
 50
0
 70
    1
 71
    1
 44
0
 45
0
  0
CIRCLE
  5
1CF
100
AcDbEntity
  8
Light Barrier
  6
ByLayer
 62
  256
370
   -1
100
AcDbCircle
 10
1
 20
67
 40
1.6
  0
CIRCLE
  5
1D0
100
AcDbEntity
  8
Acrylic front
  6
ByLayer
 62
  256
370
   -1
100
AcDbCircle
 10
0.999999999999968
 20
-115
 40
1.6
  0
CIRCLE
  5
1D1
100
AcDbEntity
  8
Acrylic front
  6
ByLayer
 62
  256
370
   -1
100
AcDbCircle
 10
1
 20
67
 40
1.6
  0
INSERT
  5
1D2
100
AcDbEntity
  8
Hardware
  6
ByLayer
 62
  256
370
   -1
100
AcDbBlockReference
  2
M3-Screw
 10
332
 20
-115.0000000000001
 30
0
 41
1
 42
1
 43
0
 50
0
 70
    1
 71
    1
 44
0
 45
0
  0
CIRCLE
  5
1D3
100
AcDbEntity
  8
Light Barrier
  6
ByLayer
 62
  256
370
   -1
100
AcDbCircle
 10
332
 20
-115.0000000000001
 40
1.6
  0
INSERT
  5
1D4
100
AcDbEntity
  8
Hardware
  6
ByLayer
 62
  256
370
   -1
100
AcDbBlockReference
  2
M3-Screw
 10
332
 20
66.99999999999994
 30
0
 41
1
 42
1
 43
0
 50
0
 70
    1
 71
    1
 44
0
 45
0
  0
CIRCLE
  5
1D5
100
AcDbEntity
  8
Light Barrier
  6
ByLayer
 62
  256
370
   -1
100
AcDbCircle
 10
332
 20
66.99999999999994
 40
1.6
  0
CIRCLE
  5
1D6
100
AcDbEntity
  8
Acrylic front
  6
ByLayer
 62
  256
370
   -1
100
AcDbCircle
 10
332
 20
-115.0000000000001
 40
1.6
  0
CIRCLE
  5
1D7
100
AcDbEntity
  8
Acrylic front
  6
ByLayer
 62
  256
370
   -1
100
AcDbCircle
 10
332
 20
66.99999999999994
 40
1.6
  0
CIRCLE
  5
1D8
100
AcDbEntity
  8
Aluminium plate
  6
ByLayer
 62
  256
370
   -1
100
AcDbCircle
 10
166.5
 20
-115
 40
1.6
  0
CIRCLE
  5
1D9
100
AcDbEntity
  8
Aluminium plate
  6
ByLayer
 62
  256
370
   -1
100
AcDbCircle
 10
166.5
 20
67
 40
1.6
  0
CIRCLE
  5
1DA
100
AcDbEntity
  8
Aluminium plate
  6
ByLayer
 62
  256
370
   -1
100
AcDbCircle
 10
0.999999999999968
 20
-115
 40
1.6
  0
CIRCLE
  5
1DB
100
AcDbEntity
  8
Aluminium plate
  6
ByLayer
 62
  256
370
   -1
100
AcDbCircle
 10
1
 20
67
 40
1.6
  0
CIRCLE
  5
1DC
100
AcDbEntity
  8
Aluminium plate
  6
ByLayer
 62
  256
370
   -1
100
AcDbCircle
 10
332
 20
-115.0000000000001
 40
1.6
  0
CIRCLE
  5
1DD
100
AcDbEntity
  8
Aluminium plate
  6
ByLayer
 62
  256
370
   -1
100
AcDbCircle
 10
332
 20
66.99999999999994
 40
1.6
  0
LINE
  5
1DE
100
AcDbEntity
  8
Aluminium plate
  6
ByLayer
 62
  256
370
   -1
100
AcDbLine
 10
346
 20
73
 11
346
 21
-121
  0
LINE
  5
1DF
100
AcDbEntity
  8
Aluminium plate
  6
ByLayer
 62
  256
370
   -1
100
AcDbLine
 10
-7
 20
-121
 11
-7
 21
73
  0
LINE
  5
1E0
100
AcDbEntity
  8
Aluminium plate
  6
ByLayer
 62
  256
370
   -1
100
AcDbLine
 10
346
 20
-121
 11
-7
 21
-121
  0
LINE
  5
1E1
100
AcDbEntity
  8
Aluminium plate
  6
ByLayer
 62
  256
370
   -1
100
AcDbLine
 10
-7
 20
73
 11
346
 21
73
  0
INSERT
  5
1E2
100
AcDbEntity
  8
Light Barrier
  6
ByLayer
 62
  256
370
   -1
100
AcDbBlockReference
  2
Barrier Cell
 10
9.999999999999995
 20
33.5
 30
0
 41
1
 42
1
 43
0
 50
270
 70
    1
 71
    1
 44
1
 45
1
  0
INSERT
  5
1E3
100
AcDbEntity
  8
Light Barrier
  6
ByLayer
 62
  256
370
   -1
100
AcDbBlockReference
  2
Barrier Cell
 10
9.999999999999991
 20
17
 30
0
 41
1
 42
1
 43
0
 50
270
 70
    1
 71
    1
 44
1
 45
1
  0
INSERT
  5
1E4
100
AcDbEntity
  8
Light Barrier
  6
ByLayer
 62
  256
370
   -1
100
AcDbBlockReference
  2
Barrier Cell
 10
9.999999999999988
 20
0.5
 30
0
 41
1
 42
1
 43
0
 50
270
 70
    1
 71
    1
 44
1
 45
1
  0
INSERT
  5
1E5
100
AcDbEntity
  8
Light Barrier
  6
ByLayer
 62
  256
370
   -1
100
AcDbBlockReference
  2
Barrier Cell
 10
9.999999999999986
 20
-16
 30
0
 41
1
 42
1
 43
0
 50
270
 70
    1
 71
    1
 44
1
 45
1
  0
INSERT
  5
1E6
100
AcDbEntity
  8
Light Barrier
  6
ByLayer
 62
  256
370
   -1
100
AcDbBlockReference
  2
Barrier Cell
 10
9.999999999999982
 20
-32.5
 30
0
 41
1
 42
1
 43
0
 50
270
 70
    1
 71
    1
 44
1
 45
1
  0
INSERT
  5
1E7
100
AcDbEntity
  8
Light Barrier
  6
ByLayer
 62
  256
370
   -1
100
AcDbBlockReference
  2
Barrier Cell
 10
9.999999999999979
 20
-49
 30
0
 41
1
 42
1
 43
0
 50
270
 70
    1
 71
    1
 44
1
 45
1
  0
INSERT
  5
1E8
100
AcDbEntity
  8
Light Barrier
  6
ByLayer
 62
  256
370
   -1
100
AcDbBlockReference
  2
Barrier Cell
 10
9.999999999999977
 20
-65.5
 30
0
 41
1
 42
1
 43
0
 50
270
 70
    1
 71
    1
 44
1
 45
1
  0
INSERT
  5
1E9
100
AcDbEntity
  8
Light Barrier
  6
ByLayer
 62
  256
370
   -1
100
AcDbBlockReference
  2
Barrier Cell
 10
9.999999999999973
 20
-82
 30
0
 41
1
 42
1
 43
0
 50
270
 70
    1
 71
    1
 44
1
 45
1
  0
INSERT
  5
1EA
100
AcDbEntity
  8
Light Barrier
  6
ByLayer
 62
  256
370
   -1
100
AcDbBlockReference
  2
Barrier Cell
 10
9.99999999999997
 20
-98.5
 30
0
 41
1
 42
1
 43
0
 50
270
 70
    1
 71
    1
 44
1
 45
1
  0
INSERT
  5
1EB
100
AcDbEntity
  8
Light Barrier
  6
ByLayer
 62
  256
370
   -1
100
AcDbBlockReference
  2
Barrier Cell
 10
26.5
 20
49.99999999999999
 30
0
 41
1
 42
1
 43
0
 50
270
 70
    1
 71
    1
 44
1
 45
1
  0
INSERT
  5
1EC
100
AcDbEntity
  8
Light Barrier
  6
ByLayer
 62
  256
370
   -1
100
AcDbBlockReference
  2
Barrier Cell
 10
26.49999999999999
 20
33.49999999999999
 30
0
 41
1
 42
1
 43
0
 50
270
 70
    1
 71
    1
 44
1
 45
1
  0
INSERT
  5
1ED
100
AcDbEntity
  8
Light Barrier
  6
ByLayer
 62
  256
370
   -1
100
AcDbBlockReference
  2
Barrier Cell
 10
26.49999999999999
 20
16.99999999999999
 30
0
 41
1
 42
1
 43
0
 50
270
 70
    1
 71
    1
 44
1
 45
1
  0
INSERT
  5
1EE
100
AcDbEntity
  8
Light Barrier
  6
ByLayer
 62
  256
370
   -1
100
AcDbBlockReference
  2
Barrier Cell
 10
26.49999999999999
 20
0.5
 30
0
 41
1
 42
1
 43
0
 50
270
 70
    1
 71
    1
 44
1
 45
1
  0
INSERT
  5
1EF
100
AcDbEntity
  8
Light Barrier
  6
ByLayer
 62
  256
370
   -1
100
AcDbBlockReference
  2
Barrier Cell
 10
26.49999999999999
 20
-16
 30
0
 41
1
 42
1
 43
0
 50
270
 70
    1
 71
    1
 44
1
 45
1
  0
INSERT
  5
1F0
100
AcDbEntity
  8
Light Barrier
  6
ByLayer
 62
  256
370
   -1
100
AcDbBlockReference
  2
Barrier Cell
 10
26.49999999999998
 20
-32.5
 30
0
 41
1
 42
1
 43
0
 50
270
 70
    1
 71
    1
 44
1
 45
1
  0
INSERT
  5
1F1
100
AcDbEntity
  8
Light Barrier
  6
ByLayer
 62
  256
370
   -1
100
AcDbBlockReference
  2
Barrier Cell
 10
26.49999999999998
 20
-49
 30
0
 41
1
 42
1
 43
0
 50
270
 70
    1
 71
    1
 44
1
 45
1
  0
INSERT
  5
1F2
100
AcDbEntity
  8
Light Barrier
  6
ByLayer
 62
  256
370
   -1
100
AcDbBlockReference
  2
Barrier Cell
 10
26.49999999999998
 20
-65.5
 30
0
 41
1
 42
1
 43
0
 50
270
 70
    1
 71
    1
 44
1
 45
1
  0
INSERT
  5
1F3
100
AcDbEntity
  8
Light Barrier
  6
ByLayer
 62
  256
370
   -1
100
AcDbBlockReference
  2
Barrier Cell
 10
26.49999999999997
 20
-82
 30
0
 41
1
 42
1
 43
0
 50
270
 70
    1
 71
    1
 44
1
 45
1
  0
INSERT
  5
1F4
100
AcDbEntity
  8
Light Barrier
  6
ByLayer
 62
  256
370
   -1
100
AcDbBlockReference
  2
Barrier Cell
 10
26.49999999999997
 20
-98.5
 30
0
 41
1
 42
1
 43
0
 50
270
 70
    1
 71
    1
 44
1
 45
1
  0
INSERT
  5
1F5
100
AcDbEntity
  8
Light Barrier
  6
ByLayer
 62
  256
370
   -1
100
AcDbBlockReference
  2
Barrier Cell
 10
43
 20
49.99999999999999
 30
0
 41
1
 42
1
 43
0
 50
270
 70
    1
 71
    1
 44
1
 45
1
  0
INSERT
  5
1F6
100
AcDbEntity
  8
Light Barrier
  6
ByLayer
 62
  256
370
   -1
100
AcDbBlockReference
  2
Barrier Cell
 10
42.99999999999999
 20
33.49999999999999
 30
0
 41
1
 42
1
 43
0
 50
270
 70
    1
 71
    1
 44
1
 45
1
  0
INSERT
  5
1F7
100
AcDbEntity
  8
Light Barrier
  6
ByLayer
 62
  256
370
   -1
100
AcDbBlockReference
  2
Barrier Cell
 10
42.99999999999999
 20
16.99999999999999
 30
0
 41
1
 42
1
 43
0
 50
270
 70
    1
 71
    1
 44
1
 45
1
  0
INSERT
  5
1F8
100
AcDbEntity
  8
Light Barrier
  6
ByLayer
 62
  256
370
   -1
100
AcDbBlockReference
  2
Barrier Cell
 10
42.99999999999999
 20
0.4999999999999858
 30
0
 41
1
 42
1
 43
0
 50
270
 70
    1
 71
    1
 44
1
 45
1
  0
INSERT
  5
1F9
100
AcDbEntity
  8
Light Barrier
  6
ByLayer
 62
  256
370
   -1
100
AcDbBlockReference
  2
Barrier Cell
 10
42.99999999999999
 20
-16.00000000000001
 30
0
 41
1
 42
1
 43
0
 50
270
 70
    1
 71
    1
 44
1
 45
1
  0
INSERT
  5
1FA
100
AcDbEntity
  8
Light Barrier
  6
ByLayer
 62
  256
370
   -1
100
AcDbBlockReference
  2
Barrier Cell
 10
42.99999999999998
 20
-32.50000000000001
 30
0
 41
1
 42
1
 43
0
 50
270
 70
    1
 71
    1
 44
1
 45
1
  0
INSERT
  5
1FB
100
AcDbEntity
  8
Light Barrier
  6
ByLayer
 62
  256
370
   -1
100
AcDbBlockReference
  2
Barrier Cell
 10
42.99999999999998
 20
-49.00000000000001
 30
0
 41
1
 42
1
 43
0
 50
270
 70
    1
 71
    1
 44
1
 45
1
  0
INSERT
  5
1FC
100
AcDbEntity
  8
Light Barrier
  6
ByLayer
 62
  256
370
   -1
100
AcDbBlockReference
  2
Barrier Cell
 10
42.99999999999998
 20
-65.5
 30
0
 41
1
 42
1
 43
0
 50
270
 70
    1
 71
    1
 44
1
 45
1
  0
INSERT
  5
1FD
100
AcDbEntity
  8
Light Barrier
  6
ByLayer
 62
  256
370
   -1
100
AcDbBlockReference
  2
Barrier Cell
 10
42.99999999999997
 20
-82
 30
0
 41
1
 42
1
 43
0
 50
270
 70
    1
 71
    1
 44
1
 45
1
  0
INSERT
  5
1FE
100
AcDbEntity
  8
Light Barrier
  6
ByLayer
 62
  256
370
   -1
100
AcDbBlockReference
  2
Barrier Cell
 10
42.99999999999997
 20
-98.5
 30
0
 41
1
 42
1
 43
0
 50
270
 70
    1
 71
    1
 44
1
 45
1
  0
INSERT
  5
1FF
100
AcDbEntity
  8
Light Barrier
  6
ByLayer
 62
  256
370
   -1
100
AcDbBlockReference
  2
Barrier Cell
 10
59.5
 20
49.99999999999999
 30
0
 41
1
 42
1
 43
0
 50
270
 70
    1
 71
    1
 44
1
 45
1
  0
INSERT
  5
200
100
AcDbEntity
  8
Light Barrier
  6
ByLayer
 62
  256
370
   -1
100
AcDbBlockReference
  2
Barrier Cell
 10
59.5
 20
33.49999999999999
 30
0
 41
1
 42
1
 43
0
 50
270
 70
    1
 71
    1
 44
1
 45
1
  0
INSERT
  5
201
100
AcDbEntity
  8
Light Barrier
  6
ByLayer
 62
  256
370
   -1
100
AcDbBlockReference
  2
Barrier Cell
 10
59.49999999999999
 20
16.99999999999999
 30
0
 41
1
 42
1
 43
0
 50
270
 70
    1
 71
    1
 44
1
 45
1
  0
INSERT
  5
202
100
AcDbEntity
  8
Light Barrier
  6
ByLayer
 62
  256
370
   -1
100
AcDbBlockReference
  2
Barrier Cell
 10
59.49999999999999
 20
0.4999999999999858
 30
0
 41
1
 42
1
 43
0
 50
270
 70
    1
 71
    1
 44
1
 45
1
  0
INSERT
  5
203
100
AcDbEntity
  8
Light Barrier
  6
ByLayer
 62
  256
370
   -1
100
AcDbBlockReference
  2
Barrier Cell
 10
59.49999999999999
 20
-16.00000000000001
 30
0
 41
1
 42
1
 43
0
 50
270
 70
    1
 71
    1
 44
1
 45
1
  0
INSERT
  5
204
100
AcDbEntity
  8
Light Barrier
  6
ByLayer
 62
  256
370
   -1
100
AcDbBlockReference
  2
Barrier Cell
 10
59.49999999999999
 20
-32.50000000000001
 30
0
 41
1
 42
1
 43
0
 50
270
 70
    1
 71
    1
 44
1
 45
1
  0
INSERT
  5
205
100
AcDbEntity
  8
Light Barrier
  6
ByLayer
 62
  256
370
   -1
100
AcDbBlockReference
  2
Barrier Cell
 10
59.49999999999999
 20
-49.00000000000001
 30
0
 41
1
 42
1
 43
0
 50
270
 70
    1
 71
    1
 44
1
 45
1
  0
INSERT
  5
206
100
AcDbEntity
  8
Light Barrier
  6
ByLayer
 62
  256
370
   -1
100
AcDbBlockReference
  2
Barrier Cell
 10
59.49999999999997
 20
-65.5
 30
0
 41
1
 42
1
 43
0
 50
270
 70
    1
 71
    1
 44
1
 45
1
  0
INSERT
  5
207
100
AcDbEntity
  8
Light Barrier
  6
ByLayer
 62
  256
370
   -1
100
AcDbBlockReference
  2
Barrier Cell
 10
59.49999999999997
 20
-82
 30
0
 41
1
 42
1
 43
0
 50
270
 70
    1
 71
    1
 44
1
 45
1
  0
INSERT
  5
208
100
AcDbEntity
  8
Light Barrier
  6
ByLayer
 62
  256
370
   -1
100
AcDbBlockReference
  2
Barrier Cell
 10
59.49999999999997
 20
-98.5
 30
0
 41
1
 42
1
 43
0
 50
270
 70
    1
 71
    1
 44
1
 45
1
  0
INSERT
  5
209
100
AcDbEntity
  8
Light Barrier
  6
ByLayer
 62
  256
370
   -1
100
AcDbBlockReference
  2
Barrier Cell
 10
76
 20
33.49999999999999
 30
0
 41
1
 42
1
 43
0
 50
270
 70
    1
 71
    1
 44
1
 45
1
  0
INSERT
  5
20A
100
AcDbEntity
  8
Light Barrier
  6
ByLayer
 62
  256
370
   -1
100
AcDbBlockReference
  2
Barrier Cell
 10
75.99999999999999
 20
16.99999999999999
 30
0
 41
1
 42
1
 43
0
 50
270
 70
    1
 71
    1
 44
1
 45
1
  0
INSERT
  5
20B
100
AcDbEntity
  8
Light Barrier
  6
ByLayer
 62
  256
370
   -1
100
AcDbBlockReference
  2
Barrier Cell
 10
75.99999999999999
 20
0.4999999999999858
 30
0
 41
1
 42
1
 43
0
 50
270
 70
    1
 71
    1
 44
1
 45
1
  0
INSERT
  5
20C
100
AcDbEntity
  8
Light Barrier
  6
ByLayer
 62
  256
370
   -1
100
AcDbBlockReference
  2
Barrier Cell
 10
75.99999999999999
 20
-16.00000000000001
 30
0
 41
1
 42
1
 43
0
 50
270
 70
    1
 71
    1
 44
1
 45
1
  0
INSERT
  5
20D
100
AcDbEntity
  8
Light Barrier
  6
ByLayer
 62
  256
370
   -1
100
AcDbBlockReference
  2
Barrier Cell
 10
75.99999999999999
 20
-32.50000000000001
 30
0
 41
1
 42
1
 43
0
 50
270
 70
    1
 71
    1
 44
1
 45
1
  0
INSERT
  5
20E
100
AcDbEntity
  8
Light Barrier
  6
ByLayer
 62
  256
370
   -1
100
AcDbBlockReference
  2
Barrier Cell
 10
75.99999999999999
 20
-49.00000000000001
 30
0
 41
1
 42
1
 43
0
 50
270
 70
    1
 71
    1
 44
1
 45
1
  0
INSERT
  5
20F
100
AcDbEntity
  8
Light Barrier
  6
ByLayer
 62
  256
370
   -1
100
AcDbBlockReference
  2
Barrier Cell
 10
75.99999999999997
 20
-65.50000000000003
 30
0
 41
1
 42
1
 43
0
 50
270
 70
    1
 71
    1
 44
1
 45
1
  0
INSERT
  5
210
100
AcDbEntity
  8
Light Barrier
  6
ByLayer
 62
  256
370
   -1
100
AcDbBlockReference
  2
Barrier Cell
 10
75.99999999999997
 20
-82.00000000000003
 30
0
 41
1
 42
1
 43
0
 50
270
 70
    1
 71
    1
 44
1
 45
1
  0
INSERT
  5
211
100
AcDbEntity
  8
Light Barrier
  6
ByLayer
 62
  256
370
   -1
100
AcDbBlockReference
  2
Barrier Cell
 10
75.99999999999997
 20
-98.50000000000003
 30
0
 41
1
 42
1
 43
0
 50
270
 70
    1
 71
    1
 44
1
 45
1
  0
INSERT
  5
212
100
AcDbEntity
  8
Light Barrier
  6
ByLayer
 62
  256
370
   -1
100
AcDbBlockReference
  2
Barrier Cell
 10
92.5
 20
49.99999999999999
 30
0
 41
1
 42
1
 43
0
 50
270
 70
    1
 71
    1
 44
1
 45
1
  0
INSERT
  5
213
100
AcDbEntity
  8
Light Barrier
  6
ByLayer
 62
  256
370
   -1
100
AcDbBlockReference
  2
Barrier Cell
 10
92.5
 20
33.49999999999999
 30
0
 41
1
 42
1
 43
0
 50
270
 70
    1
 71
    1
 44
1
 45
1
  0
INSERT
  5
214
100
AcDbEntity
  8
Light Barrier
  6
ByLayer
 62
  256
370
   -1
100
AcDbBlockReference
  2
Barrier Cell
 10
92.49999999999999
 20
16.99999999999998
 30
0
 41
1
 42
1
 43
0
 50
270
 70
    1
 71
    1
 44
1
 45
1
  0
INSERT
  5
215
100
AcDbEntity
  8
Light Barrier
  6
ByLayer
 62
  256
370
   -1
100
AcDbBlockReference
  2
Barrier Cell
 10
92.49999999999999
 20
0.4999999999999858
 30
0
 41
1
 42
1
 43
0
 50
270
 70
    1
 71
    1
 44
1
 45
1
  0
INSERT
  5
216
100
AcDbEntity
  8
Light Barrier
  6
ByLayer
 62
  256
370
   -1
100
AcDbBlockReference
  2
Barrier Cell
 10
92.49999999999999
 20
-16.00000000000001
 30
0
 41
1
 42
1
 43
0
 50
270
 70
    1
 71
    1
 44
1
 45
1
  0
INSERT
  5
217
100
AcDbEntity
  8
Light Barrier
  6
ByLayer
 62
  256
370
   -1
100
AcDbBlockReference
  2
Barrier Cell
 10
92.49999999999999
 20
-32.50000000000001
 30
0
 41
1
 42
1
 43
0
 50
270
 70
    1
 71
    1
 44
1
 45
1
  0
INSERT
  5
218
100
AcDbEntity
  8
Light Barrier
  6
ByLayer
 62
  256
370
   -1
100
AcDbBlockReference
  2
Barrier Cell
 10
92.49999999999999
 20
-49.00000000000001
 30
0
 41
1
 42
1
 43
0
 50
270
 70
    1
 71
    1
 44
1
 45
1
  0
INSERT
  5
219
100
AcDbEntity
  8
Light Barrier
  6
ByLayer
 62
  256
370
   -1
100
AcDbBlockReference
  2
Barrier Cell
 10
92.49999999999997
 20
-65.50000000000003
 30
0
 41
1
 42
1
 43
0
 50
270
 70
    1
 71
    1
 44
1
 45
1
  0
INSERT
  5
21A
100
AcDbEntity
  8
Light Barrier
  6
ByLayer
 62
  256
370
   -1
100
AcDbBlockReference
  2
Barrier Cell
 10
92.49999999999997
 20
-82.00000000000003
 30
0
 41
1
 42
1
 43
0
 50
270
 70
    1
 71
    1
 44
1
 45
1
  0
INSERT
  5
21B
100
AcDbEntity
  8
Light Barrier
  6
ByLayer
 62
  256
370
   -1
100
AcDbBlockReference
  2
Barrier Cell
 10
92.49999999999997
 20
-98.50000000000003
 30
0
 41
1
 42
1
 43
0
 50
270
 70
    1
 71
    1
 44
1
 45
1
  0
INSERT
  5
21C
100
AcDbEntity
  8
Light Barrier
  6
ByLayer
 62
  256
370
   -1
100
AcDbBlockReference
  2
Barrier Cell
 10
109
 20
49.99999999999998
 30
0
 41
1
 42
1
 43
0
 50
270
 70
    1
 71
    1
 44
1
 45
1
  0
INSERT
  5
21D
100
AcDbEntity
  8
Light Barrier
  6
ByLayer
 62
  256
370
   -1
100
AcDbBlockReference
  2
Barrier Cell
 10
109
 20
33.49999999999998
 30
0
 41
1
 42
1
 43
0
 50
270
 70
    1
 71
    1
 44
1
 45
1
  0
INSERT
  5
21E
100
AcDbEntity
  8
Light Barrier
  6
ByLayer
 62
  256
370
   -1
100
AcDbBlockReference
  2
Barrier Cell
 10
109
 20
16.99999999999998
 30
0
 41
1
 42
1
 43
0
 50
270
 70
    1
 71
    1
 44
1
 45
1
  0
INSERT
  5
21F
100
AcDbEntity
  8
Light Barrier
  6
ByLayer
 62
  256
370
   -1
100
AcDbBlockReference
  2
Barrier Cell
 10
109
 20
0.4999999999999858
 30
0
 41
1
 42
1
 43
0
 50
270
 70
    1
 71
    1
 44
1
 45
1
  0
INSERT
  5
220
100
AcDbEntity
  8
Light Barrier
  6
ByLayer
 62
  256
370
   -1
100
AcDbBlockReference
  2
Barrier Cell
 10
109
 20
-16.00000000000001
 30
0
 41
1
 42
1
 43
0
 50
270
 70
    1
 71
    1
 44
1
 45
1
  0
INSERT
  5
221
100
AcDbEntity
  8
Light Barrier
  6
ByLayer
 62
  256
370
   -1
100
AcDbBlockReference
  2
Barrier Cell
 10
109
 20
-32.50000000000001
 30
0
 41
1
 42
1
 43
0
 50
270
 70
    1
 71
    1
 44
1
 45
1
  0
INSERT
  5
222
100
AcDbEntity
  8
Light Barrier
  6
ByLayer
 62
  256
370
   -1
100
AcDbBlockReference
  2
Barrier Cell
 10
109
 20
-49.00000000000001
 30
0
 41
1
 42
1
 43
0
 50
270
 70
    1
 71
    1
 44
1
 45
1
  0
INSERT
  5
223
100
AcDbEntity
  8
Light Barrier
  6
ByLayer
 62
  256
370
   -1
100
AcDbBlockReference
  2
Barrier Cell
 10
109
 20
-65.50000000000003
 30
0
 41
1
 42
1
 43
0
 50
270
 70
    1
 71
    1
 44
1
 45
1
  0
INSERT
  5
224
100
AcDbEntity
  8
Light Barrier
  6
ByLayer
 62
  256
370
   -1
100
AcDbBlockReference
  2
Barrier Cell
 10
109
 20
-82.00000000000003
 30
0
 41
1
 42
1
 43
0
 50
270
 70
    1
 71
    1
 44
1
 45
1
  0
INSERT
  5
225
100
AcDbEntity
  8
Light Barrier
  6
ByLayer
 62
  256
370
   -1
100
AcDbBlockReference
  2
Barrier Cell
 10
109
 20
-98.50000000000003
 30
0
 41
1
 42
1
 43
0
 50
270
 70
    1
 71
    1
 44
1
 45
1
  0
INSERT
  5
226
100
AcDbEntity
  8
Light Barrier
  6
ByLayer
 62
  256
370
   -1
100
AcDbBlockReference
  2
Barrier Cell
 10
125.5
 20
49.99999999999998
 30
0
 41
1
 42
1
 43
0
 50
270
 70
    1
 71
    1
 44
1
 45
1
  0
INSERT
  5
227
100
AcDbEntity
  8
Light Barrier
  6
ByLayer
 62
  256
370
   -1
100
AcDbBlockReference
  2
Barrier Cell
 10
125.5
 20
33.49999999999997
 30
0
 41
1
 42
1
 43
0
 50
270
 70
    1
 71
    1
 44
1
 45
1
  0
INSERT
  5
228
100
AcDbEntity
  8
Light Barrier
  6
ByLayer
 62
  256
370
   -1
100
AcDbBlockReference
  2
Barrier Cell
 10
125.5
 20
16.99999999999998
 30
0
 41
1
 42
1
 43
0
 50
270
 70
    1
 71
    1
 44
1
 45
1
  0
INSERT
  5
229
100
AcDbEntity
  8
Light Barrier
  6
ByLayer
 62
  256
370
   -1
100
AcDbBlockReference
  2
Barrier Cell
 10
125.5
 20
0.4999999999999716
 30
0
 41
1
 42
1
 43
0
 50
270
 70
    1
 71
    1
 44
1
 45
1
  0
INSERT
  5
22A
100
AcDbEntity
  8
Light Barrier
  6
ByLayer
 62
  256
370
   -1
100
AcDbBlockReference
  2
Barrier Cell
 10
125.5
 20
-16.00000000000003
 30
0
 41
1
 42
1
 43
0
 50
270
 70
    1
 71
    1
 44
1
 45
1
  0
INSERT
  5
22B
100
AcDbEntity
  8
Light Barrier
  6
ByLayer
 62
  256
370
   -1
100
AcDbBlockReference
  2
Barrier Cell
 10
125.5
 20
-32.50000000000003
 30
0
 41
1
 42
1
 43
0
 50
270
 70
    1
 71
    1
 44
1
 45
1
  0
INSERT
  5
22C
100
AcDbEntity
  8
Light Barrier
  6
ByLayer
 62
  256
370
   -1
100
AcDbBlockReference
  2
Barrier Cell
 10
125.5
 20
-49.00000000000003
 30
0
 41
1
 42
1
 43
0
 50
270
 70
    1
 71
    1
 44
1
 45
1
  0
INSERT
  5
22D
100
AcDbEntity
  8
Light Barrier
  6
ByLayer
 62
  256
370
   -1
100
AcDbBlockReference
  2
Barrier Cell
 10
125.5
 20
-65.50000000000003
 30
0
 41
1
 42
1
 43
0
 50
270
 70
    1
 71
    1
 44
1
 45
1
  0
INSERT
  5
22E
100
AcDbEntity
  8
Light Barrier
  6
ByLayer
 62
  256
370
   -1
100
AcDbBlockReference
  2
Barrier Cell
 10
125.5
 20
-82.00000000000003
 30
0
 41
1
 42
1
 43
0
 50
270
 70
    1
 71
    1
 44
1
 45
1
  0
INSERT
  5
22F
100
AcDbEntity
  8
Light Barrier
  6
ByLayer
 62
  256
370
   -1
100
AcDbBlockReference
  2
Barrier Cell
 10
125.5
 20
-98.50000000000003
 30
0
 41
1
 42
1
 43
0
 50
270
 70
    1
 71
    1
 44
1
 45
1
  0
INSERT
  5
230
100
AcDbEntity
  8
Light Barrier
  6
ByLayer
 62
  256
370
   -1
100
AcDbBlockReference
  2
Barrier Cell
 10
142
 20
49.99999999999997
 30
0
 41
1
 42
1
 43
0
 50
270
 70
    1
 71
    1
 44
1
 45
1
  0
INSERT
  5
231
100
AcDbEntity
  8
Light Barrier
  6
ByLayer
 62
  256
370
   -1
100
AcDbBlockReference
  2
Barrier Cell
 10
142
 20
33.49999999999997
 30
0
 41
1
 42
1
 43
0
 50
270
 70
    1
 71
    1
 44
1
 45
1
  0
INSERT
  5
232
100
AcDbEntity
  8
Light Barrier
  6
ByLayer
 62
  256
370
   -1
100
AcDbBlockReference
  2
Barrier Cell
 10
142
 20
16.99999999999997
 30
0
 41
1
 42
1
 43
0
 50
270
 70
    1
 71
    1
 44
1
 45
1
  0
INSERT
  5
233
100
AcDbEntity
  8
Light Barrier
  6
ByLayer
 62
  256
370
   -1
100
AcDbBlockReference
  2
Barrier Cell
 10
142
 20
0.4999999999999716
 30
0
 41
1
 42
1
 43
0
 50
270
 70
    1
 71
    1
 44
1
 45
1
  0
INSERT
  5
234
100
AcDbEntity
  8
Light Barrier
  6
ByLayer
 62
  256
370
   -1
100
AcDbBlockReference
  2
Barrier Cell
 10
142
 20
-16.00000000000003
 30
0
 41
1
 42
1
 43
0
 50
270
 70
    1
 71
    1
 44
1
 45
1
  0
INSERT
  5
235
100
AcDbEntity
  8
Light Barrier
  6
ByLayer
 62
  256
370
   -1
100
AcDbBlockReference
  2
Barrier Cell
 10
142
 20
-32.50000000000003
 30
0
 41
1
 42
1
 43
0
 50
270
 70
    1
 71
    1
 44
1
 45
1
  0
INSERT
  5
236
100
AcDbEntity
  8
Light Barrier
  6
ByLayer
 62
  256
370
   -1
100
AcDbBlockReference
  2
Barrier Cell
 10
142
 20
-49.00000000000003
 30
0
 41
1
 42
1
 43
0
 50
270
 70
    1
 71
    1
 44
1
 45
1
  0
INSERT
  5
237
100
AcDbEntity
  8
Light Barrier
  6
ByLayer
 62
  256
370
   -1
100
AcDbBlockReference
  2
Barrier Cell
 10
142
 20
-65.50000000000003
 30
0
 41
1
 42
1
 43
0
 50
270
 70
    1
 71
    1
 44
1
 45
1
  0
INSERT
  5
238
100
AcDbEntity
  8
Light Barrier
  6
ByLayer
 62
  256
370
   -1
100
AcDbBlockReference
  2
Barrier Cell
 10
142
 20
-82.00000000000003
 30
0
 41
1
 42
1
 43
0
 50
270
 70
    1
 71
    1
 44
1
 45
1
  0
INSERT
  5
239
100
AcDbEntity
  8
Light Barrier
  6
ByLayer
 62
  256
370
   -1
100
AcDbBlockReference
  2
Barrier Cell
 10
142
 20
-98.50000000000003
 30
0
 41
1
 42
1
 43
0
 50
270
 70
    1
 71
    1
 44
1
 45
1
  0
INSERT
  5
23A
100
AcDbEntity
  8
Light Barrier
  6
ByLayer
 62
  256
370
   -1
100
AcDbBlockReference
  2
Barrier Cell
 10
158.5
 20
49.99999999999997
 30
0
 41
1
 42
1
 43
0
 50
270
 70
    1
 71
    1
 44
1
 45
1
  0
INSERT
  5
23B
100
AcDbEntity
  8
Light Barrier
  6
ByLayer
 62
  256
370
   -1
100
AcDbBlockReference
  2
Barrier Cell
 10
158.5
 20
33.49999999999997
 30
0
 41
1
 42
1
 43
0
 50
270
 70
    1
 71
    1
 44
1
 45
1
  0
INSERT
  5
23C
100
AcDbEntity
  8
Light Barrier
  6
ByLayer
 62
  256
370
   -1
100
AcDbBlockReference
  2
Barrier Cell
 10
158.5
 20
16.99999999999997
 30
0
 41
1
 42
1
 43
0
 50
270
 70
    1
 71
    1
 44
1
 45
1
  0
INSERT
  5
23D
100
AcDbEntity
  8
Light Barrier
  6
ByLayer
 62
  256
370
   -1
100
AcDbBlockReference
  2
Barrier Cell
 10
158.5
 20
0.4999999999999716
 30
0
 41
1
 42
1
 43
0
 50
270
 70
    1
 71
    1
 44
1
 45
1
  0
INSERT
  5
23E
100
AcDbEntity
  8
Light Barrier
  6
ByLayer
 62
  256
370
   -1
100
AcDbBlockReference
  2
Barrier Cell
 10
158.5
 20
-16.00000000000003
 30
0
 41
1
 42
1
 43
0
 50
270
 70
    1
 71
    1
 44
1
 45
1
  0
INSERT
  5
23F
100
AcDbEntity
  8
Light Barrier
  6
ByLayer
 62
  256
370
   -1
100
AcDbBlockReference
  2
Barrier Cell
 10
158.5
 20
-32.50000000000003
 30
0
 41
1
 42
1
 43
0
 50
270
 70
    1
 71
    1
 44
1
 45
1
  0
INSERT
  5
240
100
AcDbEntity
  8
Light Barrier
  6
ByLayer
 62
  256
370
   -1
100
AcDbBlockReference
  2
Barrier Cell
 10
158.5
 20
-49.00000000000003
 30
0
 41
1
 42
1
 43
0
 50
270
 70
    1
 71
    1
 44
1
 45
1
  0
INSERT
  5
241
100
AcDbEntity
  8
Light Barrier
  6
ByLayer
 62
  256
370
   -1
100
AcDbBlockReference
  2
Barrier Cell
 10
158.5
 20
-65.50000000000003
 30
0
 41
1
 42
1
 43
0
 50
270
 70
    1
 71
    1
 44
1
 45
1
  0
INSERT
  5
242
100
AcDbEntity
  8
Light Barrier
  6
ByLayer
 62
  256
370
   -1
100
AcDbBlockReference
  2
Barrier Cell
 10
158.5
 20
-82.00000000000003
 30
0
 41
1
 42
1
 43
0
 50
270
 70
    1
 71
    1
 44
1
 45
1
  0
INSERT
  5
243
100
AcDbEntity
  8
Light Barrier
  6
ByLayer
 62
  256
370
   -1
100
AcDbBlockReference
  2
Barrier Cell
 10
158.5
 20
-98.50000000000003
 30
0
 41
1
 42
1
 43
0
 50
270
 70
    1
 71
    1
 44
1
 45
1
  0
INSERT
  5
244
100
AcDbEntity
  8
Light Barrier
  6
ByLayer
 62
  256
370
   -1
100
AcDbBlockReference
  2
Barrier Cell
 10
175
 20
49.99999999999996
 30
0
 41
1
 42
1
 43
0
 50
270
 70
    1
 71
    1
 44
1
 45
1
  0
INSERT
  5
245
100
AcDbEntity
  8
Light Barrier
  6
ByLayer
 62
  256
370
   -1
100
AcDbBlockReference
  2
Barrier Cell
 10
175
 20
33.49999999999997
 30
0
 41
1
 42
1
 43
0
 50
270
 70
    1
 71
    1
 44
1
 45
1
  0
INSERT
  5
246
100
AcDbEntity
  8
Light Barrier
  6
ByLayer
 62
  256
370
   -1
100
AcDbBlockReference
  2
Barrier Cell
 10
175
 20
16.99999999999996
 30
0
 41
1
 42
1
 43
0
 50
270
 70
    1
 71
    1
 44
1
 45
1
  0
INSERT
  5
247
100
AcDbEntity
  8
Light Barrier
  6
ByLayer
 62
  256
370
   -1
100
AcDbBlockReference
  2
Barrier Cell
 10
175
 20
0.4999999999999716
 30
0
 41
1
 42
1
 43
0
 50
270
 70
    1
 71
    1
 44
1
 45
1
  0
INSERT
  5
248
100
AcDbEntity
  8
Light Barrier
  6
ByLayer
 62
  256
370
   -1
100
AcDbBlockReference
  2
Barrier Cell
 10
175
 20
-16.00000000000003
 30
0
 41
1
 42
1
 43
0
 50
270
 70
    1
 71
    1
 44
1
 45
1
  0
INSERT
  5
249
100
AcDbEntity
  8
Light Barrier
  6
ByLayer
 62
  256
370
   -1
100
AcDbBlockReference
  2
Barrier Cell
 10
175
 20
-32.50000000000003
 30
0
 41
1
 42
1
 43
0
 50
270
 70
    1
 71
    1
 44
1
 45
1
  0
INSERT
  5
24A
100
AcDbEntity
  8
Light Barrier
  6
ByLayer
 62
  256
370
   -1
100
AcDbBlockReference
  2
Barrier Cell
 10
175
 20
-49.00000000000003
 30
0
 41
1
 42
1
 43
0
 50
270
 70
    1
 71
    1
 44
1
 45
1
  0
INSERT
  5
24B
100
AcDbEntity
  8
Light Barrier
  6
ByLayer
 62
  256
370
   -1
100
AcDbBlockReference
  2
Barrier Cell
 10
175
 20
-65.50000000000003
 30
0
 41
1
 42
1
 43
0
 50
270
 70
    1
 71
    1
 44
1
 45
1
  0
INSERT
  5
24C
100
AcDbEntity
  8
Light Barrier
  6
ByLayer
 62
  256
370
   -1
100
AcDbBlockReference
  2
Barrier Cell
 10
175
 20
-82.00000000000003
 30
0
 41
1
 42
1
 43
0
 50
270
 70
    1
 71
    1
 44
1
 45
1
  0
INSERT
  5
24D
100
AcDbEntity
  8
Light Barrier
  6
ByLayer
 62
  256
370
   -1
100
AcDbBlockReference
  2
Barrier Cell
 10
175
 20
-98.50000000000003
 30
0
 41
1
 42
1
 43
0
 50
270
 70
    1
 71
    1
 44
1
 45
1
  0
INSERT
  5
24E
100
AcDbEntity
  8
Light Barrier
  6
ByLayer
 62
  256
370
   -1
100
AcDbBlockReference
  2
Barrier Cell
 10
191.5
 20
49.99999999999996
 30
0
 41
1
 42
1
 43
0
 50
270
 70
    1
 71
    1
 44
1
 45
1
  0
INSERT
  5
24F
100
AcDbEntity
  8
Light Barrier
  6
ByLayer
 62
  256
370
   -1
100
AcDbBlockReference
  2
Barrier Cell
 10
191.5
 20
33.49999999999996
 30
0
 41
1
 42
1
 43
0
 50
270
 70
    1
 71
    1
 44
1
 45
1
  0
INSERT
  5
250
100
AcDbEntity
  8
Light Barrier
  6
ByLayer
 62
  256
370
   -1
100
AcDbBlockReference
  2
Barrier Cell
 10
191.5
 20
16.99999999999996
 30
0
 41
1
 42
1
 43
0
 50
270
 70
    1
 71
    1
 44
1
 45
1
  0
INSERT
  5
251
100
AcDbEntity
  8
Light Barrier
  6
ByLayer
 62
  256
370
   -1
100
AcDbBlockReference
  2
Barrier Cell
 10
191.5
 20
0.4999999999999574
 30
0
 41
1
 42
1
 43
0
 50
270
 70
    1
 71
    1
 44
1
 45
1
  0
INSERT
  5
252
100
AcDbEntity
  8
Light Barrier
  6
ByLayer
 62
  256
370
   -1
100
AcDbBlockReference
  2
Barrier Cell
 10
191.5
 20
-16.00000000000004
 30
0
 41
1
 42
1
 43
0
 50
270
 70
    1
 71
    1
 44
1
 45
1
  0
INSERT
  5
253
100
AcDbEntity
  8
Light Barrier
  6
ByLayer
 62
  256
370
   -1
100
AcDbBlockReference
  2
Barrier Cell
 10
191.5
 20
-32.50000000000004
 30
0
 41
1
 42
1
 43
0
 50
270
 70
    1
 71
    1
 44
1
 45
1
  0
INSERT
  5
254
100
AcDbEntity
  8
Light Barrier
  6
ByLayer
 62
  256
370
   -1
100
AcDbBlockReference
  2
Barrier Cell
 10
191.5
 20
-49.00000000000004
 30
0
 41
1
 42
1
 43
0
 50
270
 70
    1
 71
    1
 44
1
 45
1
  0
INSERT
  5
255
100
AcDbEntity
  8
Light Barrier
  6
ByLayer
 62
  256
370
   -1
100
AcDbBlockReference
  2
Barrier Cell
 10
191.5
 20
-65.50000000000003
 30
0
 41
1
 42
1
 43
0
 50
270
 70
    1
 71
    1
 44
1
 45
1
  0
INSERT
  5
256
100
AcDbEntity
  8
Light Barrier
  6
ByLayer
 62
  256
370
   -1
100
AcDbBlockReference
  2
Barrier Cell
 10
191.5
 20
-82.00000000000003
 30
0
 41
1
 42
1
 43
0
 50
270
 70
    1
 71
    1
 44
1
 45
1
  0
INSERT
  5
257
100
AcDbEntity
  8
Light Barrier
  6
ByLayer
 62
  256
370
   -1
100
AcDbBlockReference
  2
Barrier Cell
 10
191.5
 20
-98.50000000000003
 30
0
 41
1
 42
1
 43
0
 50
270
 70
    1
 71
    1
 44
1
 45
1
  0
INSERT
  5
258
100
AcDbEntity
  8
Light Barrier
  6
ByLayer
 62
  256
370
   -1
100
AcDbBlockReference
  2
Barrier Cell
 10
208
 20
49.99999999999996
 30
0
 41
1
 42
1
 43
0
 50
270
 70
    1
 71
    1
 44
1
 45
1
  0
INSERT
  5
259
100
AcDbEntity
  8
Light Barrier
  6
ByLayer
 62
  256
370
   -1
100
AcDbBlockReference
  2
Barrier Cell
 10
208
 20
33.49999999999996
 30
0
 41
1
 42
1
 43
0
 50
270
 70
    1
 71
    1
 44
1
 45
1
  0
INSERT
  5
25A
100
AcDbEntity
  8
Light Barrier
  6
ByLayer
 62
  256
370
   -1
100
AcDbBlockReference
  2
Barrier Cell
 10
208
 20
16.99999999999996
 30
0
 41
1
 42
1
 43
0
 50
270
 70
    1
 71
    1
 44
1
 45
1
  0
INSERT
  5
25B
100
AcDbEntity
  8
Light Barrier
  6
ByLayer
 62
  256
370
   -1
100
AcDbBlockReference
  2
Barrier Cell
 10
208
 20
0.4999999999999574
 30
0
 41
1
 42
1
 43
0
 50
270
 70
    1
 71
    1
 44
1
 45
1
  0
INSERT
  5
25C
100
AcDbEntity
  8
Light Barrier
  6
ByLayer
 62
  256
370
   -1
100
AcDbBlockReference
  2
Barrier Cell
 10
208
 20
-16.00000000000004
 30
0
 41
1
 42
1
 43
0
 50
270
 70
    1
 71
    1
 44
1
 45
1
  0
INSERT
  5
25D
100
AcDbEntity
  8
Light Barrier
  6
ByLayer
 62
  256
370
   -1
100
AcDbBlockReference
  2
Barrier Cell
 10
208
 20
-32.50000000000004
 30
0
 41
1
 42
1
 43
0
 50
270
 70
    1
 71
    1
 44
1
 45
1
  0
INSERT
  5
25E
100
AcDbEntity
  8
Light Barrier
  6
ByLayer
 62
  256
370
   -1
100
AcDbBlockReference
  2
Barrier Cell
 10
208
 20
-49.00000000000004
 30
0
 41
1
 42
1
 43
0
 50
270
 70
    1
 71
    1
 44
1
 45
1
  0
INSERT
  5
25F
100
AcDbEntity
  8
Light Barrier
  6
ByLayer
 62
  256
370
   -1
100
AcDbBlockReference
  2
Barrier Cell
 10
208
 20
-65.50000000000003
 30
0
 41
1
 42
1
 43
0
 50
270
 70
    1
 71
    1
 44
1
 45
1
  0
INSERT
  5
260
100
AcDbEntity
  8
Light Barrier
  6
ByLayer
 62
  256
370
   -1
100
AcDbBlockReference
  2
Barrier Cell
 10
208
 20
-82.00000000000003
 30
0
 41
1
 42
1
 43
0
 50
270
 70
    1
 71
    1
 44
1
 45
1
  0
INSERT
  5
261
100
AcDbEntity
  8
Light Barrier
  6
ByLayer
 62
  256
370
   -1
100
AcDbBlockReference
  2
Barrier Cell
 10
208
 20
-98.50000000000003
 30
0
 41
1
 42
1
 43
0
 50
270
 70
    1
 71
    1
 44
1
 45
1
  0
INSERT
  5
262
100
AcDbEntity
  8
Light Barrier
  6
ByLayer
 62
  256
370
   -1
100
AcDbBlockReference
  2
Barrier Cell
 10
224.5
 20
49.99999999999996
 30
0
 41
1
 42
1
 43
0
 50
270
 70
    1
 71
    1
 44
1
 45
1
  0
INSERT
  5
263
100
AcDbEntity
  8
Light Barrier
  6
ByLayer
 62
  256
370
   -1
100
AcDbBlockReference
  2
Barrier Cell
 10
224.5
 20
33.49999999999996
 30
0
 41
1
 42
1
 43
0
 50
270
 70
    1
 71
    1
 44
1
 45
1
  0
INSERT
  5
264
100
AcDbEntity
  8
Light Barrier
  6
ByLayer
 62
  256
370
   -1
100
AcDbBlockReference
  2
Barrier Cell
 10
224.5
 20
16.99999999999996
 30
0
 41
1
 42
1
 43
0
 50
270
 70
    1
 71
    1
 44
1
 45
1
  0
INSERT
  5
265
100
AcDbEntity
  8
Light Barrier
  6
ByLayer
 62
  256
370
   -1
100
AcDbBlockReference
  2
Barrier Cell
 10
224.5
 20
0.4999999999999574
 30
0
 41
1
 42
1
 43
0
 50
270
 70
    1
 71
    1
 44
1
 45
1
  0
INSERT
  5
266
100
AcDbEntity
  8
Light Barrier
  6
ByLayer
 62
  256
370
   -1
100
AcDbBlockReference
  2
Barrier Cell
 10
224.5
 20
-16.00000000000004
 30
0
 41
1
 42
1
 43
0
 50
270
 70
    1
 71
    1
 44
1
 45
1
  0
INSERT
  5
267
100
AcDbEntity
  8
Light Barrier
  6
ByLayer
 62
  256
370
   -1
100
AcDbBlockReference
  2
Barrier Cell
 10
224.5
 20
-32.50000000000004
 30
0
 41
1
 42
1
 43
0
 50
270
 70
    1
 71
    1
 44
1
 45
1
  0
INSERT
  5
268
100
AcDbEntity
  8
Light Barrier
  6
ByLayer
 62
  256
370
   -1
100
AcDbBlockReference
  2
Barrier Cell
 10
224.5
 20
-49.00000000000004
 30
0
 41
1
 42
1
 43
0
 50
270
 70
    1
 71
    1
 44
1
 45
1
  0
INSERT
  5
269
100
AcDbEntity
  8
Light Barrier
  6
ByLayer
 62
  256
370
   -1
100
AcDbBlockReference
  2
Barrier Cell
 10
224.5
 20
-65.50000000000003
 30
0
 41
1
 42
1
 43
0
 50
270
 70
    1
 71
    1
 44
1
 45
1
  0
INSERT
  5
26A
100
AcDbEntity
  8
Light Barrier
  6
ByLayer
 62
  256
370
   -1
100
AcDbBlockReference
  2
Barrier Cell
 10
224.5
 20
-82.00000000000003
 30
0
 41
1
 42
1
 43
0
 50
270
 70
    1
 71
    1
 44
1
 45
1
  0
INSERT
  5
26B
100
AcDbEntity
  8
Light Barrier
  6
ByLayer
 62
  256
370
   -1
100
AcDbBlockReference
  2
Barrier Cell
 10
224.5
 20
-98.50000000000003
 30
0
 41
1
 42
1
 43
0
 50
270
 70
    1
 71
    1
 44
1
 45
1
  0
INSERT
  5
26C
100
AcDbEntity
  8
Light Barrier
  6
ByLayer
 62
  256
370
   -1
100
AcDbBlockReference
  2
Barrier Cell
 10
241
 20
49.99999999999996
 30
0
 41
1
 42
1
 43
0
 50
270
 70
    1
 71
    1
 44
1
 45
1
  0
INSERT
  5
26D
100
AcDbEntity
  8
Light Barrier
  6
ByLayer
 62
  256
370
   -1
100
AcDbBlockReference
  2
Barrier Cell
 10
241
 20
33.49999999999996
 30
0
 41
1
 42
1
 43
0
 50
270
 70
    1
 71
    1
 44
1
 45
1
  0
INSERT
  5
26E
100
AcDbEntity
  8
Light Barrier
  6
ByLayer
 62
  256
370
   -1
100
AcDbBlockReference
  2
Barrier Cell
 10
241
 20
16.99999999999996
 30
0
 41
1
 42
1
 43
0
 50
270
 70
    1
 71
    1
 44
1
 45
1
  0
INSERT
  5
26F
100
AcDbEntity
  8
Light Barrier
  6
ByLayer
 62
  256
370
   -1
100
AcDbBlockReference
  2
Barrier Cell
 10
241
 20
0.4999999999999574
 30
0
 41
1
 42
1
 43
0
 50
270
 70
    1
 71
    1
 44
1
 45
1
  0
INSERT
  5
270
100
AcDbEntity
  8
Light Barrier
  6
ByLayer
 62
  256
370
   -1
100
AcDbBlockReference
  2
Barrier Cell
 10
241
 20
-16.00000000000004
 30
0
 41
1
 42
1
 43
0
 50
270
 70
    1
 71
    1
 44
1
 45
1
  0
INSERT
  5
271
100
AcDbEntity
  8
Light Barrier
  6
ByLayer
 62
  256
370
   -1
100
AcDbBlockReference
  2
Barrier Cell
 10
241
 20
-32.50000000000004
 30
0
 41
1
 42
1
 43
0
 50
270
 70
    1
 71
    1
 44
1
 45
1
  0
INSERT
  5
272
100
AcDbEntity
  8
Light Barrier
  6
ByLayer
 62
  256
370
   -1
100
AcDbBlockReference
  2
Barrier Cell
 10
241
 20
-49.00000000000004
 30
0
 41
1
 42
1
 43
0
 50
270
 70
    1
 71
    1
 44
1
 45
1
  0
INSERT
  5
273
100
AcDbEntity
  8
Light Barrier
  6
ByLayer
 62
  256
370
   -1
100
AcDbBlockReference
  2
Barrier Cell
 10
241
 20
-65.50000000000006
 30
0
 41
1
 42
1
 43
0
 50
270
 70
    1
 71
    1
 44
1
 45
1
  0
INSERT
  5
274
100
AcDbEntity
  8
Light Barrier
  6
ByLayer
 62
  256
370
   -1
100
AcDbBlockReference
  2
Barrier Cell
 10
241
 20
-82.00000000000006
 30
0
 41
1
 42
1
 43
0
 50
270
 70
    1
 71
    1
 44
1
 45
1
  0
INSERT
  5
275
100
AcDbEntity
  8
Light Barrier
  6
ByLayer
 62
  256
370
   -1
100
AcDbBlockReference
  2
Barrier Cell
 10
241
 20
-98.50000000000006
 30
0
 41
1
 42
1
 43
0
 50
270
 70
    1
 71
    1
 44
1
 45
1
  0
INSERT
  5
276
100
AcDbEntity
  8
Light Barrier
  6
ByLayer
 62
  256
370
   -1
100
AcDbBlockReference
  2
Barrier Cell
 10
257.5
 20
49.99999999999995
 30
0
 41
1
 42
1
 43
0
 50
270
 70
    1
 71
    1
 44
1
 45
1
  0
INSERT
  5
277
100
AcDbEntity
  8
Light Barrier
  6
ByLayer
 62
  256
370
   -1
100
AcDbBlockReference
  2
Barrier Cell
 10
257.5
 20
33.49999999999995
 30
0
 41
1
 42
1
 43
0
 50
270
 70
    1
 71
    1
 44
1
 45
1
  0
INSERT
  5
278
100
AcDbEntity
  8
Light Barrier
  6
ByLayer
 62
  256
370
   -1
100
AcDbBlockReference
  2
Barrier Cell
 10
257.5
 20
16.99999999999995
 30
0
 41
1
 42
1
 43
0
 50
270
 70
    1
 71
    1
 44
1
 45
1
  0
INSERT
  5
279
100
AcDbEntity
  8
Light Barrier
  6
ByLayer
 62
  256
370
   -1
100
AcDbBlockReference
  2
Barrier Cell
 10
257.5
 20
0.4999999999999574
 30
0
 41
1
 42
1
 43
0
 50
270
 70
    1
 71
    1
 44
1
 45
1
  0
INSERT
  5
27A
100
AcDbEntity
  8
Light Barrier
  6
ByLayer
 62
  256
370
   -1
100
AcDbBlockReference
  2
Barrier Cell
 10
257.5
 20
-16.00000000000004
 30
0
 41
1
 42
1
 43
0
 50
270
 70
    1
 71
    1
 44
1
 45
1
  0
INSERT
  5
27B
100
AcDbEntity
  8
Light Barrier
  6
ByLayer
 62
  256
370
   -1
100
AcDbBlockReference
  2
Barrier Cell
 10
257.5
 20
-32.50000000000004
 30
0
 41
1
 42
1
 43
0
 50
270
 70
    1
 71
    1
 44
1
 45
1
  0
INSERT
  5
27C
100
AcDbEntity
  8
Light Barrier
  6
ByLayer
 62
  256
370
   -1
100
AcDbBlockReference
  2
Barrier Cell
 10
257.5
 20
-49.00000000000004
 30
0
 41
1
 42
1
 43
0
 50
270
 70
    1
 71
    1
 44
1
 45
1
  0
INSERT
  5
27D
100
AcDbEntity
  8
Light Barrier
  6
ByLayer
 62
  256
370
   -1
100
AcDbBlockReference
  2
Barrier Cell
 10
257.5
 20
-65.50000000000006
 30
0
 41
1
 42
1
 43
0
 50
270
 70
    1
 71
    1
 44
1
 45
1
  0
INSERT
  5
27E
100
AcDbEntity
  8
Light Barrier
  6
ByLayer
 62
  256
370
   -1
100
AcDbBlockReference
  2
Barrier Cell
 10
257.5
 20
-82.00000000000006
 30
0
 41
1
 42
1
 43
0
 50
270
 70
    1
 71
    1
 44
1
 45
1
  0
INSERT
  5
27F
100
AcDbEntity
  8
Light Barrier
  6
ByLayer
 62
  256
370
   -1
100
AcDbBlockReference
  2
Barrier Cell
 10
257.4999999999999
 20
-98.50000000000006
 30
0
 41
1
 42
1
 43
0
 50
270
 70
    1
 71
    1
 44
1
 45
1
  0
INSERT
  5
280
100
AcDbEntity
  8
Light Barrier
  6
ByLayer
 62
  256
370
   -1
100
AcDbBlockReference
  2
Barrier Cell
 10
274
 20
49.99999999999995
 30
0
 41
1
 42
1
 43
0
 50
270
 70
    1
 71
    1
 44
1
 45
1
  0
INSERT
  5
281
100
AcDbEntity
  8
Light Barrier
  6
ByLayer
 62
  256
370
   -1
100
AcDbBlockReference
  2
Barrier Cell
 10
274
 20
33.49999999999995
 30
0
 41
1
 42
1
 43
0
 50
270
 70
    1
 71
    1
 44
1
 45
1
  0
INSERT
  5
282
100
AcDbEntity
  8
Light Barrier
  6
ByLayer
 62
  256
370
   -1
100
AcDbBlockReference
  2
Barrier Cell
 10
274
 20
16.99999999999995
 30
0
 41
1
 42
1
 43
0
 50
270
 70
    1
 71
    1
 44
1
 45
1
  0
INSERT
  5
283
100
AcDbEntity
  8
Light Barrier
  6
ByLayer
 62
  256
370
   -1
100
AcDbBlockReference
  2
Barrier Cell
 10
274
 20
0.4999999999999432
 30
0
 41
1
 42
1
 43
0
 50
270
 70
    1
 71
    1
 44
1
 45
1
  0
INSERT
  5
284
100
AcDbEntity
  8
Light Barrier
  6
ByLayer
 62
  256
370
   -1
100
AcDbBlockReference
  2
Barrier Cell
 10
274
 20
-16.00000000000006
 30
0
 41
1
 42
1
 43
0
 50
270
 70
    1
 71
    1
 44
1
 45
1
  0
INSERT
  5
285
100
AcDbEntity
  8
Light Barrier
  6
ByLayer
 62
  256
370
   -1
100
AcDbBlockReference
  2
Barrier Cell
 10
274
 20
-32.50000000000006
 30
0
 41
1
 42
1
 43
0
 50
270
 70
    1
 71
    1
 44
1
 45
1
  0
INSERT
  5
286
100
AcDbEntity
  8
Light Barrier
  6
ByLayer
 62
  256
370
   -1
100
AcDbBlockReference
  2
Barrier Cell
 10
274
 20
-49.00000000000006
 30
0
 41
1
 42
1
 43
0
 50
270
 70
    1
 71
    1
 44
1
 45
1
  0
INSERT
  5
287
100
AcDbEntity
  8
Light Barrier
  6
ByLayer
 62
  256
370
   -1
100
AcDbBlockReference
  2
Barrier Cell
 10
274
 20
-65.50000000000006
 30
0
 41
1
 42
1
 43
0
 50
270
 70
    1
 71
    1
 44
1
 45
1
  0
INSERT
  5
288
100
AcDbEntity
  8
Light Barrier
  6
ByLayer
 62
  256
370
   -1
100
AcDbBlockReference
  2
Barrier Cell
 10
274
 20
-82.00000000000006
 30
0
 41
1
 42
1
 43
0
 50
270
 70
    1
 71
    1
 44
1
 45
1
  0
INSERT
  5
289
100
AcDbEntity
  8
Light Barrier
  6
ByLayer
 62
  256
370
   -1
100
AcDbBlockReference
  2
Barrier Cell
 10
273.9999999999999
 20
-98.50000000000006
 30
0
 41
1
 42
1
 43
0
 50
270
 70
    1
 71
    1
 44
1
 45
1
  0
INSERT
  5
28A
100
AcDbEntity
  8
Light Barrier
  6
ByLayer
 62
  256
370
   -1
100
AcDbBlockReference
  2
Barrier Cell
 10
290.5
 20
49.99999999999994
 30
0
 41
1
 42
1
 43
0
 50
270
 70
    1
 71
    1
 44
1
 45
1
  0
INSERT
  5
28B
100
AcDbEntity
  8
Light Barrier
  6
ByLayer
 62
  256
370
   -1
100
AcDbBlockReference
  2
Barrier Cell
 10
290.5
 20
33.49999999999994
 30
0
 41
1
 42
1
 43
0
 50
270
 70
    1
 71
    1
 44
1
 45
1
  0
INSERT
  5
28C
100
AcDbEntity
  8
Light Barrier
  6
ByLayer
 62
  256
370
   -1
100
AcDbBlockReference
  2
Barrier Cell
 10
290.5
 20
16.99999999999994
 30
0
 41
1
 42
1
 43
0
 50
270
 70
    1
 71
    1
 44
1
 45
1
  0
INSERT
  5
28D
100
AcDbEntity
  8
Light Barrier
  6
ByLayer
 62
  256
370
   -1
100
AcDbBlockReference
  2
Barrier Cell
 10
290.5
 20
0.4999999999999432
 30
0
 41
1
 42
1
 43
0
 50
270
 70
    1
 71
    1
 44
1
 45
1
  0
INSERT
  5
28E
100
AcDbEntity
  8
Light Barrier
  6
ByLayer
 62
  256
370
   -1
100
AcDbBlockReference
  2
Barrier Cell
 10
290.5
 20
-16.00000000000006
 30
0
 41
1
 42
1
 43
0
 50
270
 70
    1
 71
    1
 44
1
 45
1
  0
INSERT
  5
28F
100
AcDbEntity
  8
Light Barrier
  6
ByLayer
 62
  256
370
   -1
100
AcDbBlockReference
  2
Barrier Cell
 10
290.5
 20
-32.50000000000006
 30
0
 41
1
 42
1
 43
0
 50
270
 70
    1
 71
    1
 44
1
 45
1
  0
INSERT
  5
290
100
AcDbEntity
  8
Light Barrier
  6
ByLayer
 62
  256
370
   -1
100
AcDbBlockReference
  2
Barrier Cell
 10
290.5
 20
-49.00000000000006
 30
0
 41
1
 42
1
 43
0
 50
270
 70
    1
 71
    1
 44
1
 45
1
  0
INSERT
  5
291
100
AcDbEntity
  8
Light Barrier
  6
ByLayer
 62
  256
370
   -1
100
AcDbBlockReference
  2
Barrier Cell
 10
290.5
 20
-65.50000000000006
 30
0
 41
1
 42
1
 43
0
 50
270
 70
    1
 71
    1
 44
1
 45
1
  0
INSERT
  5
292
100
AcDbEntity
  8
Light Barrier
  6
ByLayer
 62
  256
370
   -1
100
AcDbBlockReference
  2
Barrier Cell
 10
290.5
 20
-82.00000000000006
 30
0
 41
1
 42
1
 43
0
 50
270
 70
    1
 71
    1
 44
1
 45
1
  0
INSERT
  5
293
100
AcDbEntity
  8
Light Barrier
  6
ByLayer
 62
  256
370
   -1
100
AcDbBlockReference
  2
Barrier Cell
 10
290.4999999999999
 20
-98.50000000000006
 30
0
 41
1
 42
1
 43
0
 50
270
 70
    1
 71
    1
 44
1
 45
1
  0
INSERT
  5
294
100
AcDbEntity
  8
Light Barrier
  6
ByLayer
 62
  256
370
   -1
100
AcDbBlockReference
  2
Barrier Cell
 10
307
 20
49.99999999999994
 30
0
 41
1
 42
1
 43
0
 50
270
 70
    1
 71
    1
 44
1
 45
1
  0
INSERT
  5
295
100
AcDbEntity
  8
Light Barrier
  6
ByLayer
 62
  256
370
   -1
100
AcDbBlockReference
  2
Barrier Cell
 10
307
 20
33.49999999999994
 30
0
 41
1
 42
1
 43
0
 50
270
 70
    1
 71
    1
 44
1
 45
1
  0
INSERT
  5
296
100
AcDbEntity
  8
Light Barrier
  6
ByLayer
 62
  256
370
   -1
100
AcDbBlockReference
  2
Barrier Cell
 10
307
 20
16.99999999999994
 30
0
 41
1
 42
1
 43
0
 50
270
 70
    1
 71
    1
 44
1
 45
1
  0
INSERT
  5
297
100
AcDbEntity
  8
Light Barrier
  6
ByLayer
 62
  256
370
   -1
100
AcDbBlockReference
  2
Barrier Cell
 10
307
 20
0.4999999999999432
 30
0
 41
1
 42
1
 43
0
 50
270
 70
    1
 71
    1
 44
1
 45
1
  0
INSERT
  5
298
100
AcDbEntity
  8
Light Barrier
  6
ByLayer
 62
  256
370
   -1
100
AcDbBlockReference
  2
Barrier Cell
 10
307
 20
-16.00000000000006
 30
0
 41
1
 42
1
 43
0
 50
270
 70
    1
 71
    1
 44
1
 45
1
  0
INSERT
  5
299
100
AcDbEntity
  8
Light Barrier
  6
ByLayer
 62
  256
370
   -1
100
AcDbBlockReference
  2
Barrier Cell
 10
307
 20
-32.50000000000006
 30
0
 41
1
 42
1
 43
0
 50
270
 70
    1
 71
    1
 44
1
 45
1
  0
INSERT
  5
29A
100
AcDbEntity
  8
Light Barrier
  6
ByLayer
 62
  256
370
   -1
100
AcDbBlockReference
  2
Barrier Cell
 10
307
 20
-49.00000000000006
 30
0
 41
1
 42
1
 43
0
 50
270
 70
    1
 71
    1
 44
1
 45
1
  0
INSERT
  5
29B
100
AcDbEntity
  8
Light Barrier
  6
ByLayer
 62
  256
370
   -1
100
AcDbBlockReference
  2
Barrier Cell
 10
307
 20
-65.50000000000006
 30
0
 41
1
 42
1
 43
0
 50
270
 70
    1
 71
    1
 44
1
 45
1
  0
INSERT
  5
29C
100
AcDbEntity
  8
Light Barrier
  6
ByLayer
 62
  256
370
   -1
100
AcDbBlockReference
  2
Barrier Cell
 10
307
 20
-82.00000000000006
 30
0
 41
1
 42
1
 43
0
 50
270
 70
    1
 71
    1
 44
1
 45
1
  0
INSERT
  5
29D
100
AcDbEntity
  8
Light Barrier
  6
ByLayer
 62
  256
370
   -1
100
AcDbBlockReference
  2
Barrier Cell
 10
306.9999999999999
 20
-98.50000000000006
 30
0
 41
1
 42
1
 43
0
 50
270
 70
    1
 71
    1
 44
1
 45
1
  0
INSERT
  5
29E
100
AcDbEntity
  8
Light Barrier
  6
ByLayer
 62
  256
370
   -1
100
AcDbBlockReference
  2
Barrier Cell
 10
323.5
 20
49.99999999999994
 30
0
 41
1
 42
1
 43
0
 50
270
 70
    1
 71
    1
 44
1
 45
1
  0
INSERT
  5
29F
100
AcDbEntity
  8
Light Barrier
  6
ByLayer
 62
  256
370
   -1
100
AcDbBlockReference
  2
Barrier Cell
 10
323.5
 20
33.49999999999994
 30
0
 41
1
 42
1
 43
0
 50
270
 70
    1
 71
    1
 44
1
 45
1
  0
INSERT
  5
2A0
100
AcDbEntity
  8
Light Barrier
  6
ByLayer
 62
  256
370
   -1
100
AcDbBlockReference
  2
Barrier Cell
 10
323.5
 20
16.99999999999994
 30
0
 41
1
 42
1
 43
0
 50
270
 70
    1
 71
    1
 44
1
 45
1
  0
INSERT
  5
2A1
100
AcDbEntity
  8
Light Barrier
  6
ByLayer
 62
  256
370
   -1
100
AcDbBlockReference
  2
Barrier Cell
 10
323.5
 20
0.4999999999999432
 30
0
 41
1
 42
1
 43
0
 50
270
 70
    1
 71
    1
 44
1
 45
1
  0
INSERT
  5
2A2
100
AcDbEntity
  8
Light Barrier
  6
ByLayer
 62
  256
370
   -1
100
AcDbBlockReference
  2
Barrier Cell
 10
323.5
 20
-16.00000000000006
 30
0
 41
1
 42
1
 43
0
 50
270
 70
    1
 71
    1
 44
1
 45
1
  0
INSERT
  5
2A3
100
AcDbEntity
  8
Light Barrier
  6
ByLayer
 62
  256
370
   -1
100
AcDbBlockReference
  2
Barrier Cell
 10
323.5
 20
-32.50000000000006
 30
0
 41
1
 42
1
 43
0
 50
270
 70
    1
 71
    1
 44
1
 45
1
  0
INSERT
  5
2A4
100
AcDbEntity
  8
Light Barrier
  6
ByLayer
 62
  256
370
   -1
100
AcDbBlockReference
  2
Barrier Cell
 10
323.5
 20
-49.00000000000006
 30
0
 41
1
 42
1
 43
0
 50
270
 70
    1
 71
    1
 44
1
 45
1
  0
INSERT
  5
2A5
100
AcDbEntity
  8
Light Barrier
  6
ByLayer
 62
  256
370
   -1
100
AcDbBlockReference
  2
Barrier Cell
 10
323.5
 20
-65.50000000000006
 30
0
 41
1
 42
1
 43
0
 50
270
 70
    1
 71
    1
 44
1
 45
1
  0
INSERT
  5
2A6
100
AcDbEntity
  8
Light Barrier
  6
ByLayer
 62
  256
370
   -1
100
AcDbBlockReference
  2
Barrier Cell
 10
323.5
 20
-82.00000000000006
 30
0
 41
1
 42
1
 43
0
 50
270
 70
    1
 71
    1
 44
1
 45
1
  0
INSERT
  5
2A7
100
AcDbEntity
  8
Light Barrier
  6
ByLayer
 62
  256
370
   -1
100
AcDbBlockReference
  2
Barrier Cell
 10
323.4999999999999
 20
-98.50000000000006
 30
0
 41
1
 42
1
 43
0
 50
270
 70
    1
 71
    1
 44
1
 45
1
  0
INSERT
  5
2A8
100
AcDbEntity
  8
Light Barrier
  6
ByLayer
 62
  256
370
   -1
100
AcDbBlockReference
  2
Barrier Cell
 10
9.999999999999996
 20
50.166
 30
0
 41
1
 42
1
 43
0
 50
270
 70
    1
 71
    1
 44
1
 45
1
  0
INSERT
  5
2A9
100
AcDbEntity
  8
Light Barrier
  6
ByLayer
 62
  256
370
   -1
100
AcDbBlockReference
  2
Barrier Cell
 10
76
 20
49.99999999999999
 30
0
 41
1
 42
1
 43
0
 50
270
 70
    1
 71
    1
 44
1
 45
1
  0
DIMENSION
  5
2AA
100
AcDbEntity
  8
Measurements
  6
ByLayer
 62
  256
370
   -1
100
AcDbDimension
  2
*D3
 10
346
 20
90
 30
0
 11
339
 21
91.875
 31
0
 70
   33
 71
    5
  3
Standard
 53
0
210
0
220
0
230
1
100
AcDbAlignedDimension
 13
332
 23
67
 33
0
 14
346
 24
67
 34
0
  0
DIMENSION
  5
2AB
100
AcDbEntity
  8
Measurements
  6
ByLayer
 62
  256
370
   -1
100
AcDbDimension
  2
*D4
 10
360
 20
73
 30
0
 11
358.125
 21
70
 31
0
 70
   33
 71
    5
  3
Standard
 53
0
210
0
220
0
230
1
100
AcDbAlignedDimension
 13
332
 23
67
 33
0
 14
332
 24
73
 34
0
  0
DIMENSION
  5
2AC
100
AcDbEntity
  8
Measurements
  6
ByLayer
 62
  256
370
   -1
100
AcDbDimension
  2
*D5
 10
166.5
 20
90.00000000000003
 30
0
 11
249.25
 21
91.87500000000003
 31
0
 70
   33
 71
    5
  3
Standard
 53
0
210
0
220
0
230
1
100
AcDbAlignedDimension
 13
332
 23
67
 33
0
 14
166.5
 24
67
 34
0
  0
LINE
  5
2AD
100
AcDbEntity
  8
Measurements
  6
ByLayer
 62
  256
370
   40
100
AcDbLine
 10
-5
 20
68
 11
-5
 21
71
  0
LINE
  5
2AE
100
AcDbEntity
  8
Measurements
  6
ByLayer
 62
  256
370
   40
100
AcDbLine
 10
-5
 20
71
 11
-2
 21
71
  0
ENDSEC
  0
SECTION
  2
OBJECTS
  0
DICTIONARY
  5
C
330
0
100
AcDbDictionary
281
    1
  3
ACAD_GROUP
350
D
  0
DICTIONARY
  5
D
330
C
100
AcDbDictionary
281
    1
  0
ENDSEC
  0
EOF
